<svg width="180" height="82" viewBox="0 0 180 82" fill="none" xmlns="http://www.w3.org/2000/svg">
<path d="M179.96 45.9898L179.9 45.4174C180.016 44.6849 180.038 43.9306 179.96 43.1737L178.974 33.648C178.39 22.3643 169.126 13.5413 157.827 13.5413C154.438 13.5413 151.184 14.3227 148.242 15.8284C144.576 13.2076 140.137 11.7534 135.586 11.7534C133.448 11.7534 131.35 12.0654 129.347 12.665C129.463 11.8836 129.482 11.0778 129.393 10.2558C129.119 7.78413 127.898 5.56482 125.96 4.01022C124.019 2.45562 121.594 1.75293 119.128 2.02695C117.3 2.23044 115.617 2.95483 114.233 4.10518C112.674 3.31296 110.879 2.9494 109.017 3.1556C106.551 3.42962 104.336 4.65322 102.785 6.5958C102.631 6.78843 102.488 6.98648 102.352 7.18996C101.267 6.13728 99.8699 5.39118 98.2781 5.11445L97.799 5.03034L97.6637 5.00864C97.6014 5.0005 97.5391 4.98965 97.4769 4.98422C92.3714 4.30324 87.1361 5.09546 82.3392 7.27678C80.336 8.18567 78.4466 9.32516 76.7195 10.66C76.6166 10.7414 76.5164 10.8255 76.4136 10.9069C76.2782 10.3046 76.0806 9.71042 75.8234 9.13525C74.8083 6.86439 72.9703 5.1253 70.6503 4.24083C68.8989 3.57341 67.069 3.47303 65.3608 3.85015C64.3105 2.39051 62.8596 1.26729 61.1406 0.610721C56.3519 -1.2179 50.9703 1.19946 49.1458 5.99892C48.553 7.55623 48.4095 9.17323 48.645 10.7116C48.5584 11.2813 48.5232 11.851 48.5421 12.4181C46.7988 12.7979 45.1178 13.3921 43.5288 14.2006C39.8689 11.5933 35.4375 10.1472 30.8978 10.1472C26.3582 10.1472 22.433 11.4088 18.903 13.7556L15.6357 11.8646C13.646 10.7143 11.3288 10.4077 9.11177 11.0046C6.89472 11.6014 5.04042 13.0258 3.89264 15.0199L1.15043 19.7841C0.116355 21.5775 -0.197659 23.5933 0.116355 25.4925C-0.452118 28.9327 1.10983 32.5275 4.29599 34.3724L4.90777 34.7251L4.82927 34.8743C3.93866 36.5917 3.68149 38.4746 3.97656 40.2544C3.38372 43.8302 5.10268 47.5472 8.47832 49.3161L15.9984 53.2474C18.5051 54.5659 21.4964 54.5605 23.9868 53.2392C25.5434 52.4199 26.7967 51.161 27.6061 49.601L28.5238 47.8402C28.7566 49.3595 29.3981 50.7947 30.3997 52.0075C31.8642 53.7791 33.9297 54.8752 36.2117 55.0896L44.2894 55.8546C44.5655 55.8818 44.8417 55.8926 45.1151 55.8926C46.0679 55.8926 47.0019 55.7353 47.8952 55.4233C50.1285 54.6527 51.9097 53.0059 52.8815 50.9331C54.6194 53.3912 57.5917 54.8671 60.7941 54.5388L67.5427 53.8388C69.7327 53.6109 71.7088 52.5772 73.1435 50.9195C79.0448 56.8992 87.9428 59.6394 96.8218 57.884C98.178 60.4126 100.825 61.9537 103.627 61.9537C104.458 61.9537 105.306 61.818 106.134 61.5304L110.804 59.9188C112.753 59.246 114.323 57.8542 115.224 55.9957C115.782 54.8508 116.042 53.6136 116.004 52.3765L120.754 54.8589C123.234 56.1585 126.196 56.1666 128.662 54.8915C130.251 54.0749 131.531 52.8051 132.359 51.2125L133.272 49.4626C133.507 50.9792 134.146 52.409 135.148 53.6191C136.612 55.3907 138.678 56.4868 140.96 56.7011L149.04 57.4689C149.311 57.4933 149.579 57.5069 149.849 57.5069C150.789 57.5069 151.717 57.3523 152.621 57.0457L152.657 57.0348C154.879 56.2616 156.652 54.6175 157.624 52.5528C158.073 53.1877 158.609 53.7656 159.229 54.2702C161.013 55.7244 163.255 56.3945 165.537 56.1558L172.291 55.4558C174.575 55.2171 176.633 54.102 178.081 52.3141C179.529 50.5261 180.195 48.2824 179.957 45.9953L179.96 45.9898ZM119.672 6.95935C122.057 6.69347 124.203 8.41356 124.469 10.8038C124.734 13.194 123.018 15.3455 120.633 15.6114C118.248 15.8773 116.101 14.1572 115.836 11.7669C115.571 9.37671 117.287 7.22523 119.672 6.95935ZM109.561 8.08799C111.946 7.82211 114.093 9.54221 114.358 11.9324C114.623 14.3227 112.907 16.4742 110.522 16.74C108.137 17.0059 105.99 15.2858 105.725 12.8956C105.46 10.5054 107.176 8.35388 109.561 8.08799ZM53.7721 7.75971C54.6275 5.51327 57.1369 4.38463 59.3783 5.24196C61.6197 6.0993 62.7459 8.61433 61.8904 10.8608C61.035 13.1072 58.5256 14.2359 56.2842 13.3785C54.0428 12.5212 52.9167 10.0061 53.7721 7.75971ZM66.0051 46.0848L61.1866 46.584L59.2538 46.7848C57.2479 46.9937 55.4586 45.5313 55.2501 43.5264L54.2458 33.8244C54.1024 32.4217 52.9221 31.331 51.4901 31.331C50.0581 31.331 48.8751 32.4217 48.7343 33.8244L48.7235 33.9627L47.7003 44.7988C47.5622 46.2747 46.566 47.4631 45.2531 47.9161C44.774 48.0816 44.2569 48.1495 43.7264 48.0979L36.5122 47.4142H36.4607L35.6513 47.3328C33.6454 47.1429 32.1701 45.3604 32.3596 43.35L33.1419 35.048C33.1501 35.01 33.1528 34.9693 33.1528 34.9313C33.1907 34.5867 33.1311 34.2395 32.9985 33.4391C32.9687 33.2573 32.8848 33.0864 32.7494 32.9616C30.9032 31.2605 28.8134 31.8954 27.9878 33.3414L27.9039 33.5042L22.1867 44.4868C21.832 45.1705 21.2906 45.6941 20.6599 46.0251C19.6366 46.5677 18.3725 46.6139 17.268 46.0333L9.73709 42.0966C7.95046 41.1605 7.26017 38.9521 8.19138 37.1615L11.5914 30.6338L5.74153 27.2505C3.99821 26.2413 3.39996 24.0057 4.40697 22.2585L7.14918 17.4943C8.15619 15.747 10.3868 15.1475 12.1301 16.1567L18.3021 19.7299C21.3123 16.8648 25.3863 15.104 29.8692 15.104C34.666 15.104 38.9891 17.1144 42.048 20.343C44.8038 18.178 48.2742 16.8893 52.0477 16.8893C60.7562 16.8893 67.8621 23.7642 68.2573 32.3946V32.4027L69.2562 42.0694C69.4647 44.0771 68.011 45.8732 66.0024 46.0821L66.0051 46.0848ZM65.7913 17.0113C63.5498 16.154 62.4237 13.639 63.2791 11.3925C64.1346 9.1461 66.644 8.01745 68.8854 8.87479C71.1268 9.73213 72.2529 12.2472 71.3975 14.4936C70.5421 16.74 68.0327 17.8687 65.7913 17.0113ZM109.19 52.4063L104.523 54.0179C103.08 54.5171 101.502 53.7466 101.004 52.2978L99.9998 49.3758L99.878 49.0204C99.4016 49.2076 98.9278 49.3758 98.4487 49.5304C88.1864 52.8214 77.1526 48.5157 72.9188 39.1556C69.0397 30.5795 72.104 20.5004 79.7459 14.5886C81.1454 13.506 82.6939 12.5646 84.383 11.7968C88.4815 9.93561 92.8046 9.36315 96.8597 9.91119C96.8786 9.91662 96.9003 9.9139 96.9192 9.91933L97.4254 10.0089C98.9738 10.2775 100.019 11.7507 99.7535 13.308L99.1336 16.9272C98.8683 18.4683 97.4146 19.5128 95.8743 19.2659C95.8608 19.2659 95.85 19.2605 95.8391 19.2605C95.5278 19.19 95.2111 19.1357 94.8944 19.1004C92.7017 18.8155 90.3682 19.133 88.1566 20.1368C82.1904 22.8472 79.3832 29.5404 81.8926 35.0832C84.2775 40.3548 90.6119 42.6907 96.3589 40.5691C96.6648 40.4551 96.8218 40.0997 96.7162 39.7904L95.1434 35.2107C95.1136 35.1212 95.0866 35.029 95.0649 34.9394C94.9593 34.4918 94.5181 34.2096 94.0742 34.329L90.6173 35.2596C89.7754 35.4875 88.9038 34.9856 88.6791 34.1418L87.6287 30.2078C87.3987 29.3613 87.8994 28.4931 88.744 28.2625L103.061 24.4099L104.255 24.0898C105.097 23.8646 105.969 24.3638 106.193 25.2076L107.249 29.1443C107.474 29.988 110.912 48.8901 110.912 48.8901C111.41 50.3389 110.641 51.9179 109.198 52.4144L109.19 52.4063ZM171.784 47.6964L166.966 48.1956L165.03 48.3964C163.027 48.6053 161.235 47.1429 161.029 45.1379L160.041 35.5906C160.041 35.4875 160.031 35.3817 160.012 35.2813C159.806 33.9464 158.658 32.929 157.272 32.929C155.886 32.929 154.76 33.922 154.538 35.2325C154.508 35.3871 154.492 35.5499 154.492 35.7154L153.482 46.4077C153.344 47.8809 152.351 49.0692 151.041 49.525C150.561 49.6878 150.044 49.7583 149.508 49.7068L142.248 49.0177L141.439 48.9417C139.433 48.7518 137.958 46.9693 138.147 44.9589L138.929 36.6568L138.94 36.5402C138.973 36.239 138.938 35.9351 138.813 35.3301C138.721 34.8743 138.458 34.4646 138.077 34.196C136.385 33.005 134.593 33.6019 133.813 34.8852C133.813 34.8879 133.81 34.8933 133.81 34.896C133.745 34.9991 133.686 35.1131 133.637 35.2297C133.634 35.2379 133.634 35.2406 133.629 35.246L127.98 46.0957C127.617 46.7929 127.062 47.322 126.412 47.653C125.397 48.1793 124.146 48.2146 123.055 47.6421L115.525 43.7054C113.738 42.7694 113.048 40.561 113.976 38.7703L117.376 32.2481L113.982 30.2838C112.238 29.2745 111.64 27.0362 112.647 25.289L115.395 20.5302C116.402 18.7776 118.632 18.178 120.376 19.1927L124.052 21.3197C127.062 18.4656 131.122 16.7183 135.592 16.7183C140.399 16.7183 144.736 18.7396 147.798 21.9844C150.561 19.8031 154.043 18.5035 157.832 18.5035C166.541 18.5035 173.647 25.3785 174.039 34.0088V34.017L175.038 43.6837C175.247 45.6914 173.793 47.4875 171.784 47.6964Z" fill="#181818"/>
<path d="M65.389 77.1635C65.389 77.9828 65.3348 78.6475 65.2292 79.1576C65.1237 79.6677 64.9288 80.0611 64.6445 80.3378C64.3603 80.6145 63.9624 80.8017 63.4534 80.9021C62.9445 81.0025 62.2813 81.0541 61.4638 81.0541C60.7843 81.0541 60.1319 80.9265 59.5012 80.6688C58.8732 80.4111 58.3209 80.0556 57.8499 79.5998C57.3762 79.144 56.9999 78.6123 56.7211 77.9991C56.4423 77.3887 56.3015 76.7321 56.3015 76.0321C56.3015 75.2969 56.4287 74.6105 56.6859 73.9756C56.9431 73.3407 57.3004 72.7927 57.7579 72.3288C58.2154 71.8648 58.7595 71.5013 59.3902 71.2381C60.0182 70.9749 60.7058 70.8447 61.4475 70.8447C61.7047 70.8447 61.9727 70.8447 62.2515 70.8393C62.5304 70.8338 62.8092 70.8501 63.0853 70.8881C63.3614 70.9261 63.6159 70.9993 63.8568 71.1079C64.095 71.2191 64.2926 71.3982 64.4496 71.6451C64.5606 71.8024 64.631 71.9978 64.6635 72.2311C64.696 72.4644 64.7122 72.676 64.7122 72.8578C64.7122 73.0152 64.6824 73.121 64.6229 73.1752C64.5633 73.2295 64.4496 73.2594 64.2845 73.2594C63.9082 73.2594 63.5509 73.2132 63.2098 73.121C62.8687 73.0287 62.5033 72.9826 62.1081 72.9826C61.0983 72.9826 60.3647 73.2295 59.9073 73.7206C59.4471 74.2116 59.2197 74.955 59.2197 75.948C59.2197 76.3903 59.2711 76.7918 59.3767 77.1553C59.4823 77.5189 59.6447 77.8309 59.8667 78.0941C60.0859 78.3572 60.3675 78.5553 60.7058 78.6937C61.0442 78.832 61.4448 78.8999 61.9023 78.8999C62.1135 78.8999 62.2678 78.8754 62.3706 78.8239C62.4708 78.7723 62.5439 78.6991 62.5845 78.6041C62.6251 78.5065 62.6468 78.3898 62.6468 78.2514V77.7956C62.6468 77.4836 62.6062 77.2449 62.5222 77.0794C62.441 76.9139 62.219 76.8298 61.8617 76.8298C61.8157 76.8298 61.767 76.8298 61.7183 76.8379C61.6668 76.8433 61.61 76.8461 61.545 76.8461C61.2499 76.8461 61.0469 76.762 60.9332 76.591C60.8195 76.4201 60.76 76.1976 60.76 75.9209C60.76 75.5248 60.8412 75.2318 61.009 75.0391C61.1741 74.8465 61.4638 74.7488 61.8753 74.7488C62.0323 74.7488 62.1839 74.7543 62.33 74.7624C62.4762 74.7705 62.6278 74.776 62.7848 74.776C63.0149 74.776 63.2423 74.776 63.4724 74.7841C63.7025 74.7922 63.9299 74.8004 64.16 74.8194C64.4984 74.8465 64.7582 74.9333 64.9369 75.0744C65.1156 75.2182 65.2374 75.4624 65.3023 75.8124C65.3484 76.0321 65.3727 76.2573 65.3781 76.4879C65.3836 76.7185 65.3863 76.9437 65.3863 77.1635H65.389Z" fill="#181818"/>
<path d="M70.6242 80.8312C70.405 80.8312 70.1965 80.8312 70.0043 80.8231C69.8121 80.8177 69.6416 80.7824 69.4954 80.7119C69.3492 80.644 69.2328 80.5328 69.1516 80.3809C69.0704 80.2289 69.0271 80.0146 69.0271 79.7406C69.0271 79.5018 69.0812 79.1464 69.1922 78.6716C69.3032 78.1968 69.444 77.6623 69.6199 77.0655C69.7932 76.4686 69.9935 75.8473 70.2182 75.2043C70.4429 74.5613 70.673 73.9617 70.9058 73.4028C71.1386 72.8466 71.3687 72.3637 71.5933 71.954C71.818 71.5443 72.0211 71.2812 72.2051 71.1618C72.3621 71.0505 72.5164 70.9881 72.6735 70.9691C72.8305 70.9502 72.9983 70.942 73.1824 70.942C73.4856 70.942 73.7319 70.9719 73.9268 71.0315C74.119 71.0912 74.3166 71.2459 74.5196 71.4928C74.6577 71.6664 74.8255 71.9649 75.0231 72.3827C75.2208 72.8005 75.4238 73.2807 75.6349 73.8233C75.8461 74.3659 76.0545 74.9438 76.2602 75.5543C76.466 76.1674 76.6528 76.7535 76.8179 77.3124C76.983 77.874 77.1157 78.3786 77.2158 78.829C77.316 79.2793 77.3674 79.6239 77.3674 79.8627C77.3674 80.1014 77.2997 80.2995 77.1671 80.4297C77.0344 80.5572 76.872 80.6549 76.6798 80.72C76.4876 80.7851 76.2819 80.8204 76.0599 80.8312C75.8407 80.8394 75.643 80.8448 75.4671 80.8448C75.191 80.8448 75.0069 80.7987 74.9094 80.7064C74.812 80.6142 74.7524 80.5002 74.7308 80.3619C74.7091 80.2235 74.6956 80.077 74.6956 79.9196C74.6956 79.7623 74.6523 79.6158 74.5657 79.4774C74.479 79.339 74.3139 79.2251 74.0757 79.1328C73.8375 79.0406 73.4747 78.9945 72.9875 78.9945C72.5841 78.9945 72.2918 79.0406 72.1131 79.1328C71.9344 79.2251 71.8126 79.339 71.7477 79.4774C71.6827 79.6158 71.6529 79.7596 71.6529 79.9115C71.6529 80.0634 71.6313 80.2072 71.5906 80.3456C71.55 80.484 71.4607 80.5979 71.3226 80.6901C71.1846 80.7824 70.9518 80.8285 70.6215 80.8285L70.6242 80.8312ZM73.3746 76.9705C73.5126 76.9705 73.629 76.9325 73.7265 76.8538C73.8239 76.7752 73.87 76.6585 73.87 76.5011C73.87 76.417 73.8483 76.2461 73.8023 75.9829C73.7563 75.7198 73.7021 75.4485 73.6372 75.1609C73.5722 74.876 73.4991 74.621 73.4179 74.3958C73.334 74.1706 73.2473 74.0566 73.1553 74.0566C73.0903 74.0566 73.0172 74.1706 72.936 74.3958C72.8548 74.621 72.7763 74.8787 72.7032 75.169C72.6301 75.4593 72.5706 75.736 72.5246 76.0046C72.4785 76.2705 72.4569 76.4415 72.4569 76.5147C72.4569 76.7073 72.5219 76.8321 72.6491 76.8864C72.7763 76.9407 72.9198 76.9678 73.0768 76.9678H73.38L73.3746 76.9705Z" fill="#181818"/>
<path d="M83.745 79.8382C83.745 80.1692 83.6909 80.4161 83.5853 80.5843C83.4798 80.7498 83.2469 80.8339 82.8896 80.8339C82.7245 80.8339 82.5621 80.8258 82.3997 80.8122C82.2399 80.7987 82.0856 80.7498 81.9395 80.6684C81.7933 80.587 81.666 80.4297 81.5605 80.1991C81.4549 79.9685 81.371 79.6999 81.306 79.3933C81.241 79.0867 81.1923 78.7584 81.1544 78.4139C81.1165 78.0693 81.0922 77.7274 81.0786 77.3937C81.0651 77.0573 81.057 76.7507 81.0516 76.4686C81.0461 76.1891 81.0461 75.9694 81.0461 75.812C81.0461 75.5624 81.0516 75.2612 81.0597 74.9004C81.0678 74.5423 81.0922 74.1679 81.1273 73.7826C81.1652 73.3974 81.2113 73.0257 81.2708 72.673C81.3304 72.3203 81.4062 72.0354 81.4982 71.8238C81.5794 71.6773 81.6742 71.5443 81.7797 71.4249C81.8853 71.3056 82.0207 71.2215 82.1858 71.1753C82.332 71.1292 82.4836 71.0967 82.6406 71.0777C82.7976 71.0587 82.9519 71.0505 83.1089 71.0505C83.2199 71.0505 83.3282 71.0587 83.4391 71.0777C83.5501 71.0967 83.6557 71.1292 83.7559 71.1753C83.9129 71.2404 84.059 71.4005 84.1971 71.6583C84.3352 71.916 84.4705 72.2144 84.6032 72.5536C84.7358 72.8927 84.8657 73.2536 84.9957 73.6361C85.1229 74.0186 85.2474 74.3686 85.3665 74.6915C85.4856 75.0144 85.6102 75.2775 85.7374 75.4837C85.8646 75.6899 85.9891 75.793 86.1083 75.793C86.2734 75.793 86.425 75.7008 86.563 75.5163C86.7011 75.3318 86.8365 75.0985 86.9691 74.8136C87.1017 74.5287 87.2317 74.2113 87.3535 73.8613C87.478 73.5113 87.5971 73.1749 87.7108 72.8466C87.8245 72.521 87.9355 72.2253 88.0411 71.9648C88.1466 71.7017 88.2495 71.5172 88.3497 71.4059C88.5229 71.2025 88.7422 71.0939 89.0021 71.0749C89.2646 71.056 89.5137 71.0478 89.7519 71.0478C89.9901 71.0478 90.2175 71.0939 90.407 71.1862C90.5938 71.2784 90.7454 71.4385 90.8537 71.6691C90.9998 71.935 91.1108 72.2334 91.1839 72.5644C91.257 72.8954 91.3111 73.2346 91.349 73.5846C91.3869 73.9345 91.4086 74.2845 91.4167 74.6318C91.4248 74.9818 91.4303 75.3074 91.4303 75.6112C91.4303 75.7686 91.4303 75.9205 91.4357 76.067C91.4411 76.2135 91.4438 76.3655 91.4438 76.5228C91.4438 76.7996 91.4357 77.1197 91.4221 77.4887C91.4086 77.8577 91.3761 78.2294 91.3247 78.6065C91.2732 78.9836 91.1947 79.339 91.0838 79.6673C90.9728 79.9983 90.8266 80.275 90.6425 80.4948C90.4855 80.6793 90.315 80.777 90.1255 80.7905C89.9387 80.8041 89.7248 80.8122 89.4866 80.8122C89.1455 80.8122 88.9236 80.7335 88.818 80.5789C88.7124 80.4215 88.6583 80.1828 88.6583 79.8626C88.6583 79.339 88.6664 78.8154 88.6853 78.2972C88.7043 77.779 88.7124 77.2554 88.7124 76.7317C88.7124 76.6205 88.7016 76.5228 88.6772 76.436C88.6556 76.3492 88.6285 76.2542 88.6014 76.1538C88.4904 76.1538 88.4038 76.2217 88.3388 76.3546C88.2739 76.4876 88.2089 76.6558 88.1466 76.8593C88.0817 77.0627 88.0086 77.2825 87.9274 77.5212C87.8462 77.76 87.7325 77.9825 87.589 78.1832C87.4455 78.3867 87.2614 78.5522 87.0314 78.6879C86.8013 78.8208 86.5089 78.8886 86.1516 78.8886C85.8294 78.8886 85.5642 78.8208 85.353 78.6879C85.1419 78.5549 84.9659 78.3894 84.8224 78.1914C84.679 77.9933 84.5626 77.7736 84.4705 77.5294C84.3785 77.2852 84.3 77.0654 84.2377 76.8674C84.1727 76.6693 84.1105 76.5038 84.0509 76.3709C83.9914 76.238 83.9156 76.1701 83.8235 76.1701C83.7856 76.1973 83.7586 76.2705 83.7396 76.3899C83.7207 76.5093 83.7071 76.6449 83.699 76.7968C83.6909 76.9488 83.6855 77.0926 83.6855 77.2309V77.5212C83.6855 77.9065 83.6936 78.2918 83.7071 78.6743C83.7207 79.0569 83.7288 79.4448 83.7288 79.8409L83.745 79.8382Z" fill="#181818"/>
<path d="M98.1462 77.977C98.1462 78.4735 98.4034 78.7231 98.9177 78.7231C99.313 78.7231 99.7028 78.7177 100.087 78.7014C100.472 78.6879 100.861 78.6797 101.257 78.6797C101.606 78.6797 101.825 78.7421 101.917 78.8669C102.009 78.9917 102.055 79.2142 102.055 79.5371C102.055 79.8328 101.982 80.0716 101.836 80.2533C101.69 80.4378 101.503 80.5789 101.278 80.682C101.054 80.7824 100.81 80.8502 100.547 80.8828C100.285 80.9153 100.041 80.9316 99.8111 80.9316C99.562 80.9316 99.3075 80.9316 99.0396 80.937C98.7743 80.9424 98.5063 80.937 98.241 80.9235C97.9757 80.9099 97.7131 80.88 97.4559 80.8339C97.1988 80.7878 96.9524 80.72 96.7115 80.6277C96.1972 80.4161 95.8453 80.1068 95.6585 79.7026C95.469 79.2983 95.358 78.829 95.3201 78.2945C95.3012 77.9445 95.2876 77.5999 95.2795 77.2608C95.2714 76.9217 95.266 76.5744 95.266 76.2271C95.266 75.9422 95.266 75.6628 95.2606 75.386C95.2551 75.1093 95.2524 74.8299 95.2524 74.545C95.2524 73.6524 95.3499 72.9633 95.5475 72.4749C95.7451 71.9865 96.0375 71.6311 96.4273 71.4059C96.8171 71.1808 97.3016 71.0505 97.8782 71.0125C98.4548 70.9746 99.1262 70.9583 99.8869 70.9583C100.198 70.9583 100.528 70.999 100.878 71.0831C101.227 71.1672 101.516 71.3327 101.744 71.5796C101.871 71.7179 101.958 71.8834 101.998 72.0761C102.039 72.2687 102.061 72.4613 102.061 72.6567C102.061 72.8032 102.012 72.9171 101.917 72.9958C101.822 73.0745 101.701 73.1342 101.56 73.1749C101.416 73.2156 101.267 73.24 101.113 73.2427C100.959 73.2454 100.829 73.2481 100.729 73.2481C100.491 73.2481 100.255 73.2373 100.028 73.2129C99.7975 73.1912 99.5701 73.1776 99.34 73.1776C99.137 73.1776 98.961 73.183 98.8095 73.1912C98.6579 73.1993 98.5333 73.2318 98.4386 73.2888C98.3438 73.3458 98.2708 73.4353 98.2247 73.5656C98.1787 73.6931 98.1571 73.8749 98.1571 74.1028C98.1571 74.2764 98.2031 74.412 98.2951 74.5097C98.3872 74.6074 98.5009 74.6806 98.6389 74.7295C98.777 74.7783 98.9259 74.8109 99.0856 74.819C99.2453 74.8271 99.3861 74.8326 99.5052 74.8326C99.7163 74.8326 99.9247 74.8272 100.13 74.8109C100.336 74.7973 100.55 74.7892 100.769 74.7892C100.943 74.7892 101.124 74.8109 101.313 74.857C101.5 74.9031 101.655 75.0008 101.774 75.1473C101.847 75.2395 101.887 75.3698 101.898 75.5407C101.906 75.7116 101.912 75.85 101.912 75.9612C101.912 76.0616 101.904 76.1647 101.885 76.2651C101.866 76.3655 101.833 76.4523 101.787 76.5283C101.722 76.6205 101.598 76.691 101.408 76.7426C101.219 76.7941 101.013 76.8267 100.788 76.8403C100.564 76.8538 100.344 76.8593 100.133 76.8538C99.922 76.8484 99.7623 76.8484 99.6513 76.8484H99.3427C99.2182 76.8484 99.0937 76.8484 98.9719 76.8538C98.8474 76.8593 98.7282 76.8755 98.6145 76.9027C98.5009 76.9298 98.4115 76.9705 98.3466 77.0275C98.3005 77.0736 98.2653 77.1251 98.2437 77.1794C98.222 77.2337 98.2004 77.2988 98.1814 77.372C98.1625 77.4724 98.1516 77.5728 98.1462 77.6678C98.1408 77.7654 98.1381 77.8685 98.1381 77.977H98.1462Z" fill="#181818"/>
<path d="M108.733 79.6863C108.733 79.8436 108.725 79.9929 108.712 80.1339C108.698 80.2777 108.666 80.3998 108.614 80.5056C108.563 80.6114 108.484 80.6956 108.373 80.7607C108.262 80.8258 108.108 80.8583 107.905 80.8583C107.721 80.8583 107.537 80.8529 107.355 80.8366C107.171 80.8231 106.993 80.7742 106.819 80.6928C106.654 80.6277 106.516 80.4785 106.408 80.2452C106.297 80.0119 106.208 79.7297 106.14 79.4041C106.072 79.0786 106.021 78.7258 105.988 78.3487C105.956 77.9716 105.934 77.6081 105.926 77.2581C105.918 76.9081 105.913 76.5879 105.913 76.2922V75.6302C105.913 75.1337 105.926 74.6427 105.953 74.1543C105.98 73.6659 106.032 73.183 106.105 72.7055C106.124 72.5943 106.145 72.4803 106.172 72.3609C106.2 72.2416 106.235 72.1168 106.275 71.9892C106.316 71.8617 106.37 71.7396 106.435 71.6311C106.5 71.5199 106.568 71.4276 106.641 71.3544C106.798 71.2269 107.02 71.1238 107.309 71.0505C107.599 70.9773 107.905 70.923 108.233 70.885C108.56 70.847 108.879 70.828 109.196 70.8226C109.513 70.8172 109.776 70.8172 109.987 70.8172C110.463 70.8172 110.937 70.885 111.405 71.0234C111.873 71.1618 112.296 71.368 112.672 71.6447C113.048 71.9214 113.354 72.2633 113.587 72.673C113.82 73.0826 113.939 73.5493 113.939 74.0729C113.939 74.2655 113.92 74.4473 113.885 74.6182C113.847 74.7892 113.779 74.9574 113.679 75.1229C113.522 75.3616 113.343 75.5841 113.143 75.793C112.943 76.0019 112.721 76.181 112.483 76.3383C112.455 76.3573 112.401 76.3926 112.326 76.4414C112.247 76.493 112.209 76.5364 112.209 76.5717C112.209 76.5988 112.231 76.6395 112.277 76.6965C112.323 76.7507 112.374 76.8077 112.428 76.862C112.483 76.9162 112.537 76.9705 112.588 77.022L112.691 77.1251C112.791 77.2445 112.908 77.448 113.035 77.7329C113.162 78.0177 113.284 78.327 113.4 78.658C113.517 78.989 113.611 79.3065 113.69 79.6103C113.768 79.9142 113.806 80.1475 113.806 80.313C113.806 80.4324 113.728 80.5301 113.573 80.6033C113.416 80.6766 113.238 80.7335 113.037 80.7769C112.837 80.8204 112.634 80.8448 112.431 80.8611C112.228 80.8746 112.087 80.8828 112.003 80.8828C111.7 80.8828 111.47 80.7987 111.316 80.6277C111.159 80.4568 111.037 80.2425 110.95 79.9874C110.864 79.7297 110.791 79.453 110.731 79.1599C110.672 78.8669 110.582 78.5929 110.463 78.3379C110.344 78.0856 110.179 77.8739 109.968 77.703C109.757 77.5321 109.453 77.448 109.058 77.448C108.977 77.448 108.907 77.4968 108.852 77.5918C108.798 77.6867 108.76 77.8061 108.741 77.9445C108.722 78.0828 108.712 78.2185 108.706 78.3514C108.701 78.4844 108.698 78.5848 108.698 78.6472C108.698 78.8127 108.706 78.9836 108.72 79.1572C108.733 79.3309 108.741 79.5126 108.741 79.6944L108.733 79.6863ZM108.706 74.7892C108.706 74.9275 108.728 75.074 108.769 75.2314C108.809 75.3888 108.917 75.4647 109.091 75.4647C109.348 75.4647 109.597 75.4539 109.84 75.4295C110.084 75.4077 110.298 75.3481 110.479 75.2558C110.663 75.1636 110.81 75.0252 110.921 74.8434C111.032 74.6589 111.086 74.4066 111.086 74.0838C111.086 73.8993 111.045 73.7311 110.961 73.5791C110.877 73.4272 110.769 73.2997 110.631 73.1939C110.493 73.088 110.339 73.0067 110.171 72.9524C110.003 72.8981 109.832 72.8683 109.667 72.8683H109.253C109.042 72.8683 108.898 72.9388 108.82 73.0826C108.741 73.2264 108.704 73.3892 108.704 73.571V74.7837L108.706 74.7892Z" fill="#181818"/>
<path d="M121.167 72.9416C120.91 72.9416 120.674 72.9958 120.457 73.1071C120.241 73.2183 120.135 73.4191 120.135 73.7148C120.135 73.9535 120.249 74.1489 120.474 74.3008C120.698 74.4527 120.977 74.5911 121.313 74.7132C121.649 74.838 122.011 74.9709 122.401 75.112C122.791 75.2558 123.154 75.4349 123.489 75.6492C123.825 75.8663 124.104 76.143 124.328 76.4848C124.553 76.824 124.667 77.2527 124.667 77.7681C124.667 78.2836 124.564 78.7421 124.358 79.1464C124.153 79.5506 123.876 79.8952 123.533 80.1801C123.189 80.4649 122.796 80.6847 122.355 80.8421C121.914 80.9994 121.451 81.0754 120.964 81.0754C120.476 81.0754 120.054 81.051 119.643 80.9994C119.231 80.9479 118.868 80.8394 118.563 80.6684C118.254 80.4975 118.01 80.2452 117.826 79.9088C117.642 79.5723 117.55 79.1247 117.55 78.5631C117.55 78.498 117.558 78.4383 117.577 78.384C117.596 78.3297 117.642 78.2999 117.715 78.2999C117.926 78.2999 118.143 78.3379 118.362 78.4111C118.581 78.4844 118.793 78.5549 118.996 78.6173C119.253 78.6906 119.51 78.7611 119.767 78.8235C120.024 78.8886 120.29 78.9212 120.566 78.9212C120.693 78.9212 120.828 78.9103 120.964 78.8859C121.102 78.8642 121.226 78.8181 121.335 78.7557C121.446 78.6906 121.538 78.6065 121.616 78.5007C121.695 78.3949 121.732 78.2646 121.732 78.1073C121.732 77.9608 121.708 77.8305 121.657 77.722C121.605 77.6108 121.521 77.5158 121.402 77.4317C121.229 77.2934 121.037 77.1984 120.831 77.1496C120.625 77.1007 120.417 77.0465 120.206 76.9922C119.856 76.8918 119.505 76.748 119.153 76.5635C118.798 76.379 118.481 76.1593 118.197 75.9015C117.913 75.6438 117.68 75.3481 117.501 75.0116C117.323 74.6752 117.233 74.3089 117.233 73.9156C117.233 73.3919 117.344 72.9388 117.572 72.5563C117.796 72.1738 118.089 71.8536 118.452 71.5904C118.814 71.3273 119.223 71.1346 119.675 71.0098C120.13 70.885 120.59 70.8226 121.058 70.8226C121.489 70.8226 121.903 70.8335 122.298 70.8579C122.693 70.8796 123.04 70.961 123.338 71.0994C123.635 71.2377 123.874 71.4575 124.052 71.7614C124.231 72.0652 124.32 72.4885 124.32 73.0311C124.32 73.2698 124.201 73.3892 123.963 73.3892C123.752 73.3892 123.541 73.3648 123.33 73.3132C123.118 73.2644 122.913 73.2156 122.71 73.1695C122.461 73.1043 122.206 73.0501 121.946 73.004C121.684 72.9578 121.427 72.9361 121.169 72.9361L121.167 72.9416Z" fill="#181818"/>
<path d="M107.375 29.136L106.319 25.1994C106.094 24.3556 105.223 23.8537 104.381 24.0816L103.187 24.4017L88.8695 28.2543C88.0249 28.4849 87.5241 29.3531 87.7542 30.1996L88.8046 34.1336C89.0292 34.9773 89.9009 35.482 90.7428 35.2513L94.1996 34.3208C94.6436 34.2014 95.0848 34.4835 95.1904 34.9312C95.2121 35.0234 95.2391 35.113 95.2689 35.2025L96.8417 39.7822C96.9473 40.0915 96.7902 40.4469 96.4844 40.5609C90.7374 42.6798 84.4029 40.3465 82.0181 35.075C79.5114 29.5322 82.3158 22.839 88.2821 20.1286C90.491 19.1247 92.8272 18.8073 95.0199 19.0922C95.3366 19.1275 95.6533 19.1817 95.9646 19.2523C95.9781 19.2523 95.9863 19.2523 95.9998 19.2577C97.5401 19.5046 98.9938 18.4628 99.259 16.919L99.879 13.2997C100.144 11.7424 99.102 10.2692 97.5509 10.0006L97.0447 9.9111C97.0258 9.90567 97.0041 9.90838 96.9852 9.90296C92.93 9.35491 88.6042 9.92738 84.5085 11.7886C82.8193 12.5564 81.2709 13.4978 79.8714 14.5803C72.2322 20.4921 69.1652 30.574 73.0443 39.1473C77.2781 48.5075 88.3119 52.8132 98.5742 49.5222C99.056 49.3675 99.5297 49.1993 100.003 49.0121L100.125 49.3675L101.13 52.2895C101.628 53.7383 103.206 54.5088 104.649 54.0096L109.316 52.3981C110.758 51.8988 111.53 50.3225 111.029 48.8738C111.029 48.8738 107.591 29.9717 107.367 29.1279L107.375 29.136Z" fill="#ECEDEA"/>
<path d="M68.3909 32.4026V32.3945C67.9984 23.7642 60.8898 16.8892 52.1813 16.8892C48.4077 16.8892 44.9346 18.1779 42.1816 20.3429C39.1227 17.1144 34.7969 15.104 30.0027 15.104C25.5199 15.104 21.4459 16.8621 18.4357 19.7298L12.2637 16.1567C10.5204 15.1474 8.28977 15.747 7.28276 17.4942L4.54056 22.2584C3.53355 24.0056 4.1318 26.2412 5.87511 27.2505L11.725 30.6337L8.32496 37.1614C7.39375 38.952 8.08675 41.1605 9.87067 42.0965L17.4016 46.0332C18.506 46.6138 19.7702 46.5677 20.7935 46.025C21.4269 45.6913 21.9656 45.1704 22.3202 44.4867L28.0374 33.5041L28.1214 33.3414C28.9497 31.8953 31.0368 31.2604 32.883 32.9615C33.0184 33.0863 33.1023 33.2572 33.1321 33.439C33.2647 34.2394 33.3243 34.5867 33.2864 34.9312C33.2864 34.9692 33.2836 35.0072 33.2755 35.0479L32.4932 43.3499C32.3037 45.3603 33.779 47.1428 35.7849 47.3328L36.5943 47.4087H36.6458L43.86 48.0978C44.3932 48.1494 44.9103 48.0816 45.3867 47.9161C46.6996 47.463 47.6931 46.2774 47.8339 44.7987L48.8571 33.9627L48.8679 33.8243C49.006 32.4216 50.1863 31.331 51.6237 31.331C53.0611 31.331 54.2359 32.4216 54.3794 33.8243L55.3837 43.5263C55.5922 45.534 57.3815 46.9936 59.3874 46.7847L61.3202 46.5839L66.1387 46.0847C68.1446 45.8758 69.5983 44.077 69.3925 42.0721L68.3936 32.4053L68.3909 32.4026Z" fill="#ECEDEA"/>
<path d="M174.17 34.0169V34.0087C173.778 25.3784 166.669 18.5034 157.963 18.5034C154.174 18.5034 150.69 19.803 147.928 21.9843C144.864 18.7395 140.527 16.7182 135.723 16.7182C131.256 16.7182 127.193 18.4655 124.183 21.3196L120.506 19.1926C118.763 18.1806 116.532 18.7775 115.525 20.5301L112.778 25.2889C111.771 27.0361 112.369 29.2744 114.112 30.2837L117.507 32.248L114.107 38.7702C113.179 40.5609 113.869 42.7693 115.655 43.7053L123.186 47.642C124.277 48.2145 125.528 48.1792 126.543 47.6529C127.19 47.3192 127.748 46.7901 128.11 46.0956L133.76 35.2459C133.76 35.2459 133.763 35.2378 133.768 35.2296C133.819 35.113 133.876 35.0017 133.941 34.8959C133.941 34.8932 133.944 34.8878 133.944 34.8851C134.724 33.6018 136.518 33.0022 138.208 34.1959C138.587 34.4645 138.849 34.8742 138.944 35.33C139.068 35.935 139.104 36.2389 139.071 36.5401L139.06 36.6567L138.278 44.9588C138.088 46.9692 139.564 48.7517 141.57 48.9416L142.379 49.0176L149.639 49.7067C150.175 49.7582 150.692 49.6877 151.171 49.5249C152.484 49.0691 153.475 47.8808 153.613 46.4076L154.623 35.7207C154.623 35.5498 154.639 35.387 154.669 35.2323C154.894 33.9219 156.036 32.9289 157.403 32.9289C158.77 32.9289 159.937 33.9463 160.143 35.2812C160.161 35.3816 160.172 35.4874 160.172 35.5905L161.16 45.1378C161.366 47.1455 163.158 48.6052 165.161 48.3963L167.097 48.1955L171.915 47.6963C173.921 47.4874 175.375 45.6886 175.169 43.6836L174.17 34.0169Z" fill="#ECEDEA"/>
<path d="M61.7643 11.4314C62.9312 9.33009 62.1776 6.67845 60.0809 5.50885C57.9843 4.33925 55.3386 5.09459 54.1716 7.19595C53.0046 9.2973 53.7583 11.9489 55.8549 13.1185C57.9516 14.2881 60.5973 13.5328 61.7643 11.4314Z" fill="#ECEDEA"/>
<path d="M69.2478 16.9159C71.4375 15.9323 72.4171 13.3559 71.4357 11.1613C70.4544 8.96671 67.8838 7.98494 65.6941 8.96848C63.5043 9.95202 62.5248 12.5284 63.5061 14.723C64.4875 16.9176 67.0581 17.8994 69.2478 16.9159Z" fill="#ECEDEA"/>
<path d="M113.575 15.1404C115.073 13.2622 114.769 10.522 112.895 9.01999C111.021 7.51797 108.287 7.82292 106.789 9.70111C105.29 11.5793 105.594 14.3195 107.468 15.8215C109.342 17.3235 112.076 17.0186 113.575 15.1404Z" fill="#ECEDEA"/>
<path d="M120.769 15.614C123.154 15.3481 124.87 13.1939 124.605 10.8064C124.34 8.4162 122.19 6.6961 119.808 6.96198C117.423 7.22786 115.707 9.38206 115.972 11.7696C116.238 14.1598 118.387 15.8799 120.769 15.614Z" fill="#ECEDEA"/>
</svg>
