<svg width="179" height="63" viewBox="0 0 179 63" fill="none" xmlns="http://www.w3.org/2000/svg">
<path d="M178.954 46.7666L178.895 46.1844C179.01 45.4395 179.032 44.6726 178.954 43.9028L177.974 34.2163C177.392 22.742 168.181 13.77 156.945 13.77C153.575 13.77 150.339 14.5646 147.413 16.0958C143.768 13.4307 139.353 11.9519 134.828 11.9519C132.702 11.9519 130.616 12.2692 128.624 12.8789C128.739 12.0843 128.758 11.2649 128.669 10.429C128.397 7.91559 127.183 5.65881 125.256 4.07795C123.326 2.4971 120.914 1.78254 118.462 2.06119C116.645 2.26811 114.97 3.00473 113.595 4.17451C112.044 3.36891 110.26 2.99922 108.408 3.20889C105.955 3.48754 103.753 4.73181 102.211 6.70719C102.057 6.90308 101.915 7.10448 101.78 7.31139C100.701 6.24094 99.3117 5.48224 97.7288 5.20083L97.2524 5.1153L97.1178 5.09323C97.0559 5.08495 96.994 5.07392 96.932 5.0684C91.8551 4.37591 86.649 5.18152 81.879 7.39968C79.887 8.32391 78.0081 9.48266 76.2907 10.84C76.1884 10.9228 76.0888 11.0083 75.9865 11.0911C75.8519 10.4786 75.6554 9.87442 75.3997 9.28953C74.3902 6.98032 72.5624 5.21186 70.2555 4.31246C68.5138 3.63377 66.6941 3.53169 64.9955 3.91517C63.9511 2.43088 62.5082 1.28869 60.7989 0.621036C56.0369 -1.23847 50.6855 1.21972 48.8711 6.10023C48.2816 7.68385 48.1389 9.32816 48.3731 10.8925C48.287 11.4718 48.252 12.0512 48.2708 12.6278C46.5373 13.0141 44.8656 13.6183 43.2855 14.4404C39.646 11.7891 35.2394 10.3186 30.7251 10.3186C26.2108 10.3186 22.3076 11.6015 18.7974 13.988L15.5483 12.065C13.5697 10.8952 11.2655 10.5835 9.06084 11.1904C6.85618 11.7974 5.01224 13.2458 3.87088 15.2736L1.144 20.1183C0.115705 21.9419 -0.196554 23.9918 0.115705 25.923C-0.449591 29.4213 1.10363 33.0769 4.27198 34.9529L4.88034 35.3116L4.80228 35.4633C3.91665 37.2097 3.66092 39.1244 3.95433 40.9342C3.36481 44.5705 5.07416 48.3502 8.43094 50.149L15.909 54.1467C18.4017 55.4875 21.3762 55.482 23.8527 54.1384C25.4006 53.3052 26.6469 52.0251 27.4518 50.4387L28.3643 48.6481C28.5958 50.1931 29.2338 51.6526 30.2298 52.8858C31.6861 54.6874 33.74 55.802 36.0093 56.02L44.0419 56.798C44.3165 56.8256 44.591 56.8366 44.8629 56.8366C45.8104 56.8366 46.7392 56.6766 47.6275 56.3593C49.8483 55.5758 51.6195 53.9011 52.5859 51.7933C54.3141 54.2929 57.2698 55.7937 60.4543 55.4599L67.1652 54.7481C69.3429 54.5163 71.308 53.4652 72.7347 51.7795C78.603 57.8601 87.4512 60.6466 96.2806 58.8616C97.6292 61.4329 100.262 63 103.048 63C103.874 63 104.717 62.8621 105.541 62.5696L110.184 60.9308C112.122 60.2466 113.684 58.8313 114.58 56.9414C115.135 55.7772 115.393 54.5191 115.355 53.261L120.08 55.7854C122.545 57.107 125.49 57.1152 127.943 55.8186C129.523 54.9881 130.796 53.697 131.62 52.0775L132.527 50.298C132.761 51.8402 133.396 53.2942 134.392 54.5246C135.849 56.3262 137.903 57.4408 140.172 57.6587L148.207 58.4395C148.476 58.4643 148.743 58.4781 149.012 58.4781C149.946 58.4781 150.869 58.3209 151.768 58.0091L151.803 57.9981C154.013 57.2118 155.777 55.5399 156.743 53.4404C157.19 54.086 157.723 54.6736 158.339 55.1868C160.113 56.6655 162.342 57.347 164.611 57.1042L171.328 56.3924C173.6 56.1496 175.645 55.0157 177.086 53.1976C178.526 51.3795 179.188 49.0979 178.951 46.7721L178.954 46.7666ZM119.003 7.07689C121.374 6.80651 123.509 8.55566 123.773 10.9863C124.037 13.4169 122.33 15.6047 119.958 15.8751C117.587 16.1454 115.452 14.3963 115.188 11.9657C114.925 9.53508 116.631 7.34726 119.003 7.07689ZM108.949 8.22459C111.32 7.95422 113.455 9.70337 113.719 12.134C113.982 14.5646 112.276 16.7524 109.904 17.0228C107.533 17.2931 105.398 15.544 105.134 13.1134C104.87 10.6828 106.577 8.49497 108.949 8.22459ZM53.4716 7.89077C54.3222 5.60639 56.8176 4.45868 59.0464 5.3305C61.2753 6.20231 62.3952 8.75982 61.5445 11.0442C60.6939 13.3286 58.1985 14.4763 55.9696 13.6045C53.7407 12.7327 52.6209 10.1751 53.4716 7.89077ZM65.6362 46.8631L60.8446 47.3708L58.9226 47.5749C56.9279 47.7874 55.1486 46.3003 54.9413 44.2615L53.9426 34.3956C53.8 32.9693 52.6263 31.8602 51.2023 31.8602C49.7783 31.8602 48.6019 32.9693 48.462 34.3956L48.4512 34.5363L47.4337 45.5554C47.2964 47.0563 46.3058 48.2647 45.0002 48.7254C44.5237 48.8937 44.0096 48.9627 43.482 48.9102L36.3081 48.215H36.257L35.4521 48.1322C33.4574 47.9391 31.9903 46.1265 32.1787 44.0822L32.9567 35.6399C32.9648 35.6013 32.9675 35.5599 32.9675 35.5213C33.0052 35.1709 32.9459 34.8177 32.814 34.0038C32.7844 33.819 32.701 33.6452 32.5664 33.5183C30.7305 31.7884 28.6524 32.434 27.8314 33.9045L27.7479 34.0701L22.0626 45.2381C21.71 45.9334 21.1716 46.4659 20.5444 46.8024C19.5269 47.3542 18.2698 47.4011 17.1715 46.8107L9.68266 42.8075C7.90602 41.8557 7.21959 39.61 8.1456 37.7891L11.5266 31.1511L5.70944 27.7108C3.97587 26.6845 3.38096 24.4111 4.38234 22.6344L7.10922 17.7897C8.1106 16.013 10.3287 15.4033 12.0623 16.4296L18.1998 20.0631C21.1932 17.1497 25.2445 15.3591 29.7022 15.3591C34.4722 15.3591 38.7712 17.4035 41.813 20.6866C44.5533 18.485 48.0043 17.1745 51.7568 17.1745C60.4166 17.1745 67.4828 24.1656 67.8758 32.9417V32.9499L68.8691 42.7799C69.0764 44.8215 67.6309 46.6479 65.6335 46.8604L65.6362 46.8631ZM65.4235 17.2986C63.1946 16.4268 62.0748 13.8693 62.9255 11.5849C63.7761 9.30057 66.2715 8.15286 68.5003 9.02468C70.7292 9.89649 71.8491 12.454 70.9984 14.7384C70.1478 17.0228 67.6524 18.1705 65.4235 17.2986ZM108.58 53.2914L103.939 54.9302C102.504 55.4378 100.935 54.6543 100.44 53.181L99.4409 50.2097L99.3197 49.8483C98.846 50.0386 98.3749 50.2097 97.8984 50.3669C87.6935 53.7135 76.7214 49.3351 72.5113 39.8169C68.6538 31.096 71.701 20.8466 79.3002 14.8349C80.6919 13.7341 82.2317 12.7768 83.9114 11.996C87.9869 10.1034 92.2859 9.52128 96.3183 10.0786C96.3371 10.0841 96.3587 10.0813 96.3775 10.0869L96.8809 10.1779C98.4207 10.451 99.4597 11.9491 99.1959 13.5327L98.5795 17.2131C98.3157 18.7802 96.8701 19.8424 95.3384 19.5913C95.325 19.5913 95.3142 19.5858 95.3034 19.5858C94.9939 19.5141 94.6789 19.4589 94.364 19.423C92.1836 19.1333 89.8632 19.4561 87.6639 20.4769C81.731 23.2331 78.9395 30.0393 81.4349 35.6758C83.8064 41.0363 90.1054 43.4117 95.8203 41.2543C96.1245 41.1384 96.2806 40.777 96.1756 40.4625L94.6116 35.8054C94.582 35.7144 94.5551 35.6206 94.5336 35.5295C94.4286 35.0743 93.9898 34.7874 93.5483 34.9088L90.1108 35.8551C89.2736 36.0868 88.4068 35.5764 88.1834 34.7184L87.139 30.718C86.9102 29.8572 87.4081 28.9744 88.248 28.7399L102.485 24.8222L103.673 24.4966C104.51 24.2677 105.376 24.7753 105.6 25.6333L106.65 29.6365C106.873 30.4945 110.292 49.7158 110.292 49.7158C110.787 51.1891 110.023 52.7948 108.588 53.2997L108.58 53.2914ZM170.824 48.5019L166.033 49.0096L164.108 49.2137C162.116 49.4262 160.334 47.9391 160.129 45.9003L159.147 36.1917C159.147 36.0868 159.136 35.9792 159.117 35.8772C158.913 34.5198 157.771 33.4852 156.393 33.4852C155.015 33.4852 153.895 34.4949 153.674 35.8275C153.645 35.9847 153.629 36.1503 153.629 36.3186L152.624 47.1914C152.487 48.6895 151.499 49.8979 150.196 50.3614C149.72 50.527 149.206 50.5987 148.673 50.5463L141.453 49.8455L140.648 49.7683C138.654 49.5751 137.186 47.7625 137.375 45.7182L138.153 37.2759L138.164 37.1573C138.196 36.851 138.161 36.542 138.037 35.9268C137.946 35.4633 137.684 35.0467 137.305 34.7736C135.622 33.5624 133.84 34.1694 133.065 35.4744C133.065 35.4771 133.063 35.4826 133.063 35.4854C132.998 35.5902 132.939 35.7061 132.89 35.8247C132.888 35.833 132.888 35.8358 132.882 35.8413L127.264 46.8742C126.903 47.5832 126.352 48.1212 125.706 48.4578C124.696 48.993 123.452 49.0289 122.368 48.4467L114.879 44.4436C113.102 43.4917 112.416 41.246 113.339 39.4251L116.72 32.7927L113.344 30.7952C111.611 29.7689 111.016 27.4928 112.017 25.7161L114.75 20.877C115.751 19.0947 117.969 18.485 119.703 19.5168L123.358 21.6798C126.352 18.7774 130.389 17.0007 134.834 17.0007C139.615 17.0007 143.927 19.0561 146.971 22.3557C149.72 20.1376 153.182 18.816 156.95 18.816C165.61 18.816 172.676 25.8071 173.067 34.5832V34.5915L174.06 44.4215C174.267 46.4631 172.822 48.2895 170.824 48.5019Z" fill="#ECEDEA"/>
</svg>
