<?xml version="1.0" encoding="UTF-8"?>
<svg id="Capa_1" xmlns="http://www.w3.org/2000/svg" version="1.1" viewBox="0 0 127 127">
  <!-- Generator: Adobe Illustrator 29.3.1, SVG Export Plug-In . SVG Version: 2.1.0 Build 151)  -->
  <defs>
    <style>
      .st0 {
        fill: #ecedea;
      }
    </style>
  </defs>
  <path class="st0" d="M127,74.4v-.4c0-.5,0-1.1,0-1.6l-.7-6.9c-.4-8.2-6.9-14.6-14.9-14.6s-4.7.6-6.8,1.7c-2.6-1.9-5.7-3-8.9-3s-3,.2-4.4.7c0-.6,0-1.2,0-1.7-.2-1.8-1.1-3.4-2.4-4.5-1.4-1.1-3.1-1.6-4.8-1.4-1.3.1-2.5.7-3.5,1.5-1.1-.6-2.4-.8-3.7-.7-1.7.2-3.3,1.1-4.4,2.5-.1.1-.2.3-.3.4-.8-.8-1.8-1.3-2.9-1.5h-.3c0,0,0,0,0,0,0,0,0,0-.1,0-3.6-.5-7.3,0-10.7,1.7-1.4.7-2.7,1.5-4,2.5,0,0-.1.1-.2.2,0-.4-.2-.9-.4-1.3-.7-1.6-2-2.9-3.6-3.6-1.2-.5-2.5-.6-3.7-.3-.7-1.1-1.8-1.9-3-2.4-3.4-1.3-7.2.4-8.5,3.9-.4,1.1-.5,2.3-.4,3.4,0,.4,0,.8,0,1.2-1.2.3-2.4.7-3.5,1.3-2.6-1.9-5.7-2.9-8.9-2.9s-6,.9-8.5,2.6l-2.3-1.4c-1.4-.8-3-1.1-4.6-.6s-2.9,1.5-3.7,2.9l-1.9,3.5c-.7,1.3-1,2.8-.7,4.1-.4,2.5.7,5.1,2.9,6.5l.4.3h0c-.6,1.4-.8,2.7-.6,4-.4,2.6.8,5.3,3.2,6.6l5.3,2.9c1.8,1,3.9,1,5.6,0,1.1-.6,2-1.5,2.6-2.6l.6-1.3c.2,1.1.6,2.1,1.3,3,1,1.3,2.5,2.1,4.1,2.2l5.7.6c.2,0,.4,0,.6,0,.7,0,1.3-.1,2-.3,1.6-.6,2.8-1.8,3.5-3.3,1.2,1.8,3.3,2.9,5.6,2.6l4.8-.5c1.5-.2,2.9-.9,4-2.1,4.2,4.3,10.4,6.3,16.7,5.1,1,1.8,2.8,3,4.8,3s1.2,0,1.8-.3l3.3-1.2c1.4-.5,2.5-1.5,3.1-2.8.4-.8.6-1.7.6-2.6l3.4,1.8c1.7.9,3.8.9,5.6,0,1.1-.6,2-1.5,2.6-2.7l.6-1.3c.2,1.1.6,2.1,1.3,3,1,1.3,2.5,2.1,4.1,2.2l5.7.6c.2,0,.4,0,.6,0,.7,0,1.3-.1,2-.3h0c1.6-.6,2.8-1.8,3.5-3.3.3.5.7.9,1.1,1.2,1.3,1.1,2.8,1.5,4.4,1.4l4.8-.5c1.6-.2,3.1-1,4.1-2.3,1-1.3,1.5-2.9,1.3-4.6h0ZM84.4,46.1c1.7-.2,3.2,1.1,3.4,2.8.2,1.7-1,3.3-2.7,3.5s-3.2-1.1-3.4-2.8c-.2-1.7,1-3.3,2.7-3.5ZM77.3,46.9c1.7-.2,3.2,1.1,3.4,2.8.2,1.7-1,3.3-2.7,3.5-1.7.2-3.2-1.1-3.4-2.8-.2-1.7,1-3.3,2.7-3.5ZM37.9,46.6c.6-1.6,2.4-2.5,4-1.8,1.6.6,2.4,2.4,1.8,4.1-.6,1.6-2.4,2.5-4,1.8-1.6-.6-2.4-2.4-1.8-4.1ZM46.6,74.5l-3.4.4h-1.4c-1.4.3-2.7-.8-2.8-2.2l-.7-7c-.1-1-.9-1.8-1.9-1.8s-1.8.8-1.9,1.8h0c0,.1-.7,8-.7,8,0,1.1-.8,1.9-1.7,2.3-.3.1-.7.2-1.1.1l-5.1-.5h-.6c-1.4-.2-2.5-1.5-2.3-3l.6-6s0,0,0,0c0-.3,0-.5-.1-1.1,0-.1,0-.3-.2-.3-1.3-1.2-2.8-.8-3.4.3h0c0,.1-4,8.1-4,8.1-.3.5-.6.9-1.1,1.1-.7.4-1.6.4-2.4,0l-5.3-2.9c-1.3-.7-1.7-2.3-1.1-3.6l2.4-4.7-4.1-2.5c-1.2-.7-1.7-2.4-.9-3.6l1.9-3.5c.7-1.3,2.3-1.7,3.5-1l4.4,2.6c2.1-2.1,5-3.4,8.2-3.4s6.4,1.5,8.6,3.8c1.9-1.6,4.4-2.5,7.1-2.5,6.1,0,11.2,5,11.4,11.3h0s.7,7,.7,7c.1,1.5-.9,2.8-2.3,2.9h0ZM46.4,53.4c-1.6-.6-2.4-2.4-1.8-4.1.6-1.6,2.4-2.5,4-1.8,1.6.6,2.4,2.4,1.8,4.1-.6,1.6-2.4,2.5-4,1.8ZM77,79.1l-3.3,1.2c-1,.4-2.1-.2-2.5-1.2l-.7-2.1v-.3c-.4.1-.8.3-1.1.4-7.2,2.4-15-.7-18-7.5-2.7-6.2-.6-13.6,4.8-17.8,1-.8,2.1-1.5,3.3-2,2.9-1.4,5.9-1.8,8.8-1.4,0,0,0,0,0,0h.4c1.1.3,1.8,1.3,1.6,2.5l-.4,2.6c-.2,1.1-1.2,1.9-2.3,1.7,0,0,0,0,0,0-.2,0-.4,0-.7-.1-1.5-.2-3.2,0-4.8.8-4.2,2-6.2,6.8-4.4,10.9,1.7,3.8,6.2,5.5,10.2,4,.2,0,.3-.3.3-.6l-1.1-3.3c0,0,0-.1,0-.2,0-.3-.4-.5-.7-.4l-2.4.7c-.6.2-1.2-.2-1.4-.8l-.7-2.9c-.2-.6.2-1.2.8-1.4l10.1-2.8.8-.2c.6-.2,1.2.2,1.4.8l.7,2.9c.2.6,2.6,14.3,2.6,14.3.4,1.1-.2,2.2-1.2,2.6h0ZM121.2,75.6l-3.4.4h-1.4c-1.4.3-2.7-.8-2.8-2.2l-.7-6.9c0,0,0-.2,0-.2-.1-1-1-1.7-1.9-1.7s-1.8.7-1.9,1.7c0,.1,0,.2,0,.4l-.7,7.8c0,1.1-.8,1.9-1.7,2.3-.3.1-.7.2-1.1.1l-5.1-.5h-.6c-1.4-.2-2.5-1.5-2.3-2.9l.6-6h0c0-.3,0-.5,0-1,0-.3-.3-.6-.5-.8-1.2-.9-2.5-.4-3,.5,0,0,0,0,0,0,0,0,0,.2-.1.2,0,0,0,0,0,0l-4,7.9c-.3.5-.6.9-1.1,1.1-.7.4-1.6.4-2.4,0l-5.3-2.9c-1.3-.7-1.7-2.3-1.1-3.6l2.4-4.7-2.4-1.4c-1.2-.7-1.7-2.4-.9-3.6l1.9-3.5c.7-1.3,2.3-1.7,3.5-1l2.6,1.5c2.1-2.1,5-3.3,8.1-3.3s6.5,1.5,8.6,3.8c1.9-1.6,4.4-2.5,7.1-2.5,6.1,0,11.2,5,11.4,11.3h0s.7,7,.7,7c.1,1.5-.9,2.8-2.3,2.9Z"/>
</svg>