<svg width="123" height="55" viewBox="0 0 123 55" fill="none" xmlns="http://www.w3.org/2000/svg">
<path d="M44.5902 51.039C44.5902 51.5948 44.5532 52.0456 44.4811 52.3916C44.409 52.7376 44.2758 53.0044 44.0816 53.1921C43.8874 53.3798 43.6155 53.5068 43.2677 53.5749C42.92 53.643 42.4668 53.6779 41.9082 53.6779C41.4439 53.6779 40.9982 53.5915 40.5672 53.4166C40.1381 53.2418 39.7607 53.0007 39.4389 52.6916C39.1152 52.3824 38.8581 52.0217 38.6676 51.6058C38.477 51.1918 38.3809 50.7464 38.3809 50.2716C38.3809 49.7729 38.4678 49.3073 38.6435 48.8767C38.8192 48.4461 39.0634 48.0743 39.376 47.7597C39.6886 47.445 40.0604 47.1984 40.4913 47.0199C40.9205 46.8414 41.3903 46.753 41.8971 46.753C42.0728 46.753 42.2559 46.753 42.4465 46.7493C42.637 46.7457 42.8275 46.7567 43.0162 46.7825C43.2048 46.8082 43.3787 46.8579 43.5433 46.9315C43.7061 47.007 43.8411 47.1284 43.9484 47.2959C44.0242 47.4026 44.0723 47.5351 44.0945 47.6934C44.1167 47.8517 44.1278 47.9952 44.1278 48.1185C44.1278 48.2252 44.1075 48.297 44.0668 48.3338C44.0261 48.3706 43.9484 48.3909 43.8356 48.3909C43.5785 48.3909 43.3343 48.3596 43.1012 48.297C42.8682 48.2344 42.6185 48.2032 42.3484 48.2032C41.6585 48.2032 41.1572 48.3706 40.8446 48.7037C40.5302 49.0368 40.3748 49.541 40.3748 50.2146C40.3748 50.5145 40.41 50.7869 40.4821 51.0335C40.5542 51.2801 40.6652 51.4917 40.8169 51.6702C40.9667 51.8487 41.1591 51.9831 41.3903 52.0769C41.6215 52.1708 41.8953 52.2168 42.2078 52.2168C42.3521 52.2168 42.4576 52.2002 42.5278 52.1652C42.5963 52.1303 42.6462 52.0806 42.674 52.0162C42.7017 51.9499 42.7165 51.8708 42.7165 51.777V51.4678C42.7165 51.2562 42.6888 51.0942 42.6314 50.982C42.5759 50.8697 42.4243 50.8127 42.1801 50.8127C42.1487 50.8127 42.1154 50.8127 42.0821 50.8182C42.0469 50.8219 42.0081 50.8237 41.9637 50.8237C41.7621 50.8237 41.6233 50.7666 41.5457 50.6507C41.468 50.5348 41.4273 50.3839 41.4273 50.1962C41.4273 49.9275 41.4828 49.7287 41.5975 49.5981C41.7103 49.4674 41.9082 49.4012 42.1893 49.4012C42.2966 49.4012 42.4002 49.4048 42.5001 49.4104C42.6 49.4159 42.7036 49.4196 42.8108 49.4196C42.9681 49.4196 43.1234 49.4196 43.2807 49.4251C43.4379 49.4306 43.5933 49.4361 43.7505 49.449C43.9817 49.4674 44.1593 49.5263 44.2813 49.622C44.4034 49.7195 44.4867 49.8852 44.531 50.1226C44.5625 50.2716 44.5791 50.4244 44.5828 50.5808C44.5865 50.7372 44.5884 50.8899 44.5884 51.039H44.5902Z" fill="#F58220"/>
<path d="M48.1675 53.527C48.0177 53.527 47.8752 53.527 47.7439 53.5215C47.6126 53.5178 47.496 53.4939 47.3962 53.446C47.2963 53.4 47.2167 53.3246 47.1613 53.2215C47.1058 53.1184 47.0762 52.9731 47.0762 52.7872C47.0762 52.6252 47.1132 52.3842 47.189 52.0621C47.2648 51.7401 47.361 51.3776 47.4813 50.9727C47.5996 50.5678 47.7365 50.1464 47.89 49.7103C48.0436 49.2741 48.2008 48.8674 48.3599 48.4883C48.5189 48.1111 48.6761 47.7835 48.8297 47.5056C48.9832 47.2278 49.1219 47.0492 49.2477 46.9683C49.355 46.8928 49.4604 46.8505 49.5677 46.8376C49.675 46.8247 49.7897 46.8192 49.9154 46.8192C50.1226 46.8192 50.2909 46.8395 50.4241 46.8799C50.5554 46.9204 50.6904 47.0253 50.8292 47.1928C50.9235 47.3106 51.0382 47.513 51.1732 47.7964C51.3082 48.0798 51.447 48.4055 51.5912 48.7736C51.7355 49.1416 51.8779 49.5336 52.0185 49.9477C52.1591 50.3636 52.2867 50.7611 52.3996 51.1402C52.5124 51.5211 52.603 51.8634 52.6715 52.1689C52.7399 52.4743 52.775 52.7081 52.775 52.87C52.775 53.0319 52.7288 53.1663 52.6382 53.2546C52.5475 53.3411 52.4365 53.4074 52.3052 53.4515C52.1739 53.4957 52.0333 53.5196 51.8816 53.527C51.7318 53.5325 51.5968 53.5362 51.4766 53.5362C51.2879 53.5362 51.1621 53.5049 51.0955 53.4423C51.0289 53.3798 50.9882 53.3025 50.9734 53.2086C50.9586 53.1148 50.9494 53.0154 50.9494 52.9087C50.9494 52.8019 50.9198 52.7025 50.8606 52.6087C50.8014 52.5148 50.6886 52.4375 50.5258 52.375C50.3631 52.3124 50.1152 52.2811 49.7823 52.2811C49.5067 52.2811 49.3069 52.3124 49.1848 52.375C49.0627 52.4375 48.9795 52.5148 48.9351 52.6087C48.8907 52.7025 48.8704 52.8001 48.8704 52.9031C48.8704 53.0062 48.8556 53.1037 48.8278 53.1976C48.8001 53.2914 48.739 53.3687 48.6447 53.4313C48.5504 53.4939 48.3913 53.5251 48.1656 53.5251L48.1675 53.527ZM50.0486 50.9064C50.1429 50.9064 50.2225 50.8807 50.2891 50.8273C50.3557 50.7739 50.3871 50.6948 50.3871 50.5881C50.3871 50.531 50.3723 50.4151 50.3409 50.2366C50.3094 50.0581 50.2724 49.8741 50.228 49.679C50.1836 49.4858 50.1337 49.3128 50.0782 49.16C50.0209 49.0073 49.9617 48.93 49.8988 48.93C49.8544 48.93 49.8044 49.0073 49.749 49.16C49.6935 49.3128 49.6398 49.4876 49.5899 49.6845C49.5399 49.8814 49.4993 50.0691 49.4678 50.2513C49.4364 50.4317 49.4216 50.5476 49.4216 50.5973C49.4216 50.7279 49.466 50.8126 49.5529 50.8494C49.6398 50.8862 49.7379 50.9046 49.8451 50.9046H50.0523L50.0486 50.9064Z" fill="#F58220"/>
<path d="M57.1329 52.8534C57.1329 53.078 57.096 53.2454 57.0238 53.3595C56.9517 53.4718 56.7926 53.5288 56.5484 53.5288C56.4356 53.5288 56.3246 53.5233 56.2137 53.5141C56.1045 53.5049 55.9991 53.4718 55.8992 53.4166C55.7993 53.3614 55.7124 53.2546 55.6403 53.0982C55.5681 52.9418 55.5108 52.7596 55.4664 52.5516C55.422 52.3437 55.3887 52.121 55.3628 51.8873C55.3369 51.6536 55.3203 51.4217 55.311 51.1954C55.3018 50.9672 55.2962 50.7592 55.2925 50.5678C55.2888 50.3783 55.2888 50.2292 55.2888 50.1225C55.2888 49.9532 55.2925 49.7489 55.2981 49.5042C55.3036 49.2612 55.3203 49.0073 55.3443 48.746C55.3702 48.4847 55.4016 48.2325 55.4423 47.9933C55.483 47.7541 55.5348 47.5608 55.5977 47.4173C55.6532 47.3179 55.7179 47.2278 55.7901 47.1468C55.8622 47.0658 55.9547 47.0088 56.0675 46.9775C56.1674 46.9462 56.271 46.9241 56.3783 46.9112C56.4856 46.8983 56.591 46.8928 56.6983 46.8928C56.7741 46.8928 56.8481 46.8983 56.9239 46.9112C56.9998 46.9241 57.0719 46.9462 57.1403 46.9775C57.2476 47.0216 57.3475 47.1302 57.4418 47.3051C57.5362 47.4799 57.6287 47.6823 57.7193 47.9123C57.8099 48.1424 57.8987 48.3871 57.9875 48.6466C58.0744 48.9061 58.1595 49.1435 58.2409 49.3625C58.3223 49.5815 58.4074 49.76 58.4943 49.8998C58.5812 50.0397 58.6663 50.1096 58.7477 50.1096C58.8605 50.1096 58.9641 50.047 59.0585 49.9219C59.1528 49.7968 59.2453 49.6385 59.3359 49.4453C59.4266 49.252 59.5153 49.0367 59.5986 48.7993C59.6837 48.562 59.765 48.3338 59.8427 48.1111C59.9204 47.8903 59.9963 47.6897 60.0684 47.513C60.1405 47.3345 60.2108 47.2094 60.2793 47.1339C60.3976 46.9959 60.5475 46.9223 60.725 46.9094C60.9044 46.8965 61.0746 46.891 61.2374 46.891C61.4002 46.891 61.5555 46.9223 61.685 46.9848C61.8126 47.0474 61.9162 47.156 61.9902 47.3124C62.0901 47.4928 62.1659 47.6952 62.2159 47.9197C62.2658 48.1442 62.3028 48.3742 62.3287 48.6116C62.3546 48.849 62.3694 49.0864 62.3749 49.322C62.3805 49.5594 62.3842 49.7802 62.3842 49.9863C62.3842 50.093 62.3842 50.1961 62.3879 50.2955C62.3916 50.3949 62.3934 50.4979 62.3934 50.6046C62.3934 50.7924 62.3879 51.0095 62.3786 51.2598C62.3694 51.5101 62.3472 51.7622 62.3121 52.018C62.2769 52.2738 62.2233 52.5148 62.1474 52.7375C62.0716 52.962 61.9717 53.1497 61.8459 53.2988C61.7386 53.4239 61.6221 53.4902 61.4926 53.4994C61.365 53.5086 61.2189 53.5141 61.0561 53.5141C60.8231 53.5141 60.6714 53.4607 60.5992 53.3558C60.5271 53.2491 60.4901 53.0872 60.4901 52.87C60.4901 52.5148 60.4957 52.1597 60.5086 51.8082C60.5216 51.4567 60.5271 51.1015 60.5271 50.7463C60.5271 50.6709 60.5197 50.6046 60.5031 50.5458C60.4883 50.4869 60.4698 50.4225 60.4513 50.3544C60.3754 50.3544 60.3162 50.4004 60.2719 50.4905C60.2275 50.5807 60.1831 50.6948 60.1405 50.8328C60.0961 50.9709 60.0462 51.1199 59.9907 51.2819C59.9352 51.4438 59.8575 51.5947 59.7595 51.7309C59.6615 51.8689 59.5357 51.9812 59.3785 52.0732C59.2212 52.1633 59.0215 52.2094 58.7773 52.2094C58.5572 52.2094 58.3759 52.1633 58.2317 52.0732C58.0874 51.983 57.9672 51.8707 57.8691 51.7364C57.7711 51.6021 57.6916 51.453 57.6287 51.2874C57.5658 51.1218 57.5121 50.9727 57.4696 50.8384C57.4252 50.704 57.3827 50.5918 57.342 50.5016C57.3013 50.4114 57.2495 50.3654 57.1866 50.3654C57.1607 50.3838 57.1422 50.4335 57.1292 50.5145C57.1163 50.5954 57.1071 50.6875 57.1015 50.7905C57.096 50.8936 57.0923 50.9911 57.0923 51.085V51.2819C57.0923 51.5432 57.0978 51.8045 57.1071 52.064C57.1163 52.3235 57.1219 52.5866 57.1219 52.8553L57.1329 52.8534Z" fill="#F58220"/>
<path d="M66.9732 51.5911C66.9732 51.9279 67.1489 52.0972 67.5003 52.0972C67.7704 52.0972 68.0367 52.0935 68.2994 52.0824C68.562 52.0732 68.8284 52.0677 69.0984 52.0677C69.337 52.0677 69.4869 52.11 69.5498 52.1947C69.6126 52.2793 69.6441 52.4302 69.6441 52.6492C69.6441 52.8498 69.5941 53.0118 69.4943 53.1351C69.3944 53.2602 69.2668 53.3559 69.1132 53.4258C68.9597 53.4939 68.7932 53.5399 68.6138 53.562C68.4344 53.5841 68.2679 53.5951 68.1107 53.5951C67.9405 53.5951 67.7667 53.5951 67.5835 53.5988C67.4023 53.6025 67.2192 53.5988 67.0379 53.5896C66.8566 53.5804 66.6772 53.5602 66.5015 53.5289C66.3258 53.4976 66.1574 53.4516 65.9928 53.389C65.6414 53.2455 65.4009 53.0357 65.2733 52.7615C65.1438 52.4873 65.068 52.1689 65.0421 51.8064C65.0291 51.569 65.0199 51.3353 65.0143 51.1053C65.0088 50.8752 65.0051 50.6397 65.0051 50.4041C65.0051 50.2109 65.0051 50.0213 65.0014 49.8336C64.9977 49.6459 64.9958 49.4564 64.9958 49.2632C64.9958 48.6577 65.0624 48.1903 65.1975 47.859C65.3325 47.5278 65.5323 47.2867 65.7986 47.134C66.065 46.9812 66.3961 46.8929 66.79 46.8671C67.184 46.8414 67.6427 46.8303 68.1625 46.8303C68.3752 46.8303 68.6009 46.8579 68.8395 46.915C69.0781 46.972 69.276 47.0843 69.4314 47.2517C69.5183 47.3456 69.5775 47.4579 69.6052 47.5885C69.633 47.7192 69.6478 47.8498 69.6478 47.9823C69.6478 48.0817 69.6145 48.159 69.5498 48.2124C69.485 48.2657 69.4018 48.3062 69.3056 48.3338C69.2076 48.3614 69.1058 48.378 69.0004 48.3798C68.895 48.3817 68.8062 48.3835 68.7377 48.3835C68.575 48.3835 68.4141 48.3761 68.2587 48.3596C68.1015 48.3449 67.9461 48.3357 67.7889 48.3357C67.6501 48.3357 67.5299 48.3393 67.4263 48.3449C67.3227 48.3504 67.2377 48.3725 67.1729 48.4111C67.1082 48.4498 67.0582 48.5105 67.0268 48.5988C66.9953 48.6853 66.9806 48.8086 66.9806 48.9632C66.9806 49.081 67.012 49.173 67.0749 49.2392C67.1378 49.3055 67.2155 49.3552 67.3098 49.3883C67.4041 49.4214 67.5059 49.4435 67.615 49.449C67.7241 49.4545 67.8203 49.4582 67.9017 49.4582C68.046 49.4582 68.1884 49.4545 68.329 49.4435C68.4695 49.4343 68.6157 49.4288 68.7655 49.4288C68.8839 49.4288 69.0078 49.4435 69.1373 49.4748C69.2649 49.5061 69.3703 49.5723 69.4517 49.6717C69.5017 49.7343 69.5294 49.8226 69.5368 49.9385C69.5424 50.0545 69.5461 50.1483 69.5461 50.2238C69.5461 50.2919 69.5405 50.3618 69.5276 50.4299C69.5146 50.498 69.4924 50.5569 69.461 50.6084C69.4166 50.671 69.3315 50.7188 69.202 50.7538C69.0725 50.7887 68.932 50.8108 68.7784 50.82C68.6249 50.8292 68.4751 50.8329 68.3308 50.8292C68.1865 50.8255 68.0774 50.8255 68.0016 50.8255H67.7907C67.7056 50.8255 67.6205 50.8255 67.5373 50.8292C67.4522 50.8329 67.3708 50.8439 67.2931 50.8623C67.2155 50.8807 67.1544 50.9083 67.11 50.947C67.0786 50.9783 67.0545 51.0132 67.0397 51.05C67.0249 51.0869 67.0101 51.131 66.9972 51.1807C66.9843 51.2488 66.9769 51.3169 66.9732 51.3813C66.9695 51.4475 66.9676 51.5175 66.9676 51.5911H66.9732Z" fill="#F58220"/>
<path d="M74.2073 52.7504C74.2073 52.8572 74.2017 52.9584 74.1925 53.0541C74.1832 53.1516 74.161 53.2344 74.1259 53.3062C74.0907 53.378 74.0371 53.435 73.9613 53.4792C73.8854 53.5234 73.78 53.5454 73.6413 53.5454C73.5155 53.5454 73.3897 53.5418 73.2658 53.5307C73.14 53.5215 73.0179 53.4884 72.8996 53.4332C72.7867 53.389 72.6924 53.2878 72.6184 53.1295C72.5426 52.9713 72.4815 52.7799 72.4353 52.5591C72.389 52.3382 72.3539 52.099 72.3317 51.8432C72.3095 51.5874 72.2947 51.3408 72.2892 51.1034C72.2836 50.866 72.2799 50.6489 72.2799 50.4483V49.9992C72.2799 49.6625 72.2892 49.3294 72.3077 48.9981C72.3262 48.6669 72.3613 48.3393 72.4112 48.0154C72.4242 47.94 72.439 47.8627 72.4575 47.7817C72.476 47.7008 72.5 47.6161 72.5278 47.5296C72.5555 47.4431 72.5925 47.3603 72.6369 47.2867C72.6813 47.2112 72.7275 47.1487 72.7775 47.099C72.8848 47.0125 73.0364 46.9426 73.2343 46.8929C73.4323 46.8432 73.6413 46.8064 73.8651 46.7806C74.0889 46.7549 74.3072 46.742 74.5236 46.7383C74.74 46.7346 74.9194 46.7346 75.0637 46.7346C75.3892 46.7346 75.7129 46.7806 76.0329 46.8745C76.3529 46.9683 76.6415 47.1082 76.8986 47.2959C77.1557 47.4836 77.3647 47.7155 77.5238 47.9934C77.6828 48.2712 77.7642 48.5878 77.7642 48.9429C77.7642 49.0736 77.7513 49.1969 77.7272 49.3128C77.7013 49.4288 77.6551 49.5429 77.5866 49.6551C77.4794 49.8171 77.3573 49.968 77.2204 50.1097C77.0835 50.2514 76.9319 50.3728 76.7691 50.4796C76.7506 50.4924 76.7136 50.5164 76.6618 50.5495C76.6082 50.5845 76.5823 50.6139 76.5823 50.6378C76.5823 50.6562 76.5971 50.6838 76.6285 50.7225C76.66 50.7593 76.6951 50.7979 76.7321 50.8347C76.7691 50.8715 76.8061 50.9083 76.8412 50.9433L76.9115 51.0132C76.9799 51.0942 77.0595 51.2322 77.1464 51.4255C77.2333 51.6187 77.3166 51.8285 77.3961 52.053C77.4757 52.2775 77.5404 52.4928 77.594 52.6989C77.6477 52.905 77.6736 53.0633 77.6736 53.1755C77.6736 53.2565 77.6199 53.3228 77.5145 53.3725C77.4072 53.4221 77.2851 53.4608 77.1483 53.4902C77.0114 53.5197 76.8727 53.5362 76.7339 53.5473C76.5952 53.5565 76.499 53.562 76.4417 53.562C76.2345 53.562 76.0773 53.505 75.9719 53.389C75.8646 53.2731 75.7814 53.1277 75.7222 52.9547C75.663 52.7799 75.613 52.5922 75.5723 52.3934C75.5316 52.1947 75.4706 52.0088 75.3892 51.8358C75.3078 51.6647 75.195 51.5211 75.0507 51.4052C74.9065 51.2893 74.6993 51.2322 74.4292 51.2322C74.3737 51.2322 74.3257 51.2654 74.2887 51.3298C74.2517 51.3942 74.2258 51.4751 74.2128 51.569C74.1999 51.6628 74.1925 51.7549 74.1888 51.845C74.1851 51.9352 74.1832 52.0033 74.1832 52.0456C74.1832 52.1579 74.1888 52.2738 74.198 52.3916C74.2073 52.5094 74.2128 52.6327 74.2128 52.756L74.2073 52.7504ZM74.1888 49.4288C74.1888 49.5226 74.2036 49.622 74.2313 49.7287C74.2591 49.8355 74.3331 49.887 74.4514 49.887C74.6272 49.887 74.7973 49.8796 74.9638 49.8631C75.1303 49.8483 75.2764 49.8079 75.4003 49.7453C75.5261 49.6827 75.626 49.5889 75.7018 49.4656C75.7777 49.3404 75.8146 49.1693 75.8146 48.9503C75.8146 48.8252 75.7869 48.7111 75.7296 48.608C75.6722 48.505 75.5982 48.4185 75.5039 48.3467C75.4096 48.2749 75.3041 48.2197 75.1895 48.1829C75.0748 48.1461 74.9582 48.1259 74.8454 48.1259H74.5624C74.4181 48.1259 74.3201 48.1737 74.2665 48.2712C74.2128 48.3688 74.1869 48.4792 74.1869 48.6025V49.4251L74.1888 49.4288Z" fill="#F58220"/>
<path d="M82.7028 48.1755C82.5271 48.1755 82.3662 48.2123 82.2182 48.2878C82.0703 48.3632 81.9981 48.4994 81.9981 48.7C81.9981 48.8619 82.0758 48.9944 82.2293 49.0975C82.3828 49.2006 82.5734 49.2944 82.8027 49.3772C83.0321 49.4619 83.2799 49.552 83.5463 49.6477C83.8127 49.7453 84.0605 49.8667 84.2899 50.0121C84.5192 50.1593 84.7097 50.347 84.8633 50.5789C85.0168 50.8089 85.0945 51.0997 85.0945 51.4494C85.0945 51.799 85.0242 52.11 84.8836 52.3842C84.743 52.6584 84.5544 52.8921 84.3195 53.0854C84.0846 53.2786 83.8164 53.4276 83.5149 53.5344C83.2134 53.6411 82.8971 53.6926 82.5641 53.6926C82.2312 53.6926 81.9426 53.6761 81.6615 53.6411C81.3803 53.6062 81.1325 53.5325 80.9235 53.4166C80.7126 53.3007 80.5461 53.1295 80.4203 52.9013C80.2946 52.6731 80.2317 52.3695 80.2317 51.9886C80.2317 51.9444 80.2372 51.9039 80.2502 51.8671C80.2631 51.8303 80.2946 51.8101 80.3445 51.8101C80.4888 51.8101 80.6368 51.8358 80.7866 51.8855C80.9364 51.9352 81.0807 51.983 81.2194 52.0254C81.3951 52.0751 81.5708 52.1229 81.7466 52.1652C81.9223 52.2094 82.1035 52.2315 82.2922 52.2315C82.3791 52.2315 82.4716 52.2241 82.5641 52.2075C82.6585 52.1928 82.7435 52.1615 82.8175 52.1192C82.8934 52.075 82.9562 52.018 83.0099 51.9462C83.0635 51.8745 83.0894 51.7861 83.0894 51.6794C83.0894 51.58 83.0728 51.4917 83.0376 51.4181C83.0025 51.3426 82.9452 51.2782 82.8638 51.2212C82.7454 51.1273 82.6141 51.0629 82.4735 51.0298C82.3329 50.9967 82.1905 50.9598 82.0462 50.923C81.8076 50.855 81.5671 50.7574 81.3267 50.6323C81.0844 50.5071 80.868 50.3581 80.6737 50.1833C80.4795 50.0084 80.3205 49.8078 80.1984 49.5797C80.0763 49.3515 80.0153 49.103 80.0153 48.8362C80.0153 48.481 80.0911 48.1737 80.2465 47.9142C80.4 47.6547 80.5998 47.4376 80.8476 47.2591C81.0955 47.0806 81.3748 46.9499 81.6837 46.8653C81.9944 46.7806 82.3089 46.7383 82.6289 46.7383C82.923 46.7383 83.206 46.7456 83.476 46.7622C83.7461 46.7769 83.9828 46.8321 84.1863 46.926C84.3898 47.0198 84.5525 47.1689 84.6746 47.375C84.7967 47.5811 84.8577 47.8682 84.8577 48.2363C84.8577 48.3982 84.7763 48.4792 84.6136 48.4792C84.4693 48.4792 84.325 48.4626 84.1807 48.4276C84.0365 48.3945 83.8959 48.3614 83.7572 48.3301C83.587 48.2859 83.4131 48.2491 83.2356 48.2179C83.0561 48.1866 82.8804 48.1718 82.7047 48.1718L82.7028 48.1755Z" fill="#F58220"/>
<path d="M73.2788 18.4626L72.5574 15.7924C72.4039 15.2201 71.8083 14.8796 71.233 15.0342L70.4173 15.2513L60.6344 17.8645C60.0573 18.0209 59.7151 18.6098 59.8723 19.184L60.59 21.8524C60.7435 22.4247 61.3391 22.767 61.9144 22.6106L64.2764 21.9793C64.5797 21.8984 64.8812 22.0898 64.9534 22.3934C64.9682 22.456 64.9867 22.5167 65.007 22.5774L66.0817 25.6838C66.1538 25.8936 66.0465 26.1347 65.8375 26.212C61.9107 27.6492 57.5824 26.0666 55.9528 22.4909C54.24 18.7313 56.1563 14.1913 60.233 12.3529C61.7423 11.672 63.3386 11.4567 64.8368 11.6499C65.0533 11.6739 65.2697 11.7107 65.4824 11.7585C65.4916 11.7585 65.4972 11.7585 65.5064 11.7622C66.5589 11.9297 67.5522 11.223 67.7334 10.1759L68.157 7.72098C68.3383 6.66466 67.6262 5.6654 66.5663 5.48321L66.2204 5.42249C66.2075 5.4188 66.1927 5.42064 66.1797 5.41696C63.4089 5.04523 60.4531 5.43353 57.6545 6.69595C56.5003 7.21674 55.4423 7.85532 54.486 8.58958C49.2662 12.5995 47.1706 19.4379 49.8211 25.2532C52.714 31.6021 60.2533 34.5226 67.2655 32.2904C67.5947 32.1855 67.9184 32.0714 68.2421 31.9444L68.3253 32.1855L69.0116 34.1674C69.3519 35.1501 70.4303 35.6728 71.4162 35.3342L74.605 34.241C75.5909 33.9024 76.118 32.8332 75.7759 31.8505C75.7759 31.8505 73.4268 19.0294 73.2732 18.4571L73.2788 18.4626Z" fill="#F58220"/>
<path d="M46.6415 20.6782V20.6727C46.3733 14.8188 41.516 10.1556 35.5656 10.1556C32.9872 10.1556 30.614 11.0297 28.7329 12.4983C26.6428 10.3083 23.687 8.9447 20.4112 8.9447C17.3481 8.9447 14.5644 10.1372 12.5075 12.0824L8.29025 9.65873C7.09906 8.97415 5.57492 9.38085 4.88684 10.566L3.01311 13.7975C2.32503 14.9826 2.73381 16.499 3.925 17.1836L7.92216 19.4784L5.59897 23.9061C4.96268 25.1206 5.43619 26.6186 6.65513 27.2535L11.8009 29.9237C12.5556 30.3175 13.4194 30.2863 14.1186 29.9182C14.5514 29.6919 14.9195 29.3385 15.1618 28.8748L19.0683 21.4254L19.1257 21.315C19.6917 20.3341 21.1178 19.9035 22.3793 21.0573C22.4717 21.142 22.5291 21.2579 22.5494 21.3812C22.6401 21.9241 22.6808 22.1596 22.6549 22.3934C22.6549 22.4191 22.653 22.4449 22.6475 22.4725L22.1129 28.1037C21.9834 29.4673 22.9915 30.6764 24.3621 30.8052L24.9152 30.8567H24.9503L29.8797 31.3242C30.2441 31.3591 30.5974 31.3131 30.9229 31.2009C31.82 30.8935 32.4989 30.0893 32.595 29.0864L33.2942 21.7364L33.3016 21.6425C33.396 20.6911 34.2024 19.9513 35.1846 19.9513C36.1668 19.9513 36.9695 20.6911 37.0676 21.6425L37.7538 28.2233C37.8962 29.5851 39.1189 30.5752 40.4895 30.4335L41.8101 30.2973L45.1026 29.9587C46.4732 29.817 47.4665 28.5969 47.3259 27.2369L46.6434 20.6801L46.6415 20.6782Z" fill="#F58220"/>
<path d="M118.92 21.7732V21.7677C118.651 15.9138 113.794 11.2506 107.846 11.2506C105.256 11.2506 102.876 12.1321 100.989 13.6116C98.895 11.4107 95.9318 10.0397 92.6486 10.0397C89.5967 10.0397 86.8203 11.2248 84.7635 13.1608L82.2516 11.718C81.0604 11.0316 79.5363 11.4364 78.8482 12.6252L76.9708 15.8531C76.2827 17.0382 76.6915 18.5564 77.8826 19.241L80.2021 20.5733L77.8789 24.9973C77.2445 26.2119 77.7162 27.7099 78.937 28.3448L84.0828 31.015C84.8282 31.4033 85.6827 31.3794 86.3764 31.0224C86.8185 30.796 87.1995 30.4372 87.4473 29.9661L91.3076 22.6068C91.3076 22.6068 91.3095 22.6013 91.3132 22.5958C91.3483 22.5167 91.3872 22.4412 91.4316 22.3694C91.4316 22.3676 91.4334 22.3639 91.4334 22.3621C91.9661 21.4916 93.1924 21.0849 94.3466 21.8947C94.6056 22.0768 94.785 22.3547 94.8498 22.6639C94.9348 23.0743 94.9589 23.2804 94.9367 23.4846L94.9293 23.5638L94.3947 29.195C94.2653 30.5586 95.2733 31.7677 96.6439 31.8965L97.197 31.948L102.158 32.4155C102.524 32.4504 102.877 32.4026 103.205 32.2922C104.102 31.983 104.779 31.177 104.873 30.1777L105.563 22.9289C105.563 22.813 105.574 22.7025 105.595 22.5976C105.748 21.7088 106.529 21.0353 107.463 21.0353C108.397 21.0353 109.194 21.7254 109.335 22.6308C109.348 22.6989 109.355 22.7706 109.355 22.8406L110.03 29.3165C110.171 30.6782 111.395 31.6683 112.764 31.5266L114.086 31.3904L117.379 31.0518C118.749 30.9101 119.743 29.69 119.602 28.3301L118.92 21.7732Z" fill="#F58220"/>
<path d="M42.1135 6.45373C42.9109 5.0284 42.3959 3.22981 40.9633 2.43648C39.5307 1.64315 37.7229 2.15549 36.9255 3.58082C36.1281 5.00616 36.6431 6.80474 38.0757 7.59807C39.5083 8.3914 41.3161 7.87906 42.1135 6.45373Z" fill="#F58220"/>
<path d="M47.2271 10.1737C48.7233 9.50656 49.3926 7.75901 48.7221 6.27042C48.0515 4.78183 46.295 4.11591 44.7988 4.78303C43.3026 5.45016 42.6333 7.19771 43.3038 8.68629C43.9744 10.1749 45.7309 10.8408 47.2271 10.1737Z" fill="#F58220"/>
<path d="M77.5153 8.9694C78.5394 7.69544 78.3315 5.83678 77.051 4.81797C75.7705 3.79916 73.9023 4.006 72.8783 5.27996C71.8543 6.55392 72.0622 8.41258 73.3427 9.43139C74.6232 10.4502 76.4913 10.2434 77.5153 8.9694Z" fill="#F58220"/>
<path d="M82.431 9.29068C84.0606 9.11033 85.2333 7.64916 85.052 6.02973C84.8707 4.40845 83.4021 3.24173 81.7744 3.42207C80.1448 3.60242 78.9721 5.06359 79.1534 6.68302C79.3346 8.3043 80.8033 9.47102 82.431 9.29068Z" fill="#F58220"/>
<path d="M96.594 16.6986C94.7646 15.4086 91.7608 15.0498 89.6762 15.8724C89.001 16.1116 88.2223 15.9441 87.8986 15.3663C87.8376 15.2577 87.808 15.2043 87.747 15.0958C87.4233 14.5198 87.8598 13.6493 88.768 13.3291C91.8699 12.2434 95.3269 12.6556 98.0811 14.4406C98.8876 14.9669 99.104 15.9147 98.6527 16.3987C98.5676 16.4907 98.525 16.5349 98.44 16.6269C97.9886 17.1109 97.1914 17.0906 96.5921 16.7005L96.594 16.6986Z" fill="#FFA85A"/>
<path d="M112.964 18.8389C111.362 17.2765 108.454 16.4502 106.266 16.9342C105.561 17.063 104.82 16.7759 104.592 16.1558C104.55 16.0398 104.527 15.9809 104.485 15.8632C104.257 15.243 104.825 14.4535 105.774 14.2787C109.009 13.6953 112.357 14.6468 114.793 16.8422C115.505 17.4881 115.568 18.4579 115.046 18.8646C114.948 18.9419 114.898 18.9787 114.8 19.056C114.279 19.4627 113.493 19.3174 112.966 18.837L112.964 18.8389Z" fill="#FFA85A"/>
<path d="M23.6871 15.6552C21.8207 14.4167 18.8094 14.1443 16.7489 15.024C16.0812 15.2816 15.2969 15.1362 14.9584 14.5694C14.8937 14.4627 14.8622 14.4093 14.7993 14.3026C14.459 13.7358 14.8715 12.8543 15.7704 12.5065C18.8409 11.3342 22.3072 11.6489 25.1132 13.3548C25.9344 13.8572 26.1767 14.7994 25.7402 15.2963C25.6588 15.3902 25.6163 15.4362 25.5349 15.53C25.0984 16.0269 24.2993 16.0287 23.6908 15.6552H23.6871Z" fill="#FFA85A"/>
<path d="M40.1343 17.788C38.5529 16.2054 35.6563 15.3441 33.4607 15.8005C32.756 15.922 32.0161 15.6239 31.796 15C31.7553 14.8822 31.7331 14.8233 31.6924 14.7074C31.4723 14.0836 32.0512 13.3014 33.002 13.1395C36.2445 12.5966 39.5794 13.5885 41.9896 15.8152C42.6943 16.4704 42.7442 17.4402 42.2171 17.8414C42.1172 17.9168 42.0673 17.9536 41.9692 18.0291C41.4421 18.4303 40.6597 18.2738 40.1362 17.788H40.1343Z" fill="#FFA85A"/>
<path d="M64.3411 10.5282C62.1844 10.3129 59.4617 11.0159 57.6804 12.247C57.1033 12.6206 56.3283 12.5764 55.9047 12.0685C55.8252 11.9728 55.7845 11.925 55.705 11.8293C55.2814 11.3214 55.4775 10.4528 56.1988 9.98349C58.6608 8.39166 61.6018 7.63163 64.5316 7.83222C65.3917 7.89295 65.9873 8.55729 65.8634 9.20506C65.8412 9.32652 65.8283 9.38909 65.8061 9.51054C65.684 10.1602 65.0274 10.5742 64.3411 10.5264V10.5282Z" fill="#FFA85A"/>
<path d="M80.6181 14.2858L80.1501 15.0922C79.9678 15.4064 80.076 15.8082 80.3918 15.9896L82.2772 17.0726C82.593 17.254 82.9969 17.1464 83.1792 16.8322L83.6472 16.0257C83.8296 15.7115 83.7214 15.3097 83.4055 15.1283L81.5201 14.0453C81.2043 13.8639 80.8004 13.9715 80.6181 14.2858Z" fill="#FFA85A"/>
<path d="M6.5864 12.6132L6.33854 13.0403C6.09541 13.4593 6.23969 13.995 6.66081 14.2369L8.51577 15.3024C8.93688 15.5443 9.47536 15.4008 9.71848 14.9818L9.96634 14.5547C10.2095 14.1357 10.0652 13.6 9.64407 13.3581L7.78911 12.2926C7.368 12.0507 6.82953 12.1943 6.5864 12.6132Z" fill="#FFA85A"/>
<path d="M83.3337 7.61141C82.9286 6.98572 82.555 6.76305 81.8096 6.6968C81.5321 6.67288 81.2639 6.51461 81.2232 6.26434C81.2158 6.21649 81.2121 6.19441 81.2029 6.14656C81.1604 5.89628 81.4803 5.62761 81.9002 5.66441C83.0304 5.76379 83.5927 6.10239 84.2086 7.04829C84.438 7.39978 84.3473 7.80832 84.1069 7.88745C84.0606 7.90217 84.0385 7.90953 83.9922 7.92426C83.7499 8.00339 83.4835 7.84328 83.3337 7.60957V7.61141Z" fill="#FFA85A"/>
<path d="M76.2679 7.93711C75.946 7.44024 75.6501 7.26357 75.0582 7.21204C74.8381 7.1918 74.6254 7.06666 74.5921 6.86792C74.5865 6.83111 74.5828 6.81271 74.5773 6.77406C74.544 6.57531 74.7974 6.36184 75.1322 6.39129C76.0293 6.47042 76.4751 6.7391 76.9634 7.48993C77.1446 7.76965 77.0743 8.09353 76.882 8.1561C76.845 8.16898 76.8283 8.1745 76.7913 8.18555C76.599 8.24995 76.3881 8.12114 76.2679 7.93711Z" fill="#FFA85A"/>
<path d="M46.8395 8.61978C46.4344 7.99409 46.0607 7.77141 45.3153 7.70516C45.0379 7.68124 44.7697 7.52298 44.729 7.2727C44.7216 7.22486 44.7179 7.20277 44.7086 7.15493C44.6661 6.90465 44.9861 6.63413 45.406 6.67278C46.5361 6.77215 47.0984 7.11076 47.7144 8.05665C47.9437 8.40815 47.8531 8.81668 47.6126 8.89582C47.5664 8.91054 47.5442 8.9179 47.498 8.93262C47.2556 9.01359 46.9893 8.85165 46.8395 8.61794V8.61978Z" fill="#FFA85A"/>
<path d="M40.2897 5.72141C39.9679 5.22454 39.6719 5.04787 39.0801 4.99635C38.8599 4.9761 38.6472 4.85097 38.6139 4.65222C38.6084 4.61541 38.6047 4.59701 38.5991 4.55836C38.5658 4.35962 38.8192 4.14614 39.154 4.17559C40.0511 4.25472 40.4969 4.5234 40.9852 5.27423C41.1665 5.55395 41.0962 5.87783 40.9038 5.9404C40.8668 5.95328 40.8502 5.95881 40.8132 5.96985C40.6208 6.03242 40.41 5.90544 40.2897 5.72141Z" fill="#FFA85A"/>
<path d="M70.3286 20.1878C68.4327 20.5669 67.4931 20.7988 65.6378 21.3398C65.1847 21.4723 64.689 21.13 64.5262 20.5669C64.4947 20.4602 64.4799 20.4086 64.4503 20.3019C64.2876 19.7406 64.5317 19.1683 64.996 19.0321C66.903 18.4763 67.8685 18.2371 69.8181 17.847C70.2935 17.7513 70.7762 18.1451 70.8965 18.7174C70.9187 18.826 70.9298 18.8794 70.952 18.9879C71.0722 19.5603 70.791 20.0939 70.3286 20.186V20.1878Z" fill="#FFA85A"/>
</svg>
