<svg width="7" height="7" viewBox="0 0 7 7" fill="none" xmlns="http://www.w3.org/2000/svg">
<circle cx="3.5" cy="3.5" r="3.5" fill="#D9D9D9"/>
<path d="M3.24144 4.092C3.24144 3.99333 3.2561 3.9 3.28544 3.812C3.31744 3.72133 3.37477 3.61733 3.45744 3.5C3.55344 3.364 3.61877 3.24667 3.65344 3.148C3.6881 3.04933 3.70544 2.94533 3.70544 2.836C3.70544 2.74 3.68677 2.67067 3.64944 2.628C3.6121 2.58267 3.55744 2.56 3.48544 2.56C3.41344 2.56 3.35877 2.58267 3.32144 2.628C3.2841 2.67067 3.26544 2.74 3.26544 2.836V3.14H2.84944V2.864C2.84944 2.63733 2.9041 2.464 3.01344 2.344C3.12277 2.22133 3.28277 2.16 3.49344 2.16C3.70677 2.16 3.8681 2.22133 3.97744 2.344C4.08944 2.464 4.14544 2.63733 4.14544 2.864C4.14544 2.98667 4.12277 3.10533 4.07744 3.22C4.03477 3.332 3.9601 3.45867 3.85344 3.6C3.7681 3.71467 3.7081 3.81067 3.67344 3.888C3.64144 3.96267 3.62544 4.036 3.62544 4.108V4.26H3.24144V4.092ZM3.22144 4.576H3.64544V5H3.22144V4.576Z" fill="black"/>
</svg>
