<svg width="78" height="78" viewBox="0 0 78 78" fill="none" xmlns="http://www.w3.org/2000/svg">
<circle cx="39" cy="39" r="38.5" stroke="#F58220"/>
<path d="M54.7697 25.2655C54.4426 25.098 54.1242 24.9145 53.8157 24.7155C52.9185 24.128 52.0959 23.4357 51.3656 22.6536C49.5384 20.5827 48.856 18.4818 48.6046 17.0109H48.6147C48.4047 15.79 48.4915 15 48.5046 15H40.1822V46.8764C40.1822 47.3044 40.1822 47.7274 40.164 48.1453C40.164 48.1973 40.159 48.2453 40.156 48.3013C40.156 48.3243 40.156 48.3483 40.1509 48.3723C40.1509 48.3783 40.1509 48.3843 40.1509 48.3903C40.0632 49.5341 39.693 50.6389 39.0731 51.6077C38.4531 52.5764 37.6022 53.3794 36.5954 53.9461C35.546 54.5374 34.3592 54.8476 33.1519 54.846C29.2744 54.846 26.1318 51.7142 26.1318 47.8464C26.1318 43.9786 29.2744 40.8467 33.1519 40.8467C33.8859 40.846 34.6154 40.9604 35.3133 41.1857L35.3234 32.7921C33.2048 32.521 31.0525 32.6878 29.0022 33.2819C26.9519 33.876 25.0482 34.8846 23.4111 36.2439C21.9767 37.4785 20.7707 38.9515 19.8475 40.5967C19.4962 41.1967 18.1707 43.6076 18.0102 47.5204C17.9093 49.7413 18.5826 52.0422 18.9036 52.9931V53.0131C19.1055 53.5731 19.8879 55.484 21.1629 57.0949C22.1911 58.3871 23.4058 59.5222 24.7679 60.4637V60.4437L24.7881 60.4637C28.8171 63.1756 33.2842 62.9976 33.2842 62.9976C34.0575 62.9666 36.6479 62.9976 39.5896 61.6167C42.8524 60.0858 44.7099 57.8049 44.7099 57.8049C45.8965 56.442 46.8401 54.8889 47.5002 53.2121C48.2533 51.2512 48.5046 48.8993 48.5046 47.9594V31.0482C48.6056 31.1082 49.9503 31.9892 49.9503 31.9892C49.9503 31.9892 51.8875 33.2191 54.91 34.0201C57.0785 34.59 60 34.71 60 34.71V26.5264C58.9763 26.6364 56.8978 26.3164 54.7697 25.2655Z" fill="#F58220"/>
</svg>
