<?xml version="1.0" encoding="UTF-8"?>
<svg xmlns="http://www.w3.org/2000/svg" version="1.1" viewBox="0 0 78 78">
  <defs>
    <style>
      .cls-1 {
        fill: #181818;
      }

      .cls-2 {
        fill: none;
        stroke: #181818;
      }
    </style>
  </defs>
  <!-- Generator: Adobe Illustrator 28.6.0, SVG Export Plug-In . SVG Version: 1.2.0 Build 709)  -->
  <g>
    <g id="Capa_1">
      <circle class="cls-2" cx="39" cy="39" r="38.5"/>
      <path class="cls-1" d="M54.8,25.3c-.3-.2-.6-.4-1-.5-.9-.6-1.7-1.3-2.5-2.1-1.8-2.1-2.5-4.2-2.8-5.6h0c-.2-1.2-.1-2-.1-2h-8.3v31.9c0,.4,0,.9,0,1.3,0,0,0,0,0,.2,0,0,0,0,0,0h0c0,1.2-.5,2.3-1.1,3.2-.6,1-1.5,1.8-2.5,2.3-1,.6-2.2.9-3.4.9-3.9,0-7-3.1-7-7s3.1-7,7-7c.7,0,1.5.1,2.2.3v-8.4c-2.1-.3-4.3-.1-6.3.5-2.1.6-4,1.6-5.6,3-1.4,1.2-2.6,2.7-3.6,4.4-.4.6-1.7,3-1.8,6.9-.1,2.2.6,4.5.9,5.5h0c.2.6,1,2.5,2.3,4.1,1,1.3,2.2,2.4,3.6,3.4h0s0,0,0,0c4,2.7,8.5,2.5,8.5,2.5.8,0,3.4,0,6.3-1.4,3.3-1.5,5.1-3.8,5.1-3.8,1.2-1.4,2.1-2.9,2.8-4.6.8-2,1-4.3,1-5.3v-16.9c.1,0,1.4.9,1.4.9,0,0,1.9,1.2,5,2,2.2.6,5.1.7,5.1.7v-8.2c-1,.1-3.1-.2-5.2-1.3Z"/>
    </g>
  </g>
</svg>