<?xml version="1.0" encoding="UTF-8"?>
<svg xmlns="http://www.w3.org/2000/svg" version="1.1" viewBox="0 0 369 162">
  <defs>
    <style>
      .cls-1 {
        fill: #edecea;
      }
    </style>
  </defs>
  <!-- Generator: Adobe Illustrator 28.6.0, SVG Export Plug-In . SVG Version: 1.2.0 Build 709)  -->
  <g>
    <g id="Capa_1">
      <path class="cls-1" d="M253.2,61.2c0,.7,0,1.2-.1,1.6,0,.4-.2.7-.5,1-.2.2-.6.4-1,.5-.4,0-1,.1-1.6.1s-1.1-.1-1.6-.3c-.5-.2-1-.5-1.4-.9-.4-.4-.7-.8-.9-1.3-.2-.5-.3-1-.3-1.6s.1-1.2.3-1.7c.2-.5.5-1,.9-1.3.4-.4.8-.7,1.3-.9.5-.2,1.1-.3,1.7-.3s.4,0,.7,0c.2,0,.5,0,.7,0,.2,0,.4,0,.6.2.2,0,.4.2.5.4,0,.1.1.3.2.5,0,.2,0,.4,0,.5s0,.2,0,.3c0,0-.1,0-.3,0-.3,0-.6,0-.9-.1s-.6-.1-.9-.1c-.8,0-1.4.2-1.8.6-.4.4-.6,1-.6,1.8s0,.7.1,1c0,.3.2.5.4.8.2.2.4.4.7.5.3.1.6.2,1,.2s.3,0,.4,0c0,0,.1-.1.2-.2,0,0,0-.2,0-.3v-.4c0-.3,0-.4-.1-.6,0-.1-.2-.2-.5-.2s0,0-.1,0c0,0,0,0-.1,0-.2,0-.4,0-.5-.2,0-.1-.1-.3-.1-.5,0-.3,0-.6.2-.7.1-.2.4-.2.7-.2s.3,0,.4,0c.1,0,.2,0,.4,0,.2,0,.4,0,.6,0,.2,0,.4,0,.6,0,.3,0,.5,0,.6.2.1.1.2.3.3.6,0,.2,0,.4,0,.5,0,.2,0,.4,0,.5h0Z"/>
      <path class="cls-1" d="M257.5,64.2c-.2,0-.4,0-.5,0-.2,0-.3,0-.4,0-.1,0-.2-.1-.3-.3,0-.1-.1-.3-.1-.5s0-.5.1-.9c0-.4.2-.8.4-1.3.1-.5.3-1,.5-1.5.2-.5.4-1,.6-1.5.2-.5.4-.8.6-1.2.2-.3.4-.5.5-.6.1,0,.3-.1.4-.2.1,0,.3,0,.4,0,.3,0,.5,0,.6,0,.2,0,.3.2.5.4.1.1.3.4.4.7.2.3.3.7.5,1.2.2.4.3.9.5,1.4.2.5.3,1,.5,1.4.1.5.2.9.3,1.2,0,.4.1.6.1.8s0,.4-.2.5c-.1.1-.2.2-.4.2-.2,0-.3,0-.5,0-.2,0-.3,0-.5,0-.2,0-.4,0-.5-.1,0,0-.1-.2-.1-.3,0-.1,0-.2,0-.4s0-.2-.1-.4c0-.1-.2-.2-.4-.3s-.5-.1-.9-.1-.6,0-.7.1c-.1,0-.2.2-.3.3,0,.1,0,.2,0,.4s0,.2,0,.4c0,.1-.1.2-.2.3-.1,0-.3.1-.6.1h0ZM259.8,61.1c.1,0,.2,0,.3,0,0,0,.1-.2.1-.3s0-.2,0-.4c0-.2,0-.4-.1-.7,0-.2-.1-.4-.2-.6,0-.2-.1-.3-.2-.3s-.1,0-.2.3c0,.2-.1.4-.2.6,0,.2-.1.5-.1.7,0,.2,0,.4,0,.4,0,.2,0,.3.2.3.1,0,.2,0,.4,0h.3,0Z"/>
      <path class="cls-1" d="M268.3,63.4c0,.3,0,.5-.1.6,0,.1-.3.2-.6.2s-.3,0-.4,0c-.1,0-.3,0-.4-.1-.1,0-.2-.2-.3-.4,0-.2-.2-.4-.2-.7,0-.2,0-.5-.1-.8,0-.3,0-.6,0-.8,0-.3,0-.5,0-.8,0-.2,0-.4,0-.5,0-.2,0-.4,0-.7,0-.3,0-.6,0-.9,0-.3,0-.6.1-.9,0-.3.1-.5.2-.7,0-.1.1-.2.2-.3,0,0,.2-.2.3-.2.1,0,.2,0,.4,0,.1,0,.3,0,.4,0s.2,0,.3,0c0,0,.2,0,.3,0,.1,0,.2.2.4.4.1.2.2.5.3.7.1.3.2.6.3.9.1.3.2.6.3.9,0,.3.2.5.3.6.1.2.2.3.3.3s.3,0,.4-.2c.1-.2.2-.3.3-.6.1-.2.2-.5.3-.8.1-.3.2-.6.3-.8,0-.3.2-.5.3-.7,0-.2.2-.4.3-.5.1-.2.3-.3.5-.3.2,0,.4,0,.6,0s.4,0,.5.1c.2,0,.3.2.4.4.1.2.2.5.3.7,0,.3.1.5.1.8,0,.3,0,.6,0,.9,0,.3,0,.5,0,.8s0,.3,0,.4c0,.1,0,.2,0,.4,0,.2,0,.5,0,.8,0,.3,0,.6,0,.9,0,.3-.1.6-.2.9,0,.3-.2.5-.4.7-.1.2-.3.2-.4.2-.2,0-.3,0-.5,0-.3,0-.5,0-.6-.2,0-.1-.1-.3-.1-.6,0-.4,0-.9,0-1.3,0-.4,0-.8,0-1.3s0-.2,0-.2c0,0,0-.1,0-.2,0,0-.2,0-.2.2,0,.1-.1.2-.2.4,0,.2-.1.3-.2.5,0,.2-.2.4-.3.5-.1.2-.3.3-.5.4-.2.1-.4.2-.7.2s-.5,0-.7-.2c-.2-.1-.3-.2-.4-.4-.1-.2-.2-.3-.3-.5,0-.2-.1-.4-.2-.5,0-.2-.1-.3-.2-.4,0-.1-.1-.2-.2-.2,0,0,0,0,0,.2,0,0,0,.2,0,.3,0,.1,0,.2,0,.4v.2c0,.3,0,.6,0,.9,0,.3,0,.6,0,.9h0Z"/>
      <path class="cls-1" d="M280.2,61.9c0,.4.2.6.6.6s.6,0,1,0c.3,0,.6,0,1,0s.5,0,.5.2c0,.1.1.3.1.5s0,.4-.2.6c-.1.2-.3.3-.5.3-.2,0-.4.1-.6.2-.2,0-.4,0-.6,0s-.4,0-.6,0c-.2,0-.4,0-.7,0-.2,0-.4,0-.6,0-.2,0-.4,0-.6-.2-.4-.2-.7-.4-.9-.8-.2-.3-.2-.7-.3-1.1,0-.3,0-.6,0-.8,0-.3,0-.6,0-.8s0-.5,0-.7c0-.2,0-.5,0-.7,0-.7,0-1.3.2-1.7.2-.4.4-.7.7-.9.3-.2.7-.3,1.2-.3.5,0,1,0,1.7,0s.5,0,.8.1c.3,0,.5.2.7.4.1.1.2.2.2.4,0,.2,0,.3,0,.5s0,.2-.1.3c0,0-.2.1-.3.1-.1,0-.2,0-.4,0-.1,0-.2,0-.3,0-.2,0-.4,0-.6,0-.2,0-.4,0-.6,0s-.3,0-.4,0c-.1,0-.2,0-.3,0,0,0-.1.1-.2.2,0,.1,0,.3,0,.4s0,.3.1.3c0,0,.2.1.3.2.1,0,.2,0,.4,0,.1,0,.2,0,.3,0,.2,0,.3,0,.5,0,.2,0,.3,0,.5,0s.3,0,.5,0c.2,0,.3.1.4.2,0,0,0,.2.1.3,0,.1,0,.3,0,.3s0,.2,0,.2c0,0,0,.2,0,.2,0,0-.2.1-.3.2-.2,0-.3,0-.5,0-.2,0-.4,0-.5,0-.2,0-.3,0-.4,0h-.3c-.1,0-.2,0-.3,0-.1,0-.2,0-.3,0,0,0-.2,0-.2.1,0,0,0,0,0,.1,0,0,0,0,0,.2,0,0,0,.2,0,.2,0,0,0,.2,0,.3h0Z"/>
      <path class="cls-1" d="M289,63.3c0,.1,0,.2,0,.4,0,.1,0,.2,0,.3,0,0-.1.2-.2.2,0,0-.2,0-.4,0s-.3,0-.5,0c-.2,0-.3,0-.4-.1-.1,0-.2-.2-.3-.4,0-.2-.2-.4-.2-.7s0-.6-.1-.9c0-.3,0-.6,0-.9,0-.3,0-.5,0-.8v-.5c0-.4,0-.8,0-1.2,0-.4,0-.8.1-1.2,0,0,0-.2,0-.3,0,0,0-.2,0-.3,0-.1,0-.2.1-.3,0,0,.1-.2.2-.2.1-.1.3-.2.6-.2.2,0,.5-.1.8-.1.3,0,.5,0,.8,0,.3,0,.5,0,.7,0,.4,0,.8,0,1.2.2.4.1.7.3,1,.5.3.2.6.5.8.8.2.3.3.7.3,1.1s0,.3,0,.4c0,.1,0,.3-.2.4-.1.2-.3.4-.4.5-.2.2-.3.3-.5.4,0,0,0,0-.1,0,0,0,0,0,0,.1s0,0,0,.1c0,0,0,0,.1.1,0,0,0,0,.1.1h0c0,.2.2.3.3.6.1.2.2.5.3.8,0,.3.2.5.2.8,0,.2,0,.4,0,.6s0,.2-.2.2c-.1,0-.3.1-.4.1-.2,0-.3,0-.5,0-.2,0-.3,0-.4,0-.2,0-.4,0-.6-.2-.1-.1-.2-.3-.3-.5,0-.2-.1-.4-.2-.7,0-.2-.1-.5-.2-.7,0-.2-.2-.4-.4-.5-.2-.1-.4-.2-.8-.2s-.1,0-.2.1c0,0,0,.2,0,.3,0,.1,0,.2,0,.3,0,.1,0,.2,0,.2,0,.1,0,.3,0,.4,0,.1,0,.3,0,.4h0ZM289,59.3c0,.1,0,.2,0,.4,0,.1.1.2.3.2.2,0,.4,0,.6,0,.2,0,.4,0,.5-.1.2,0,.3-.2.4-.3,0-.2.1-.4.1-.6s0-.3-.1-.4c0-.1-.2-.2-.3-.3-.1,0-.2-.2-.4-.2-.1,0-.3,0-.4,0h-.3c-.2,0-.3,0-.4.2,0,.1,0,.2,0,.4v1h0Z"/>
      <path class="cls-1" d="M299.3,57.8c-.2,0-.4,0-.6.1-.2,0-.3.3-.3.5s0,.4.3.5c.2.1.4.2.7.3.3.1.6.2.9.3.3.1.6.3.9.4.3.2.5.4.7.7.2.3.3.6.3,1s0,.8-.3,1.1c-.2.3-.4.6-.7.8-.3.2-.6.4-1,.5-.4.1-.7.2-1.1.2s-.8,0-1.1,0c-.3,0-.6-.1-.9-.3-.3-.1-.5-.3-.6-.6-.2-.3-.2-.6-.2-1.1s0-.1,0-.1c0,0,0,0,.1,0,.2,0,.4,0,.5,0,.2,0,.4.1.5.2.2,0,.4.1.6.2.2,0,.4,0,.7,0s.2,0,.3,0c.1,0,.2,0,.3-.1,0,0,.2-.1.2-.2,0,0,0-.2,0-.3s0-.2,0-.3c0,0-.1-.2-.2-.2-.1-.1-.3-.2-.5-.2-.2,0-.3,0-.5-.1-.3,0-.6-.2-.9-.3-.3-.2-.6-.3-.8-.5-.2-.2-.4-.5-.6-.7-.1-.3-.2-.6-.2-.9s0-.8.3-1.1c.2-.3.4-.6.7-.8.3-.2.6-.4,1-.5.4-.1.8-.2,1.1-.2s.7,0,1,0c.3,0,.6,0,.9.2.2.1.4.3.6.5.1.2.2.6.2,1s0,.3-.3.3-.3,0-.5,0c-.2,0-.3,0-.5-.1-.2,0-.4,0-.6-.1-.2,0-.4,0-.6,0h0Z"/>
      <path class="cls-1" d="M287.9,22.2l-.9-3.2c-.2-.7-.9-1.1-1.6-.9l-1,.3-11.8,3.1c-.7.2-1.1.9-.9,1.6l.9,3.2c.2.7.9,1.1,1.6.9l2.9-.8c.4,0,.7.1.8.5,0,0,0,.1,0,.2l1.3,3.7c0,.3,0,.5-.3.6-4.8,1.7-10-.2-12-4.5-2.1-4.5.2-10,5.2-12.2,1.8-.8,3.8-1.1,5.6-.8.3,0,.5,0,.8.1,0,0,0,0,0,0,1.3.2,2.5-.6,2.7-1.9l.5-2.9c.2-1.3-.6-2.5-1.9-2.7h-.4c0,0,0,0,0,0-3.4-.4-6.9,0-10.3,1.5-1.4.6-2.7,1.4-3.8,2.3-6.3,4.8-8.9,13-5.6,20,3.5,7.6,12.6,11.1,21.1,8.4.4-.1.8-.3,1.2-.4v.3c.1,0,.9,2.4.9,2.4.4,1.2,1.7,1.8,2.9,1.4l3.9-1.3c1.2-.4,1.8-1.7,1.4-2.9,0,0-2.8-15.4-3-16.1h0Z"/>
      <path class="cls-1" d="M255.6,24.8h0c-.3-7-6.2-12.6-13.4-12.6s-6,1-8.3,2.8c-2.5-2.6-6.1-4.3-10.1-4.3s-7.1,1.4-9.6,3.8l-5.1-2.9c-1.4-.8-3.3-.3-4.1,1.1l-2.3,3.9c-.8,1.4-.3,3.2,1.1,4.1l4.8,2.8-2.8,5.3c-.8,1.5-.2,3.3,1.3,4l6.2,3.2c.9.5,2,.4,2.8,0,.5-.3,1-.7,1.3-1.3l4.7-8.9h0c.7-1.3,2.4-1.8,3.9-.4.1.1.2.2.2.4.1.7.2.9.1,1.2,0,0,0,0,0,0l-.6,6.8c-.2,1.6,1.1,3.1,2.7,3.2h.7c0,0,0,0,0,0l6,.6c.4,0,.9,0,1.3-.1,1.1-.4,1.9-1.3,2-2.5l.8-8.8h0c.1-1.3,1.1-2.1,2.3-2.1s2.2.9,2.3,2l.8,7.9c.2,1.6,1.7,2.8,3.3,2.7l1.6-.2,4-.4c1.7-.2,2.9-1.6,2.7-3.3l-.8-7.9h0Z"/>
      <path class="cls-1" d="M343.1,26.1h0c-.3-7-6.2-12.6-13.4-12.6s-6,1.1-8.3,2.8c-2.5-2.6-6.1-4.3-10.1-4.3s-7.1,1.4-9.5,3.7l-3-1.7c-1.4-.8-3.3-.3-4.1,1.1l-2.3,3.9c-.8,1.4-.3,3.2,1.1,4.1l2.8,1.6-2.8,5.3c-.8,1.5-.2,3.3,1.3,4l6.2,3.2c.9.5,1.9.4,2.8,0,.5-.3,1-.7,1.3-1.3l4.7-8.8s0,0,0,0c0,0,0-.2.1-.3,0,0,0,0,0,0,.6-1,2.1-1.5,3.5-.6.3.2.5.6.6.9.1.5.1.7.1,1h0c0,0-.6,6.9-.6,6.9-.2,1.6,1.1,3.1,2.7,3.2h.7c0,0,6,.6,6,.6.4,0,.9,0,1.3-.1,1.1-.4,1.9-1.3,2-2.5l.8-8.7c0-.1,0-.3,0-.4.2-1.1,1.1-1.9,2.3-1.9s2.1.8,2.3,1.9c0,0,0,.2,0,.3l.8,7.8c.2,1.6,1.7,2.8,3.3,2.7l1.6-.2,4-.4c1.7-.2,2.9-1.6,2.7-3.3l-.8-7.9Z"/>
      <path class="cls-1" d="M250.2,7.7c1-1.7.3-3.9-1.4-4.8-1.7-1-3.9-.3-4.9,1.4-1,1.7-.3,3.9,1.4,4.8,1.7,1,3.9.3,4.9-1.4Z"/>
      <path class="cls-1" d="M256.4,12.2c1.8-.8,2.6-2.9,1.8-4.7-.8-1.8-2.9-2.6-4.7-1.8-1.8.8-2.6,2.9-1.8,4.7.8,1.8,2.9,2.6,4.7,1.8Z"/>
      <path class="cls-1" d="M293,10.8c1.2-1.5,1-3.8-.6-5-1.5-1.2-3.8-1-5,.6-1.2,1.5-1,3.8.6,5,1.6,1.2,3.8,1,5-.6Z"/>
      <path class="cls-1" d="M299,11.1c2-.2,3.4-2,3.2-3.9-.2-1.9-2-3.3-4-3.1-2,.2-3.4,2-3.2,3.9.2,1.9,2,3.3,4,3.1Z"/>
      <rect class="cls-1" x="13" y="81" width="343" height="13"/>
      <rect class="cls-1" y="81" width="13" height="81"/>
      <rect class="cls-1" x="356" y="81" width="13" height="81"/>
    </g>
  </g>
</svg>