<?xml version="1.0" encoding="UTF-8"?>
<svg xmlns="http://www.w3.org/2000/svg" version="1.1" viewBox="0 0 1321 178">
  <defs>
    <style>
      .cls-1 {
        fill: none;
        stroke: #edecea;
        stroke-width: 15px;
      }

      .cls-2 {
        fill: #edecea;
      }
    </style>
  </defs>
  <!-- Generator: Adobe Illustrator 28.6.0, SVG Export Plug-In . SVG Version: 1.2.0 Build 709)  -->
  <g>
    <g id="Capa_1">
      <path class="cls-2" d="M75.6,83c0,.6,0,1-.1,1.4,0,.3-.2.6-.4.8-.2.2-.5.3-.8.4-.3,0-.8.1-1.4.1s-.9,0-1.3-.3c-.4-.2-.8-.4-1.1-.7-.3-.3-.6-.7-.8-1.1-.2-.4-.3-.9-.3-1.3s0-1,.3-1.4c.2-.4.4-.8.7-1.1.3-.3.7-.6,1.1-.7.4-.2.9-.3,1.4-.3s.4,0,.5,0c.2,0,.4,0,.6,0,.2,0,.4,0,.5.1.2,0,.3.2.4.4,0,.1.1.2.1.4,0,.2,0,.3,0,.4s0,.2,0,.2c0,0-.1,0-.2,0-.3,0-.5,0-.7,0-.2,0-.5,0-.8,0-.7,0-1.2.2-1.5.5-.3.3-.5.8-.5,1.5s0,.6.1.8c0,.2.2.5.3.6.1.2.3.3.6.4.2,0,.5.1.8.1s.2,0,.3,0c0,0,.1,0,.1-.1,0,0,0-.1,0-.2v-.3c0-.2,0-.4,0-.5,0-.1-.2-.2-.5-.2s0,0,0,0c0,0,0,0-.1,0-.2,0-.3,0-.4-.2,0-.1-.1-.3-.1-.5,0-.3,0-.5.2-.6.1-.1.3-.2.6-.2s.2,0,.3,0c0,0,.2,0,.3,0,.2,0,.3,0,.5,0,.2,0,.3,0,.5,0,.2,0,.4,0,.5.2.1,0,.2.3.2.5,0,.1,0,.3,0,.5,0,.2,0,.3,0,.5h0Z"/>
      <path class="cls-2" d="M79.2,85.5c-.1,0-.3,0-.4,0-.1,0-.2,0-.3,0,0,0-.2-.1-.2-.2,0-.1,0-.2,0-.4s0-.4.1-.7c0-.3.2-.7.3-1.1.1-.4.3-.8.4-1.3.2-.4.3-.8.5-1.2.2-.4.3-.7.5-1,.2-.3.3-.5.4-.5.1,0,.2-.1.3-.1.1,0,.2,0,.3,0,.2,0,.4,0,.5,0,.1,0,.3.1.4.3,0,.1.2.3.3.6.1.3.3.6.4,1,.1.4.3.8.4,1.2.1.4.3.8.4,1.2.1.4.2.7.3,1,0,.3.1.5.1.7s0,.3-.1.4c0,0-.2.2-.3.2-.1,0-.3,0-.4,0-.1,0-.3,0-.4,0-.2,0-.3,0-.4,0,0,0-.1-.1-.1-.2,0,0,0-.2,0-.3s0-.2,0-.3c0,0-.2-.2-.3-.2-.2,0-.4,0-.7,0s-.5,0-.6,0-.2.1-.2.2c0,0,0,.2,0,.3s0,.2,0,.3c0,0,0,.2-.2.2,0,0-.3,0-.5,0h0ZM81,82.9c0,0,.2,0,.2,0,0,0,0-.1,0-.2s0-.2,0-.4c0-.2,0-.4-.1-.6,0-.2,0-.4-.1-.5,0-.2-.1-.2-.2-.2s0,0-.1.2c0,.2-.1.3-.2.5,0,.2,0,.4-.1.6,0,.2,0,.3,0,.3,0,.1,0,.2.1.3,0,0,.2,0,.3,0h.2,0Z"/>
      <path class="cls-2" d="M88.1,84.9c0,.2,0,.4-.1.5,0,.1-.2.2-.5.2s-.2,0-.3,0c-.1,0-.2,0-.3,0s-.2-.2-.3-.3c0-.2-.1-.3-.2-.5,0-.2,0-.4-.1-.7,0-.2,0-.5,0-.7,0-.2,0-.4,0-.6,0-.2,0-.3,0-.4,0-.2,0-.4,0-.6,0-.2,0-.5,0-.8,0-.3,0-.5,0-.8,0-.2,0-.4.2-.6,0,0,.1-.2.2-.3,0,0,.2-.1.3-.2,0,0,.2,0,.3,0,.1,0,.2,0,.3,0s.1,0,.2,0c0,0,.1,0,.2,0,.1,0,.2.2.3.3,0,.2.2.4.3.6,0,.2.2.5.3.7,0,.3.2.5.3.7,0,.2.2.4.3.5,0,.1.2.2.3.2s.2,0,.3-.2c0-.1.2-.3.3-.5,0-.2.2-.4.3-.6,0-.2.2-.5.2-.7,0-.2.2-.4.2-.6,0-.2.1-.3.2-.4.1-.1.3-.2.4-.2.2,0,.3,0,.5,0s.3,0,.4,0c.1,0,.2.2.3.3,0,.2.2.4.2.6,0,.2,0,.5.1.7,0,.2,0,.5,0,.7,0,.2,0,.5,0,.7s0,.2,0,.3c0,0,0,.2,0,.3,0,.2,0,.4,0,.7,0,.3,0,.5,0,.8,0,.3,0,.5-.2.7,0,.2-.2.4-.3.6-.1.1-.2.2-.4.2-.1,0-.3,0-.4,0-.2,0-.4,0-.5-.2,0-.1-.1-.3-.1-.5,0-.4,0-.7,0-1.1,0-.4,0-.7,0-1.1s0-.1,0-.2c0,0,0-.1,0-.2,0,0-.1,0-.2.1,0,0,0,.2-.1.3,0,.1,0,.3-.1.4,0,.2-.1.3-.2.4,0,.1-.2.3-.4.3-.2,0-.4.1-.6.1s-.4,0-.5-.1c-.1,0-.3-.2-.4-.3,0-.1-.2-.3-.2-.4,0-.2-.1-.3-.2-.4,0-.1,0-.2-.1-.3,0,0,0-.1-.2-.1,0,0,0,0,0,.1,0,0,0,.2,0,.3,0,.1,0,.2,0,.3v.2c0,.3,0,.5,0,.8,0,.3,0,.5,0,.8h0Z"/>
      <path class="cls-2" d="M98,83.6c0,.3.2.5.5.5s.5,0,.8,0c.3,0,.5,0,.8,0s.4,0,.5.1c0,0,0,.2,0,.5s0,.4-.1.5c-.1.1-.2.2-.4.3-.2,0-.3.1-.5.1-.2,0-.3,0-.5,0s-.3,0-.5,0c-.2,0-.4,0-.5,0-.2,0-.4,0-.5,0-.2,0-.3,0-.5-.1-.4-.1-.6-.4-.7-.6-.1-.3-.2-.6-.2-1,0-.2,0-.5,0-.7,0-.2,0-.5,0-.7s0-.4,0-.6c0-.2,0-.4,0-.6,0-.6,0-1.1.2-1.4.1-.3.3-.6.6-.7.3-.2.6-.2,1-.3.4,0,.9,0,1.4,0s.4,0,.7,0c.2,0,.4.2.6.3,0,0,.1.2.2.3,0,.1,0,.3,0,.4s0,.2,0,.2c0,0-.1,0-.2.1,0,0-.2,0-.3,0-.1,0-.2,0-.3,0-.2,0-.3,0-.5,0-.2,0-.3,0-.5,0s-.3,0-.4,0c-.1,0-.2,0-.3,0,0,0-.1,0-.1.2,0,0,0,.2,0,.4s0,.2,0,.3c0,0,.1.1.2.1,0,0,.2,0,.3,0s.2,0,.3,0c.1,0,.3,0,.4,0,.1,0,.3,0,.4,0s.2,0,.4,0c.1,0,.2,0,.3.2,0,0,0,.2,0,.3,0,.1,0,.2,0,.3s0,.1,0,.2,0,.1,0,.2c0,0-.1.1-.3.1-.1,0-.3,0-.4,0-.2,0-.3,0-.4,0-.1,0-.3,0-.3,0h-.2c0,0-.2,0-.3,0,0,0-.2,0-.2,0,0,0-.1,0-.2,0,0,0,0,0,0,.1,0,0,0,0,0,.1,0,0,0,.1,0,.2,0,0,0,.1,0,.2h0Z"/>
      <path class="cls-2" d="M105.2,84.8c0,.1,0,.2,0,.3,0,0,0,.2,0,.3,0,0,0,.1-.2.2,0,0-.2,0-.3,0s-.3,0-.4,0c-.1,0-.2,0-.4,0-.1,0-.2-.1-.3-.3,0-.2-.1-.3-.2-.6,0-.2,0-.5-.1-.7,0-.3,0-.5,0-.7,0-.2,0-.5,0-.7v-.4c0-.3,0-.7,0-1,0-.3,0-.7.1-1,0,0,0-.2,0-.2,0,0,0-.2,0-.3,0,0,0-.2.1-.2,0,0,0-.1.1-.2.1,0,.3-.2.5-.2s.4,0,.6-.1c.2,0,.4,0,.7,0,.2,0,.4,0,.5,0,.3,0,.6,0,1,.1.3,0,.6.2.9.4.3.2.5.4.6.7.2.3.2.6.2.9s0,.3,0,.4c0,.1,0,.2-.1.3-.1.2-.2.3-.4.5-.1.1-.3.3-.5.4,0,0,0,0-.1,0,0,0,0,0,0,0s0,0,0,0c0,0,0,0,.1.1,0,0,0,0,.1.1h0c0,.2.1.3.2.5,0,.2.2.4.2.6,0,.2.1.4.2.6s0,.4,0,.5,0,.1-.2.2c-.1,0-.2,0-.4.1-.1,0-.3,0-.4,0-.1,0-.2,0-.3,0-.2,0-.4,0-.5-.2-.1-.1-.2-.3-.2-.4,0-.2-.1-.4-.2-.6,0-.2-.1-.4-.2-.6,0-.2-.2-.3-.3-.4-.1-.1-.4-.2-.6-.2s-.1,0-.1,0c0,0,0,.1,0,.2,0,0,0,.2,0,.3,0,0,0,.2,0,.2,0,.1,0,.2,0,.3,0,.1,0,.2,0,.4h0ZM105.2,81.4c0,0,0,.2,0,.3,0,.1.1.2.2.2.2,0,.3,0,.5,0,.2,0,.3,0,.4-.1.1,0,.2-.2.3-.3,0-.1.1-.3.1-.5s0-.2,0-.3c0-.1-.1-.2-.2-.3,0,0-.2-.1-.3-.2-.1,0-.2,0-.3,0h-.3c-.1,0-.2,0-.3.1,0,0,0,.2,0,.3v.8h0Z"/>
      <path class="cls-2" d="M113.7,80.2c-.2,0-.3,0-.5.1-.1,0-.2.2-.2.4s0,.3.2.4c.2.1.3.2.6.3.2,0,.5.2.7.3.3,0,.5.2.7.4.2.1.4.3.6.6.2.2.2.5.2.9s0,.7-.2.9c-.1.3-.3.5-.6.7-.2.2-.5.3-.8.4-.3.1-.6.2-1,.2s-.6,0-.9,0c-.3,0-.5-.1-.7-.2-.2-.1-.4-.3-.5-.5-.1-.2-.2-.5-.2-.9s0,0,0-.1c0,0,0,0,0,0,.1,0,.3,0,.4,0,.1,0,.3,0,.4.1.2,0,.4,0,.5.1.2,0,.4,0,.5,0s.2,0,.3,0c0,0,.2,0,.3,0,0,0,.1-.1.2-.2,0,0,0-.2,0-.3s0-.2,0-.3c0,0,0-.1-.2-.2-.1,0-.2-.2-.4-.2-.1,0-.3,0-.4-.1-.2,0-.5-.2-.7-.3-.2-.1-.5-.3-.7-.4-.2-.2-.4-.4-.5-.6-.1-.2-.2-.5-.2-.7s0-.7.2-.9c.2-.3.4-.5.6-.7.2-.2.5-.3.8-.4.3,0,.6-.1.9-.1s.6,0,.8,0c.3,0,.5,0,.7.2.2,0,.4.2.5.4.1.2.2.5.2.9s0,.2-.2.2-.3,0-.4,0c-.1,0-.3,0-.4,0-.2,0-.3,0-.5-.1-.2,0-.4,0-.5,0h0Z"/>
      <path class="cls-2" d="M104.3,50.5l-.7-2.7c-.2-.6-.7-.9-1.3-.8l-.8.2-9.8,2.6c-.6.2-.9.7-.8,1.3l.7,2.7c.2.6.7.9,1.3.8l2.4-.6c.3,0,.6.1.7.4,0,0,0,.1,0,.2l1.1,3.1c0,.2,0,.5-.2.5-3.9,1.4-8.3-.1-9.9-3.7-1.7-3.8.2-8.3,4.3-10.1,1.5-.7,3.1-.9,4.6-.7.2,0,.4,0,.6.1,0,0,0,0,0,0,1.1.2,2-.5,2.2-1.6l.4-2.5c.2-1.1-.5-2.1-1.6-2.2h-.3c0,0,0,0,0,0-2.8-.4-5.7,0-8.5,1.3-1.2.5-2.2,1.2-3.2,1.9-5.2,4-7.3,10.8-4.7,16.7,2.9,6.3,10.4,9.3,17.4,7,.3-.1.7-.2,1-.3v.2c0,0,.8,2,.8,2,.3,1,1.4,1.5,2.4,1.2l3.2-1.1c1-.3,1.5-1.4,1.2-2.4,0,0-2.3-12.8-2.5-13.4h0Z"/>
      <path class="cls-2" d="M77.6,52.7h0c-.3-5.9-5.1-10.5-11.1-10.5s-5,.9-6.8,2.3c-2.1-2.2-5-3.6-8.3-3.6s-5.8,1.2-7.9,3.1l-4.2-2.4c-1.2-.7-2.7-.3-3.4.9l-1.9,3.2c-.7,1.2-.3,2.7.9,3.4l4,2.3-2.3,4.4c-.6,1.2-.2,2.7,1.1,3.3l5.1,2.7c.8.4,1.6.4,2.3,0,.4-.2.8-.6,1-1l3.9-7.4h0c.6-1.1,2-1.5,3.3-.4,0,0,.1.2.2.3,0,.5.1.8.1,1,0,0,0,0,0,0l-.5,5.6c-.1,1.4.9,2.6,2.2,2.7h.6c0,0,0,0,0,0l4.9.5c.4,0,.7,0,1-.1.9-.3,1.6-1.1,1.7-2.1l.7-7.3h0c0-1,.9-1.8,1.9-1.8s1.8.7,1.9,1.7l.7,6.6c.1,1.4,1.4,2.4,2.7,2.2h1.3c0-.1,3.3-.5,3.3-.5,1.4-.1,2.4-1.4,2.2-2.7l-.7-6.6h0Z"/>
      <path class="cls-2" d="M149.9,53.8h0c-.3-5.9-5.1-10.5-11.1-10.5s-5,.9-6.9,2.4c-2.1-2.2-5.1-3.6-8.3-3.6s-5.8,1.2-7.9,3.1l-2.5-1.4c-1.2-.7-2.7-.3-3.4.9l-1.9,3.2c-.7,1.2-.3,2.7.9,3.4l2.3,1.3-2.3,4.4c-.6,1.2-.2,2.7,1.1,3.3l5.1,2.7c.7.4,1.6.4,2.3,0,.4-.2.8-.6,1.1-1.1l3.9-7.4s0,0,0,0c0,0,0-.2.1-.2,0,0,0,0,0,0,.5-.9,1.8-1.3,2.9-.5.3.2.4.5.5.8,0,.4.1.6,0,.8h0c0,0-.5,5.7-.5,5.7-.1,1.4.9,2.6,2.2,2.7h.6c0,0,5,.5,5,.5.4,0,.7,0,1-.1.9-.3,1.6-1.1,1.7-2.1l.7-7.2c0-.1,0-.2,0-.3.2-.9.9-1.6,1.9-1.6s1.7.7,1.9,1.6c0,0,0,.1,0,.2l.7,6.5c.1,1.4,1.4,2.4,2.7,2.2h1.3c0-.1,3.3-.5,3.3-.5,1.4-.1,2.4-1.4,2.2-2.7l-.7-6.6Z"/>
      <path class="cls-2" d="M73.1,38.6c.8-1.4.3-3.2-1.2-4-1.4-.8-3.2-.3-4,1.1-.8,1.4-.3,3.2,1.2,4,1.4.8,3.2.3,4-1.1Z"/>
      <path class="cls-2" d="M78.2,42.3c1.5-.7,2.2-2.4,1.5-3.9-.7-1.5-2.4-2.2-3.9-1.5-1.5.7-2.2,2.4-1.5,3.9.7,1.5,2.4,2.2,3.9,1.5Z"/>
      <path class="cls-2" d="M108.5,41.1c1-1.3.8-3.1-.5-4.2-1.3-1-3.1-.8-4.2.5-1,1.3-.8,3.1.5,4.2,1.3,1,3.1.8,4.2-.5Z"/>
      <path class="cls-2" d="M113.4,41.3c1.6-.2,2.8-1.6,2.6-3.3-.2-1.6-1.7-2.8-3.3-2.6-1.6.2-2.8,1.6-2.6,3.3.2,1.6,1.7,2.8,3.3,2.6Z"/>
      <line class="cls-1" x1="0" y1="7.5" x2="1320" y2="8.5"/>
      <rect class="cls-2" y="0" width="15" height="102"/>
      <rect class="cls-2" x="1305" y="1" width="15" height="177"/>
    </g>
  </g>
</svg>