<svg width="369" height="162" viewBox="0 0 369 162" fill="none" xmlns="http://www.w3.org/2000/svg">
<path d="M253.168 61.2468C253.168 61.9137 253.123 62.4548 253.036 62.8699C252.948 63.2851 252.787 63.6053 252.552 63.8305C252.317 64.0558 251.988 64.2082 251.567 64.2899C251.147 64.3716 250.598 64.4135 249.922 64.4135C249.361 64.4135 248.821 64.3097 248.3 64.1C247.781 63.8902 247.324 63.6009 246.935 63.2299C246.543 62.8589 246.232 62.4261 246.001 61.927C245.771 61.4301 245.655 60.8957 245.655 60.3259C245.655 59.7275 245.76 59.1688 245.972 58.652C246.185 58.1353 246.48 57.6892 246.859 57.3116C247.237 56.934 247.687 56.638 248.208 56.4238C248.727 56.2096 249.296 56.1036 249.909 56.1036C250.122 56.1036 250.343 56.1036 250.574 56.0992C250.804 56.0948 251.035 56.108 251.263 56.139C251.491 56.1699 251.702 56.2295 251.901 56.3178C252.098 56.4084 252.261 56.5541 252.391 56.7551C252.483 56.8832 252.541 57.0422 252.568 57.2321C252.595 57.422 252.608 57.5942 252.608 57.7422C252.608 57.8703 252.583 57.9564 252.534 58.0006C252.485 58.0447 252.391 58.069 252.254 58.069C251.943 58.069 251.648 58.0315 251.366 57.9564C251.084 57.8813 250.782 57.8438 250.455 57.8438C249.62 57.8438 249.014 58.0447 248.636 58.4444C248.255 58.8442 248.067 59.4492 248.067 60.2575C248.067 60.6174 248.11 60.9443 248.197 61.2402C248.284 61.5361 248.418 61.7901 248.602 62.0043C248.783 62.2185 249.016 62.3797 249.296 62.4923C249.576 62.6049 249.907 62.6601 250.285 62.6601C250.46 62.6601 250.587 62.6403 250.672 62.5983C250.755 62.5563 250.815 62.4967 250.849 62.4194C250.883 62.3399 250.9 62.245 250.9 62.1323V61.7613C250.9 61.5074 250.867 61.3131 250.797 61.1783C250.73 61.0436 250.547 60.9752 250.251 60.9752C250.213 60.9752 250.173 60.9752 250.133 60.9818C250.09 60.9862 250.043 60.9884 249.99 60.9884C249.746 60.9884 249.578 60.92 249.484 60.7809C249.39 60.6417 249.341 60.4606 249.341 60.2354C249.341 59.913 249.408 59.6745 249.546 59.5177C249.683 59.3609 249.922 59.2814 250.263 59.2814C250.392 59.2814 250.518 59.2858 250.639 59.2924C250.759 59.2991 250.885 59.3035 251.015 59.3035C251.205 59.3035 251.393 59.3035 251.583 59.3101C251.773 59.3167 251.961 59.3234 252.151 59.3388C252.431 59.3609 252.646 59.4316 252.794 59.5464C252.942 59.6634 253.042 59.8622 253.096 60.1471C253.134 60.3259 253.154 60.5092 253.159 60.6969C253.163 60.8846 253.165 61.0679 253.165 61.2468H253.168Z" fill="#F58220"/>
<path d="M257.496 64.2324C257.315 64.2324 257.142 64.2324 256.983 64.2258C256.825 64.2214 256.684 64.1927 256.563 64.1353C256.442 64.0801 256.346 63.9895 256.278 63.8658C256.211 63.7422 256.176 63.5677 256.176 63.3447C256.176 63.1503 256.22 62.8611 256.312 62.4746C256.404 62.0881 256.52 61.6531 256.666 61.1673C256.809 60.6815 256.975 60.1757 257.16 59.6524C257.346 59.129 257.536 58.641 257.729 58.1861C257.921 57.7333 258.111 57.3403 258.297 57.0068C258.483 56.6734 258.651 56.4591 258.803 56.362C258.933 56.2714 259.06 56.2206 259.19 56.2052C259.32 56.1897 259.459 56.1831 259.611 56.1831C259.862 56.1831 260.065 56.2074 260.226 56.256C260.385 56.3046 260.549 56.4304 260.716 56.6314C260.831 56.7727 260.969 57.0156 261.133 57.3557C261.296 57.6958 261.464 58.0867 261.639 58.5283C261.813 58.97 261.985 59.4404 262.156 59.9372C262.326 60.4363 262.48 60.9133 262.617 61.3682C262.753 61.8254 262.863 62.2361 262.946 62.6027C263.028 62.9693 263.071 63.2497 263.071 63.4441C263.071 63.6384 263.015 63.7996 262.905 63.9056C262.796 64.0094 262.661 64.0889 262.502 64.1419C262.344 64.1949 262.173 64.2236 261.99 64.2324C261.809 64.2391 261.645 64.2435 261.5 64.2435C261.271 64.2435 261.119 64.2059 261.039 64.1308C260.958 64.0558 260.909 63.963 260.891 63.8504C260.873 63.7378 260.862 63.6185 260.862 63.4904C260.862 63.3623 260.826 63.2431 260.755 63.1305C260.683 63.0178 260.546 62.9251 260.349 62.85C260.152 62.7749 259.853 62.7374 259.45 62.7374C259.116 62.7374 258.875 62.7749 258.727 62.85C258.579 62.9251 258.478 63.0178 258.425 63.1305C258.371 63.2431 258.346 63.3601 258.346 63.4838C258.346 63.6075 258.329 63.7245 258.295 63.8371C258.261 63.9498 258.188 64.0425 258.073 64.1176C257.959 64.1927 257.767 64.2302 257.494 64.2302L257.496 64.2324ZM259.772 61.0878C259.886 61.0878 259.982 61.0569 260.063 60.9928C260.144 60.9288 260.182 60.8338 260.182 60.7057C260.182 60.6373 260.164 60.4982 260.126 60.284C260.088 60.0697 260.043 59.8489 259.989 59.6148C259.935 59.383 259.875 59.1754 259.808 58.9921C259.738 58.8088 259.667 58.716 259.591 58.716C259.537 58.716 259.477 58.8088 259.409 58.9921C259.342 59.1754 259.277 59.3852 259.217 59.6215C259.157 59.8577 259.107 60.083 259.069 60.3016C259.031 60.518 259.013 60.6572 259.013 60.7168C259.013 60.8736 259.067 60.9752 259.172 61.0193C259.277 61.0635 259.396 61.0856 259.526 61.0856H259.777L259.772 61.0878Z" fill="#F58220"/>
<path d="M268.344 63.4242C268.344 63.6937 268.299 63.8946 268.212 64.0315C268.124 64.1662 267.932 64.2347 267.636 64.2347C267.5 64.2347 267.366 64.2281 267.231 64.217C267.099 64.206 266.972 64.1662 266.851 64.1C266.73 64.0337 266.625 63.9056 266.538 63.7179C266.45 63.5302 266.381 63.3116 266.327 63.0621C266.273 62.8125 266.233 62.5453 266.202 62.2649C266.17 61.9844 266.15 61.7062 266.139 61.4345C266.128 61.1607 266.121 60.9112 266.117 60.6815C266.112 60.454 266.112 60.2752 266.112 60.1471C266.112 59.9439 266.117 59.6988 266.123 59.4051C266.13 59.1136 266.15 58.8088 266.179 58.4953C266.211 58.1817 266.249 57.8791 266.298 57.5921C266.347 57.305 266.41 57.0731 266.486 56.9009C266.553 56.7816 266.632 56.6734 266.719 56.5762C266.806 56.4791 266.918 56.4106 267.055 56.3731C267.175 56.3355 267.301 56.309 267.43 56.2936C267.56 56.2781 267.688 56.2715 267.818 56.2715C267.909 56.2715 267.999 56.2781 268.091 56.2936C268.182 56.309 268.27 56.3355 268.353 56.3731C268.482 56.4261 268.603 56.5564 268.717 56.7662C268.831 56.9759 268.943 57.2189 269.053 57.4949C269.163 57.7709 269.27 58.0646 269.378 58.376C269.483 58.6874 269.586 58.9723 269.684 59.2351C269.783 59.4978 269.886 59.712 269.991 59.8799C270.096 60.0477 270.199 60.1316 270.297 60.1316C270.434 60.1316 270.559 60.0565 270.673 59.9064C270.788 59.7562 270.899 59.5663 271.009 59.3344C271.119 59.1026 271.226 58.8442 271.327 58.5593C271.43 58.2744 271.528 58.0006 271.622 57.7334C271.716 57.4684 271.808 57.2277 271.895 57.0157C271.983 56.8015 272.068 56.6513 272.15 56.5608C272.294 56.3952 272.475 56.3068 272.69 56.2914C272.907 56.2759 273.113 56.2693 273.31 56.2693C273.507 56.2693 273.695 56.3068 273.851 56.3819C274.006 56.457 274.131 56.5873 274.221 56.775C274.341 56.9914 274.433 57.2343 274.494 57.5037C274.554 57.7732 274.599 58.0492 274.63 58.3341C274.662 58.6189 274.679 58.9038 274.686 59.1865C274.693 59.4713 274.697 59.7363 274.697 59.9837C274.697 60.1118 274.697 60.2354 274.702 60.3547C274.706 60.4739 274.709 60.5976 274.709 60.7257C274.709 60.9509 274.702 61.2115 274.691 61.5118C274.679 61.8122 274.653 62.1147 274.61 62.4217C274.568 62.7286 274.503 63.0179 274.411 63.2851C274.319 63.5545 274.198 63.7798 274.046 63.9586C273.916 64.1088 273.775 64.1883 273.619 64.1994C273.464 64.2104 273.287 64.217 273.09 64.217C272.808 64.217 272.625 64.153 272.538 64.0271C272.45 63.899 272.406 63.7047 272.406 63.4441C272.406 63.0179 272.412 62.5917 272.428 62.1699C272.444 61.7481 272.45 61.3219 272.45 60.8957C272.45 60.8052 272.441 60.7257 272.421 60.655C272.403 60.5843 272.381 60.507 272.359 60.4253C272.267 60.4253 272.195 60.4805 272.142 60.5888C272.088 60.697 272.034 60.8339 271.983 60.9995C271.929 61.1651 271.868 61.344 271.801 61.5383C271.734 61.7327 271.64 61.9137 271.522 62.0772C271.403 62.2428 271.251 62.3775 271.061 62.4879C270.87 62.5961 270.629 62.6513 270.333 62.6513C270.067 62.6513 269.848 62.5961 269.673 62.4879C269.498 62.3797 269.353 62.245 269.234 62.0838C269.116 61.9226 269.019 61.7437 268.943 61.545C268.867 61.3462 268.802 61.1673 268.751 61.0061C268.697 60.8449 268.646 60.7102 268.597 60.602C268.547 60.4938 268.485 60.4386 268.409 60.4386C268.377 60.4607 268.355 60.5203 268.339 60.6175C268.323 60.7146 268.312 60.825 268.306 60.9487C268.299 61.0724 268.294 61.1894 268.294 61.302V61.5383C268.294 61.8519 268.301 62.1655 268.312 62.4769C268.323 62.7882 268.33 63.104 268.33 63.4264L268.344 63.4242Z" fill="#F58220"/>
<path d="M280.25 61.9092C280.25 62.3133 280.462 62.5165 280.888 62.5165C281.214 62.5165 281.537 62.5121 281.855 62.4988C282.172 62.4878 282.495 62.4812 282.821 62.4812C283.11 62.4812 283.291 62.532 283.367 62.6335C283.444 62.7351 283.482 62.9162 283.482 63.179C283.482 63.4197 283.421 63.614 283.3 63.762C283.179 63.9122 283.025 64.027 282.839 64.1109C282.653 64.1926 282.452 64.2478 282.235 64.2743C282.018 64.3008 281.816 64.3141 281.626 64.3141C281.42 64.3141 281.21 64.3141 280.988 64.3185C280.769 64.3229 280.548 64.3185 280.328 64.3074C280.109 64.2964 279.892 64.2721 279.679 64.2346C279.467 64.197 279.263 64.1418 279.064 64.0667C278.638 63.8945 278.348 63.6427 278.193 63.3137C278.036 62.9847 277.945 62.6026 277.913 62.1676C277.898 61.8827 277.887 61.6023 277.88 61.3262C277.873 61.0502 277.869 60.7675 277.869 60.4848C277.869 60.253 277.869 60.0255 277.864 59.8003C277.86 59.575 277.857 59.3476 277.857 59.1157C277.857 58.3891 277.938 57.8282 278.101 57.4307C278.265 57.0332 278.506 56.744 278.829 56.5607C279.151 56.3774 279.552 56.2714 280.028 56.2405C280.505 56.2095 281.06 56.1963 281.689 56.1963C281.946 56.1963 282.219 56.2294 282.508 56.2979C282.797 56.3663 283.036 56.501 283.224 56.702C283.329 56.8146 283.401 56.9493 283.435 57.1061C283.468 57.2629 283.486 57.4197 283.486 57.5787C283.486 57.6979 283.446 57.7907 283.367 57.8547C283.289 57.9188 283.188 57.9674 283.072 58.0005C282.953 58.0336 282.83 58.0535 282.703 58.0557C282.575 58.0579 282.468 58.0601 282.385 58.0601C282.188 58.0601 281.993 58.0513 281.805 58.0314C281.615 58.0137 281.427 58.0027 281.237 58.0027C281.069 58.0027 280.923 58.0071 280.798 58.0137C280.673 58.0204 280.57 58.0469 280.492 58.0932C280.413 58.1396 280.353 58.2125 280.315 58.3185C280.277 58.4223 280.259 58.5702 280.259 58.7557C280.259 58.8971 280.297 59.0075 280.373 59.087C280.449 59.1665 280.543 59.2261 280.657 59.2658C280.771 59.3056 280.894 59.3321 281.026 59.3387C281.158 59.3454 281.275 59.3498 281.373 59.3498C281.548 59.3498 281.72 59.3454 281.89 59.3321C282.06 59.3211 282.237 59.3144 282.418 59.3144C282.562 59.3144 282.712 59.3321 282.868 59.3696C283.023 59.4072 283.15 59.4867 283.249 59.6059C283.309 59.681 283.343 59.787 283.352 59.9261C283.358 60.0653 283.363 60.1779 283.363 60.2684C283.363 60.3501 283.356 60.4341 283.341 60.5158C283.325 60.5975 283.298 60.6681 283.26 60.73C283.206 60.805 283.103 60.8625 282.947 60.9044C282.79 60.9464 282.62 60.9729 282.434 60.9839C282.248 60.995 282.067 60.9994 281.893 60.995C281.718 60.9906 281.586 60.9905 281.494 60.9905H281.239C281.136 60.9905 281.033 60.9906 280.932 60.995C280.83 60.9994 280.731 61.0126 280.637 61.0347C280.543 61.0568 280.469 61.0899 280.415 61.1363C280.377 61.1738 280.348 61.2158 280.33 61.26C280.313 61.3041 280.295 61.3571 280.279 61.4168C280.263 61.4985 280.254 61.5802 280.25 61.6575C280.245 61.737 280.243 61.8209 280.243 61.9092H280.25Z" fill="#F58220"/>
<path d="M289.003 63.3005C289.003 63.4286 288.996 63.5501 288.985 63.6649C288.974 63.7819 288.947 63.8813 288.904 63.9674C288.862 64.0536 288.797 64.122 288.705 64.175C288.613 64.228 288.486 64.2545 288.318 64.2545C288.166 64.2545 288.013 64.2501 287.864 64.2369C287.711 64.2258 287.564 64.1861 287.42 64.1198C287.284 64.0668 287.17 63.9454 287.08 63.7554C286.988 63.5655 286.915 63.3359 286.859 63.0709C286.803 62.8059 286.76 62.5188 286.733 62.2118C286.706 61.9049 286.689 61.609 286.682 61.3241C286.675 61.0392 286.671 60.7786 286.671 60.5379V59.9991C286.671 59.595 286.682 59.1953 286.704 58.7978C286.727 58.4003 286.769 58.0072 286.83 57.6185C286.845 57.528 286.863 57.4352 286.886 57.3381C286.908 57.2409 286.937 57.1393 286.971 57.0355C287.004 56.9317 287.049 56.8324 287.103 56.744C287.156 56.6535 287.212 56.5784 287.273 56.5188C287.402 56.415 287.586 56.3311 287.825 56.2715C288.065 56.2118 288.318 56.1677 288.589 56.1368C288.859 56.1058 289.124 56.0904 289.385 56.086C289.647 56.0815 289.864 56.0815 290.039 56.0815C290.433 56.0815 290.824 56.1367 291.212 56.2494C291.599 56.362 291.948 56.5298 292.259 56.7551C292.57 56.9803 292.823 57.2586 293.015 57.592C293.208 57.9255 293.306 58.3053 293.306 58.7315C293.306 58.8883 293.291 59.0363 293.262 59.1754C293.23 59.3145 293.174 59.4514 293.092 59.5861C292.962 59.7805 292.814 59.9616 292.648 60.1316C292.483 60.3016 292.299 60.4474 292.102 60.5755C292.08 60.5909 292.035 60.6196 291.973 60.6594C291.908 60.7013 291.876 60.7367 291.876 60.7654C291.876 60.7875 291.894 60.8206 291.932 60.867C291.97 60.9111 292.013 60.9575 292.058 61.0017C292.102 61.0458 292.147 61.09 292.19 61.132L292.275 61.2159C292.357 61.313 292.454 61.4787 292.559 61.7105C292.664 61.9424 292.765 62.1942 292.861 62.4636C292.957 62.733 293.036 62.9914 293.1 63.2387C293.165 63.486 293.197 63.6759 293.197 63.8107C293.197 63.9078 293.132 63.9873 293.004 64.0469C292.874 64.1066 292.727 64.1529 292.561 64.1883C292.395 64.2236 292.228 64.2435 292.06 64.2567C291.892 64.2678 291.776 64.2744 291.706 64.2744C291.456 64.2744 291.265 64.2059 291.138 64.0668C291.008 63.9277 290.907 63.7532 290.836 63.5457C290.764 63.3359 290.704 63.1106 290.654 62.8721C290.605 62.6336 290.531 62.4106 290.433 62.203C290.334 61.9976 290.198 61.8254 290.023 61.6863C289.849 61.5471 289.598 61.4787 289.271 61.4787C289.204 61.4787 289.146 61.5184 289.101 61.5957C289.056 61.673 289.025 61.7702 289.009 61.8828C288.994 61.9954 288.985 62.1058 288.98 62.214C288.976 62.3222 288.974 62.404 288.974 62.4547C288.974 62.5895 288.98 62.7286 288.991 62.8699C289.003 63.0112 289.009 63.1592 289.009 63.3072L289.003 63.3005ZM288.98 59.3145C288.98 59.4271 288.998 59.5464 289.032 59.6745C289.065 59.8026 289.155 59.8644 289.298 59.8644C289.511 59.8644 289.717 59.8556 289.918 59.8357C290.119 59.818 290.296 59.7694 290.446 59.6943C290.598 59.6193 290.719 59.5066 290.811 59.3587C290.903 59.2085 290.948 59.0031 290.948 58.7404C290.948 58.5902 290.914 58.4533 290.845 58.3296C290.775 58.2059 290.686 58.1021 290.572 58.016C290.457 57.9299 290.33 57.8637 290.191 57.8195C290.052 57.7753 289.911 57.751 289.775 57.751H289.432C289.258 57.751 289.139 57.8084 289.074 57.9255C289.009 58.0425 288.978 58.175 288.978 58.323V59.3101L288.98 59.3145Z" fill="#F58220"/>
<path d="M299.282 57.8106C299.069 57.8106 298.875 57.8548 298.696 57.9453C298.516 58.0359 298.429 58.1993 298.429 58.44C298.429 58.6343 298.523 58.7933 298.709 58.917C298.895 59.0407 299.125 59.1533 299.403 59.2527C299.68 59.3542 299.98 59.4625 300.302 59.5773C300.625 59.6943 300.925 59.8401 301.202 60.0145C301.48 60.1912 301.71 60.4164 301.896 60.6947C302.082 60.9707 302.176 61.3197 302.176 61.7392C302.176 62.1588 302.091 62.532 301.92 62.8611C301.75 63.1901 301.522 63.4706 301.238 63.7024C300.954 63.9343 300.629 64.1132 300.264 64.2413C299.9 64.3693 299.517 64.4312 299.114 64.4312C298.711 64.4312 298.362 64.4113 298.022 64.3693C297.682 64.3274 297.382 64.239 297.129 64.0999C296.874 63.9608 296.672 63.7554 296.52 63.4816C296.368 63.2078 296.292 62.8434 296.292 62.3863C296.292 62.3333 296.299 62.2847 296.314 62.2405C296.33 62.1964 296.368 62.1721 296.428 62.1721C296.603 62.1721 296.782 62.203 296.963 62.2626C297.145 62.3222 297.319 62.3796 297.487 62.4304C297.7 62.4901 297.912 62.5475 298.125 62.5983C298.337 62.6513 298.557 62.6778 298.785 62.6778C298.89 62.6778 299.002 62.6689 299.114 62.6491C299.228 62.6314 299.331 62.5938 299.421 62.5431C299.512 62.4901 299.588 62.4216 299.653 62.3355C299.718 62.2494 299.75 62.1434 299.75 62.0153C299.75 61.896 299.729 61.79 299.687 61.7017C299.644 61.6111 299.575 61.5339 299.477 61.4654C299.333 61.3528 299.174 61.2755 299.004 61.2357C298.834 61.196 298.662 61.1518 298.487 61.1077C298.199 61.0259 297.908 60.9089 297.617 60.7587C297.324 60.6086 297.062 60.4297 296.827 60.2199C296.592 60.0101 296.399 59.7694 296.252 59.4956C296.104 59.2217 296.03 58.9236 296.03 58.6034C296.03 58.1772 296.122 57.8084 296.31 57.4971C296.496 57.1857 296.737 56.9251 297.037 56.7109C297.337 56.4967 297.675 56.3399 298.049 56.2383C298.425 56.1367 298.805 56.0859 299.192 56.0859C299.548 56.0859 299.891 56.0948 300.217 56.1146C300.544 56.1323 300.831 56.1986 301.077 56.3112C301.323 56.4238 301.52 56.6027 301.668 56.85C301.815 57.0973 301.889 57.4418 301.889 57.8835C301.889 58.0778 301.791 58.175 301.594 58.175C301.419 58.175 301.245 58.1551 301.07 58.1132C300.895 58.0734 300.725 58.0337 300.558 57.9961C300.352 57.9431 300.141 57.899 299.926 57.8614C299.709 57.8239 299.497 57.8062 299.284 57.8062L299.282 57.8106Z" fill="#F58220"/>
<path d="M287.879 22.1551L287.006 18.9508C286.82 18.264 286.1 17.8555 285.404 18.041L284.417 18.3016L272.58 21.4374C271.882 21.6251 271.468 22.3317 271.658 23.0207L272.526 26.2228C272.712 26.9096 273.433 27.3203 274.129 27.1326L276.987 26.3752C277.354 26.278 277.718 26.5077 277.806 26.872C277.824 26.9471 277.846 27.02 277.871 27.0929L279.171 30.8205C279.258 31.0723 279.128 31.3616 278.876 31.4543C274.124 33.179 268.887 31.2798 266.916 26.9891C264.843 22.4775 267.162 17.0296 272.094 14.8235C273.921 14.0064 275.852 13.748 277.665 13.9799C277.927 14.0086 278.188 14.0528 278.446 14.1102C278.457 14.1102 278.464 14.1102 278.475 14.1146C279.748 14.3155 280.95 13.4676 281.169 12.211L281.682 9.26512C281.901 7.99755 281.04 6.79843 279.757 6.57981L279.339 6.50693C279.323 6.50252 279.305 6.50473 279.29 6.50031C275.937 6.05423 272.361 6.52018 268.975 8.03509C267.578 8.66004 266.298 9.42633 265.141 10.3074C258.825 15.1194 256.289 23.3255 259.497 30.3038C262.997 37.9225 272.119 41.4271 280.603 38.7484C281.002 38.6225 281.393 38.4856 281.785 38.3332L281.886 38.6225L282.716 41.0009C283.128 42.1801 284.433 42.8073 285.625 42.4009L289.484 41.0892C290.677 40.6829 291.314 39.3998 290.9 38.2206C290.9 38.2206 288.058 22.8352 287.872 22.1485L287.879 22.1551Z" fill="#F58220"/>
<path d="M255.649 24.8139V24.8073C255.325 17.7826 249.448 12.1867 242.248 12.1867C239.128 12.1867 236.257 13.2357 233.981 14.9979C231.452 12.37 227.876 10.7336 223.912 10.7336C220.206 10.7336 216.838 12.1646 214.349 14.4988L209.246 11.5905C207.805 10.769 205.961 11.257 205.128 12.6792L202.861 16.557C202.029 17.9791 202.523 19.7988 203.965 20.6203L208.801 23.3741L205.99 28.6873C205.22 30.1448 205.793 31.9423 207.268 32.7042L213.494 35.9085C214.407 36.3811 215.452 36.3435 216.298 35.9018C216.822 35.6302 217.267 35.2062 217.561 34.6497L222.287 25.7105L222.357 25.578C223.042 24.4009 224.767 23.8842 226.293 25.2688C226.405 25.3704 226.475 25.5095 226.499 25.6575C226.609 26.3089 226.658 26.5916 226.627 26.872C226.627 26.9029 226.625 26.9339 226.618 26.967L225.971 33.7244C225.814 35.3608 227.034 36.8117 228.693 36.9663L229.362 37.0281H229.404L235.369 37.589C235.809 37.631 236.237 37.5758 236.631 37.441C237.716 37.0723 238.538 36.1072 238.654 34.9037L239.5 26.0837L239.509 25.971C239.623 24.8293 240.599 23.9416 241.787 23.9416C242.976 23.9416 243.947 24.8293 244.065 25.971L244.896 33.868C245.068 35.5021 246.547 36.6902 248.206 36.5202L249.804 36.3568L253.787 35.9504C255.446 35.7804 256.648 34.3163 256.477 32.6843L255.652 24.8161L255.649 24.8139Z" fill="#F58220"/>
<path d="M343.102 26.1278V26.1212C342.778 19.0966 336.901 13.5007 329.703 13.5007C326.57 13.5007 323.69 14.5585 321.407 16.334C318.873 13.6928 315.288 12.0476 311.316 12.0476C307.623 12.0476 304.264 13.4698 301.775 15.7929L298.736 14.0616C297.294 13.2379 295.45 13.7237 294.618 15.1503L292.346 19.0237C291.514 20.4458 292.008 22.2677 293.45 23.0892L296.256 24.688L293.445 29.9968C292.677 31.4543 293.248 33.2519 294.725 34.0137L300.951 37.218C301.853 37.684 302.887 37.6553 303.727 37.2269C304.261 36.9552 304.722 36.5246 305.022 35.9593L309.693 27.1282C309.693 27.1282 309.695 27.1216 309.7 27.115C309.742 27.02 309.789 26.9295 309.843 26.8433C309.843 26.8411 309.845 26.8367 309.845 26.8345C310.49 25.79 311.974 25.3019 313.37 26.2736C313.683 26.4922 313.901 26.8257 313.979 27.1967C314.082 27.6891 314.111 27.9365 314.084 28.1816L314.075 28.2765L313.428 35.034C313.272 36.6704 314.491 38.1212 316.15 38.2758L316.819 38.3376L322.821 38.8985C323.264 38.9405 323.692 38.8831 324.088 38.7506C325.173 38.3796 325.993 37.4123 326.107 36.2132L326.941 27.5147C326.941 27.3755 326.955 27.243 326.979 27.1172C327.165 26.0506 328.11 25.2423 329.24 25.2423C330.37 25.2423 331.335 26.0704 331.505 27.1569C331.52 27.2386 331.529 27.3248 331.529 27.4087L332.346 35.1797C332.516 36.8139 333.998 38.002 335.654 37.8319L337.254 37.6685L341.238 37.2622C342.896 37.0921 344.098 35.628 343.928 33.9961L343.102 26.1278Z" fill="#F58220"/>
<path d="M250.171 7.74433C251.136 6.03393 250.513 3.87563 248.779 2.92363C247.046 1.97163 244.858 2.58644 243.894 4.29684C242.929 6.00724 243.552 8.16554 245.285 9.11754C247.019 10.0695 249.206 9.45473 250.171 7.74433Z" fill="#F58220"/>
<path d="M256.358 12.2085C258.168 11.4079 258.978 9.31086 258.167 7.52455C257.355 5.73825 255.23 4.93914 253.42 5.73969C251.609 6.54024 250.8 8.6373 251.611 10.4236C252.422 12.2099 254.547 13.009 256.358 12.2085Z" fill="#F58220"/>
<path d="M293.005 10.7633C294.244 9.23453 293.993 7.00414 292.443 5.78156C290.894 4.55899 288.634 4.8072 287.395 6.33595C286.156 7.86471 286.407 10.0951 287.956 11.3177C289.506 12.5402 291.766 12.292 293.005 10.7633Z" fill="#F58220"/>
<path d="M298.953 11.1489C300.924 10.9324 302.343 9.17904 302.124 7.23572C301.905 5.29019 300.128 3.89012 298.158 4.10654C296.187 4.32295 294.768 6.07636 294.987 8.01968C295.206 9.9652 296.983 11.3653 298.953 11.1489Z" fill="#F58220"/>
<path d="M316.089 20.0383C313.876 18.4903 310.241 18.0597 307.719 19.0468C306.902 19.3339 305.96 19.1329 305.568 18.4395C305.494 18.3092 305.459 18.2452 305.385 18.1149C304.993 17.4237 305.521 16.3791 306.62 15.9949C310.373 14.692 314.556 15.1866 317.889 17.3287C318.864 17.9603 319.126 19.0976 318.58 19.6784C318.477 19.7888 318.426 19.8418 318.323 19.9522C317.777 20.533 316.812 20.5087 316.087 20.0405L316.089 20.0383Z" fill="#FFA85A"/>
<path d="M335.896 22.6066C333.957 20.7317 330.439 19.7402 327.792 20.321C326.939 20.4756 326.042 20.1311 325.766 19.3869C325.715 19.2478 325.688 19.1771 325.637 19.0358C325.361 18.2916 326.048 17.3442 327.196 17.1344C331.111 16.4344 335.162 17.5761 338.109 20.2106C338.971 20.9857 339.047 22.1495 338.416 22.6375C338.297 22.7303 338.237 22.7744 338.118 22.8672C337.487 23.3552 336.536 23.1808 335.898 22.6044L335.896 22.6066Z" fill="#FFA85A"/>
<path d="M227.876 18.786C225.617 17.2999 221.974 16.973 219.481 18.0286C218.673 18.3378 217.724 18.1633 217.314 17.4831C217.236 17.3551 217.198 17.291 217.122 17.1629C216.71 16.4828 217.209 15.425 218.297 15.0076C222.012 13.6009 226.206 13.9785 229.601 16.0257C230.595 16.6285 230.888 17.7592 230.36 18.3554C230.261 18.4681 230.21 18.5233 230.111 18.6359C229.583 19.2321 228.616 19.2343 227.88 18.786H227.876Z" fill="#FFA85A"/>
<path d="M247.776 21.3456C245.862 19.4465 242.358 18.413 239.701 18.9606C238.848 19.1064 237.953 18.7486 237.687 18C237.638 17.8587 237.611 17.788 237.562 17.6489C237.295 16.9003 237.996 15.9617 239.146 15.7674C243.069 15.1159 247.104 16.3062 250.021 18.9783C250.873 19.7645 250.934 20.9282 250.296 21.4096C250.175 21.5002 250.115 21.5444 249.996 21.6349C249.358 22.1163 248.411 21.9286 247.778 21.3456H247.776Z" fill="#FFA85A"/>
<path d="M277.065 12.6337C274.455 12.3753 271.161 13.2189 269.006 14.6962C268.308 15.1445 267.37 15.0915 266.857 14.482C266.761 14.3672 266.712 14.3098 266.616 14.1949C266.103 13.5854 266.34 12.5431 267.213 11.98C270.192 10.0698 273.75 9.15776 277.295 9.39847C278.336 9.47134 279.057 10.2685 278.907 11.0459C278.88 11.1916 278.864 11.2667 278.837 11.4125C278.69 12.192 277.895 12.6889 277.065 12.6314V12.6337Z" fill="#FFA85A"/>
<path d="M296.759 17.1428L296.193 18.1105C295.972 18.4875 296.103 18.9697 296.485 19.1874L298.766 20.487C299.149 20.7047 299.637 20.5755 299.858 20.1984L300.424 19.2307C300.645 18.8537 300.514 18.3715 300.132 18.1538L297.85 16.8542C297.468 16.6365 296.98 16.7657 296.759 17.1428Z" fill="#FFA85A"/>
<path d="M207.185 15.1357L206.885 15.6483C206.591 16.151 206.765 16.7939 207.275 17.0842L209.519 18.3628C210.029 18.6531 210.68 18.4808 210.974 17.978L211.274 17.4655C211.568 16.9627 211.394 16.3199 210.884 16.0296L208.64 14.751C208.13 14.4607 207.479 14.633 207.185 15.1357Z" fill="#FFA85A"/>
<path d="M300.045 9.13345C299.555 8.38262 299.102 8.11541 298.201 8.03592C297.865 8.00721 297.54 7.81729 297.491 7.51696C297.482 7.45954 297.478 7.43304 297.467 7.37563C297.415 7.0753 297.802 6.75288 298.31 6.79705C299.678 6.9163 300.358 7.32263 301.103 8.4577C301.381 8.87949 301.271 9.36974 300.98 9.4647C300.924 9.48236 300.897 9.4912 300.841 9.50886C300.548 9.60382 300.226 9.4117 300.045 9.13124V9.13345Z" fill="#FFA85A"/>
<path d="M291.496 9.52453C291.106 8.92829 290.748 8.71629 290.032 8.65445C289.766 8.63016 289.508 8.48 289.468 8.2415C289.461 8.19733 289.457 8.17525 289.45 8.12887C289.41 7.89038 289.716 7.63421 290.121 7.66954C291.207 7.7645 291.746 8.08692 292.337 8.98791C292.556 9.32357 292.471 9.71224 292.239 9.78732C292.194 9.80278 292.174 9.8094 292.129 9.82265C291.896 9.89995 291.641 9.74536 291.496 9.52453Z" fill="#FFA85A"/>
<path d="M255.889 10.3438C255.399 9.59295 254.946 9.32574 254.045 9.24625C253.709 9.21754 253.384 9.02762 253.335 8.72729C253.326 8.66987 253.322 8.64338 253.311 8.58596C253.259 8.28563 253.646 7.961 254.154 8.00738C255.522 8.12663 256.202 8.53296 256.947 9.66803C257.225 10.0898 257.115 10.5801 256.824 10.675C256.768 10.6927 256.741 10.7015 256.685 10.7192C256.392 10.8164 256.07 10.622 255.889 10.3416V10.3438Z" fill="#FFA85A"/>
<path d="M247.964 6.8656C247.574 6.26935 247.216 6.05735 246.5 5.99552C246.234 5.97123 245.977 5.82106 245.936 5.58256C245.93 5.5384 245.925 5.51631 245.918 5.46994C245.878 5.23144 246.185 4.97528 246.59 5.01061C247.675 5.10557 248.215 5.42798 248.805 6.32897C249.025 6.66464 248.94 7.0533 248.707 7.12839C248.662 7.14384 248.642 7.15047 248.597 7.16372C248.365 7.2388 248.109 7.08643 247.964 6.8656Z" fill="#FFA85A"/>
<path d="M284.309 24.2251C282.015 24.68 280.878 24.9583 278.634 25.6075C278.085 25.7665 277.485 25.3558 277.289 24.68C277.25 24.5519 277.233 24.4901 277.197 24.362C277 23.6885 277.295 23.0017 277.857 22.8383C280.164 22.1714 281.333 21.8843 283.691 21.4161C284.267 21.3013 284.851 21.7739 284.996 22.4607C285.023 22.591 285.037 22.655 285.063 22.7853C285.209 23.4721 284.869 24.1125 284.309 24.2229V24.2251Z" fill="#FFA85A"/>
<rect x="13" y="81" width="343" height="13" fill="#F58220"/>
<rect y="162" width="81" height="13" transform="rotate(-90 0 162)" fill="#F58220"/>
<rect x="356" y="162" width="81" height="13" transform="rotate(-90 356 162)" fill="#F58220"/>
</svg>
