<svg width="1321" height="178" viewBox="0 0 1321 178" fill="none" xmlns="http://www.w3.org/2000/svg">
<path d="M75.5902 83.0389C75.5902 83.5946 75.5532 84.0455 75.4811 84.3915C75.409 84.7374 75.2758 85.0043 75.0816 85.192C74.8874 85.3797 74.6155 85.5067 74.2677 85.5748C73.92 85.6429 73.4668 85.6778 72.9082 85.6778C72.4439 85.6778 71.9982 85.5913 71.5672 85.4165C71.1381 85.2417 70.7607 85.0006 70.4389 84.6914C70.1152 84.3823 69.8581 84.0216 69.6676 83.6057C69.477 83.1916 69.3809 82.7463 69.3809 82.2715C69.3809 81.7728 69.4678 81.3072 69.6435 80.8766C69.8192 80.4459 70.0634 80.0742 70.376 79.7595C70.6886 79.4448 71.0604 79.1983 71.4913 79.0197C71.9205 78.8412 72.3903 78.7529 72.8971 78.7529C73.0728 78.7529 73.2559 78.7529 73.4465 78.7492C73.637 78.7455 73.8275 78.7566 74.0162 78.7823C74.2048 78.8081 74.3787 78.8578 74.5433 78.9314C74.7061 79.0069 74.8411 79.1283 74.9484 79.2958C75.0242 79.4025 75.0723 79.535 75.0945 79.6933C75.1167 79.8515 75.1278 79.9951 75.1278 80.1184C75.1278 80.2251 75.1075 80.2969 75.0668 80.3337C75.0261 80.3705 74.9484 80.3907 74.8356 80.3907C74.5785 80.3907 74.3343 80.3595 74.1012 80.2969C73.8682 80.2343 73.6185 80.203 73.3484 80.203C72.6585 80.203 72.1572 80.3705 71.8446 80.7036C71.5302 81.0367 71.3748 81.5409 71.3748 82.2144C71.3748 82.5144 71.41 82.7868 71.4821 83.0334C71.5542 83.28 71.6652 83.4916 71.8169 83.6701C71.9667 83.8486 72.1591 83.9829 72.3903 84.0768C72.6215 84.1706 72.8953 84.2167 73.2078 84.2167C73.3521 84.2167 73.4576 84.2001 73.5278 84.1651C73.5963 84.1302 73.6462 84.0805 73.674 84.0161C73.7017 83.9498 73.7165 83.8707 73.7165 83.7768V83.4677C73.7165 83.256 73.6888 83.0941 73.6314 82.9818C73.5759 82.8696 73.4243 82.8125 73.1801 82.8125C73.1487 82.8125 73.1154 82.8125 73.0821 82.8181C73.0469 82.8217 73.0081 82.8236 72.9637 82.8236C72.7621 82.8236 72.6233 82.7665 72.5457 82.6506C72.468 82.5347 72.4273 82.3838 72.4273 82.196C72.4273 81.9274 72.4828 81.7286 72.5975 81.598C72.7103 81.4673 72.9082 81.401 73.1893 81.401C73.2966 81.401 73.4002 81.4047 73.5001 81.4102C73.6 81.4158 73.7036 81.4195 73.8108 81.4195C73.9681 81.4195 74.1234 81.4195 74.2807 81.425C74.4379 81.4305 74.5933 81.436 74.7505 81.4489C74.9817 81.4673 75.1593 81.5262 75.2813 81.6219C75.4034 81.7194 75.4867 81.885 75.531 82.1224C75.5625 82.2715 75.5791 82.4242 75.5828 82.5807C75.5865 82.7371 75.5884 82.8898 75.5884 83.0389H75.5902Z" fill="#F58220"/>
<path d="M79.1675 85.5271C79.0177 85.5271 78.8752 85.5271 78.7439 85.5216C78.6126 85.5179 78.496 85.494 78.3962 85.4461C78.2963 85.4001 78.2167 85.3247 78.1613 85.2216C78.1058 85.1186 78.0762 84.9732 78.0762 84.7873C78.0762 84.6254 78.1132 84.3843 78.189 84.0622C78.2648 83.7402 78.361 83.3777 78.4813 82.9728C78.5996 82.568 78.7365 82.1465 78.89 81.7104C79.0436 81.2742 79.2008 80.8676 79.3599 80.4885C79.5189 80.1112 79.6761 79.7836 79.8297 79.5058C79.9832 79.2279 80.1219 79.0494 80.2477 78.9684C80.355 78.8929 80.4604 78.8506 80.5677 78.8377C80.675 78.8249 80.7897 78.8193 80.9154 78.8193C81.1226 78.8193 81.2909 78.8396 81.4241 78.8801C81.5554 78.9205 81.6904 79.0254 81.8292 79.1929C81.9235 79.3107 82.0382 79.5131 82.1732 79.7965C82.3082 80.0799 82.447 80.4056 82.5912 80.7737C82.7355 81.1417 82.8779 81.5337 83.0185 81.9478C83.1591 82.3637 83.2867 82.7612 83.3996 83.1403C83.5124 83.5212 83.603 83.8635 83.6715 84.169C83.7399 84.4745 83.775 84.7082 83.775 84.8701C83.775 85.0321 83.7288 85.1664 83.6382 85.2547C83.5475 85.3412 83.4365 85.4075 83.3052 85.4517C83.1739 85.4958 83.0333 85.5197 82.8816 85.5271C82.7318 85.5326 82.5968 85.5363 82.4766 85.5363C82.2879 85.5363 82.1621 85.505 82.0955 85.4424C82.0289 85.3799 81.9882 85.3026 81.9734 85.2087C81.9586 85.1149 81.9494 85.0155 81.9494 84.9088C81.9494 84.802 81.9198 84.7027 81.8606 84.6088C81.8014 84.515 81.6886 84.4377 81.5258 84.3751C81.3631 84.3125 81.1152 84.2812 80.7823 84.2812C80.5067 84.2812 80.3069 84.3125 80.1848 84.3751C80.0627 84.4377 79.9795 84.515 79.9351 84.6088C79.8907 84.7027 79.8704 84.8002 79.8704 84.9033C79.8704 85.0063 79.8556 85.1038 79.8278 85.1977C79.8001 85.2915 79.739 85.3688 79.6447 85.4314C79.5504 85.494 79.3913 85.5253 79.1656 85.5253L79.1675 85.5271ZM81.0486 82.9066C81.1429 82.9066 81.2225 82.8808 81.2891 82.8274C81.3557 82.7741 81.3871 82.6949 81.3871 82.5882C81.3871 82.5312 81.3723 82.4152 81.3409 82.2367C81.3094 82.0582 81.2724 81.8742 81.228 81.6791C81.1836 81.4859 81.1337 81.3129 81.0782 81.1602C81.0209 81.0074 80.9617 80.9301 80.8988 80.9301C80.8544 80.9301 80.8044 81.0074 80.749 81.1602C80.6935 81.3129 80.6398 81.4877 80.5899 81.6846C80.5399 81.8815 80.4993 82.0692 80.4678 82.2514C80.4364 82.4318 80.4216 82.5477 80.4216 82.5974C80.4216 82.7281 80.466 82.8127 80.5529 82.8495C80.6398 82.8863 80.7379 82.9047 80.8451 82.9047H81.0523L81.0486 82.9066Z" fill="#F58220"/>
<path d="M88.1329 84.8536C88.1329 85.0781 88.096 85.2455 88.0238 85.3596C87.9517 85.4719 87.7926 85.5289 87.5484 85.5289C87.4356 85.5289 87.3246 85.5234 87.2137 85.5142C87.1045 85.505 86.9991 85.4719 86.8992 85.4167C86.7993 85.3615 86.7124 85.2547 86.6403 85.0983C86.5681 84.9419 86.5108 84.7597 86.4664 84.5518C86.422 84.3438 86.3887 84.1211 86.3628 83.8874C86.3369 83.6537 86.3203 83.4218 86.311 83.1955C86.3018 82.9673 86.2962 82.7593 86.2925 82.568C86.2888 82.3784 86.2888 82.2294 86.2888 82.1226C86.2888 81.9533 86.2925 81.749 86.2981 81.5043C86.3036 81.2614 86.3203 81.0074 86.3443 80.7461C86.3702 80.4848 86.4016 80.2327 86.4423 79.9934C86.483 79.7542 86.5348 79.561 86.5977 79.4174C86.6532 79.3181 86.7179 79.2279 86.7901 79.1469C86.8622 79.0659 86.9547 79.0089 87.0675 78.9776C87.1674 78.9463 87.271 78.9242 87.3783 78.9114C87.4856 78.8985 87.591 78.8929 87.6983 78.8929C87.7741 78.8929 87.8481 78.8985 87.9239 78.9114C87.9998 78.9242 88.0719 78.9463 88.1403 78.9776C88.2476 79.0218 88.3475 79.1303 88.4418 79.3052C88.5362 79.48 88.6287 79.6824 88.7193 79.9125C88.8099 80.1425 88.8987 80.3872 88.9875 80.6467C89.0744 80.9062 89.1595 81.1436 89.2409 81.3626C89.3223 81.5816 89.4074 81.7601 89.4943 81.8999C89.5812 82.0398 89.6663 82.1097 89.7477 82.1097C89.8605 82.1097 89.9641 82.0472 90.0585 81.922C90.1528 81.7969 90.2453 81.6386 90.3359 81.4454C90.4266 81.2522 90.5153 81.0369 90.5986 80.7995C90.6837 80.5621 90.765 80.3339 90.8427 80.1112C90.9204 79.8904 90.9963 79.6898 91.0684 79.5131C91.1405 79.3346 91.2108 79.2095 91.2793 79.134C91.3976 78.996 91.5475 78.9224 91.725 78.9095C91.9044 78.8966 92.0746 78.8911 92.2374 78.8911C92.4002 78.8911 92.5555 78.9224 92.685 78.985C92.8126 79.0475 92.9162 79.1561 92.9902 79.3125C93.0901 79.4929 93.1659 79.6953 93.2159 79.9198C93.2658 80.1443 93.3028 80.3744 93.3287 80.6118C93.3546 80.8492 93.3694 81.0865 93.3749 81.3221C93.3805 81.5595 93.3842 81.7803 93.3842 81.9864C93.3842 82.0932 93.3842 82.1962 93.3879 82.2956C93.3916 82.395 93.3934 82.498 93.3934 82.6048C93.3934 82.7925 93.3879 83.0096 93.3786 83.2599C93.3694 83.5102 93.3472 83.7623 93.3121 84.0181C93.2769 84.2739 93.2233 84.515 93.1474 84.7376C93.0716 84.9621 92.9717 85.1499 92.8459 85.2989C92.7386 85.4241 92.6221 85.4903 92.4926 85.4995C92.365 85.5087 92.2189 85.5142 92.0561 85.5142C91.8231 85.5142 91.6714 85.4609 91.5992 85.356C91.5271 85.2492 91.4901 85.0873 91.4901 84.8701C91.4901 84.515 91.4957 84.1598 91.5086 83.8083C91.5216 83.4568 91.5271 83.1016 91.5271 82.7465C91.5271 82.671 91.5197 82.6048 91.5031 82.5459C91.4883 82.487 91.4698 82.4226 91.4513 82.3545C91.3754 82.3545 91.3162 82.4005 91.2719 82.4907C91.2275 82.5808 91.1831 82.6949 91.1405 82.833C91.0961 82.971 91.0462 83.12 90.9907 83.282C90.9352 83.4439 90.8575 83.5948 90.7595 83.731C90.6615 83.869 90.5357 83.9813 90.3785 84.0733C90.2212 84.1635 90.0215 84.2095 89.7773 84.2095C89.5572 84.2095 89.3759 84.1635 89.2317 84.0733C89.0874 83.9831 88.9672 83.8709 88.8691 83.7365C88.7711 83.6022 88.6916 83.4531 88.6287 83.2875C88.5658 83.1219 88.5121 82.9728 88.4696 82.8385C88.4252 82.7041 88.3827 82.5919 88.342 82.5017C88.3013 82.4115 88.2495 82.3655 88.1866 82.3655C88.1607 82.3839 88.1422 82.4336 88.1292 82.5146C88.1163 82.5956 88.1071 82.6876 88.1015 82.7906C88.096 82.8937 88.0923 82.9912 88.0923 83.0851V83.282C88.0923 83.5433 88.0978 83.8046 88.1071 84.0641C88.1163 84.3236 88.1219 84.5867 88.1219 84.8554L88.1329 84.8536Z" fill="#F58220"/>
<path d="M97.9732 83.5911C97.9732 83.9279 98.1489 84.0972 98.5003 84.0972C98.7704 84.0972 99.0367 84.0935 99.2994 84.0824C99.562 84.0732 99.8284 84.0677 100.098 84.0677C100.337 84.0677 100.487 84.11 100.55 84.1947C100.613 84.2793 100.644 84.4302 100.644 84.6492C100.644 84.8498 100.594 85.0118 100.494 85.1351C100.394 85.2602 100.267 85.3559 100.113 85.4258C99.9597 85.4939 99.7932 85.5399 99.6138 85.562C99.4344 85.5841 99.2679 85.5951 99.1107 85.5951C98.9405 85.5951 98.7667 85.5951 98.5835 85.5988C98.4023 85.6025 98.2192 85.5988 98.0379 85.5896C97.8566 85.5804 97.6772 85.5602 97.5015 85.5289C97.3258 85.4976 97.1574 85.4516 96.9928 85.389C96.6414 85.2455 96.4009 85.0357 96.2733 84.7615C96.1438 84.4873 96.068 84.1689 96.0421 83.8064C96.0291 83.569 96.0199 83.3353 96.0143 83.1053C96.0088 82.8752 96.0051 82.6397 96.0051 82.4041C96.0051 82.2109 96.0051 82.0213 96.0014 81.8336C95.9977 81.6459 95.9958 81.4564 95.9958 81.2632C95.9958 80.6577 96.0624 80.1903 96.1975 79.859C96.3325 79.5278 96.5323 79.2867 96.7986 79.134C97.065 78.9812 97.3961 78.8929 97.79 78.8671C98.184 78.8414 98.6427 78.8303 99.1625 78.8303C99.3752 78.8303 99.6009 78.8579 99.8395 78.915C100.078 78.972 100.276 79.0843 100.431 79.2517C100.518 79.3456 100.578 79.4579 100.605 79.5885C100.633 79.7192 100.648 79.8498 100.648 79.9823C100.648 80.0817 100.614 80.159 100.55 80.2124C100.485 80.2657 100.402 80.3062 100.306 80.3338C100.208 80.3614 100.106 80.378 100 80.3798C99.895 80.3817 99.8062 80.3835 99.7377 80.3835C99.575 80.3835 99.4141 80.3761 99.2587 80.3596C99.1015 80.3449 98.9461 80.3357 98.7889 80.3357C98.6501 80.3357 98.5299 80.3393 98.4263 80.3449C98.3227 80.3504 98.2377 80.3725 98.1729 80.4111C98.1082 80.4498 98.0582 80.5105 98.0268 80.5988C97.9953 80.6853 97.9806 80.8086 97.9806 80.9632C97.9806 81.081 98.012 81.173 98.0749 81.2392C98.1378 81.3055 98.2155 81.3552 98.3098 81.3883C98.4041 81.4214 98.5059 81.4435 98.615 81.449C98.7241 81.4545 98.8203 81.4582 98.9017 81.4582C99.046 81.4582 99.1884 81.4545 99.329 81.4435C99.4695 81.4343 99.6157 81.4288 99.7655 81.4288C99.8839 81.4288 100.008 81.4435 100.137 81.4748C100.265 81.5061 100.37 81.5723 100.452 81.6717C100.502 81.7343 100.529 81.8226 100.537 81.9385C100.542 82.0545 100.546 82.1483 100.546 82.2238C100.546 82.2919 100.541 82.3618 100.528 82.4299C100.515 82.498 100.492 82.5569 100.461 82.6084C100.417 82.671 100.331 82.7188 100.202 82.7538C100.073 82.7887 99.932 82.8108 99.7784 82.82C99.6249 82.8292 99.4751 82.8329 99.3308 82.8292C99.1865 82.8255 99.0774 82.8255 99.0016 82.8255H98.7907C98.7056 82.8255 98.6205 82.8255 98.5373 82.8292C98.4522 82.8329 98.3708 82.8439 98.2931 82.8623C98.2155 82.8807 98.1544 82.9083 98.11 82.947C98.0786 82.9783 98.0545 83.0132 98.0397 83.05C98.0249 83.0869 98.0101 83.131 97.9972 83.1807C97.9843 83.2488 97.9769 83.3169 97.9732 83.3813C97.9695 83.4475 97.9676 83.5175 97.9676 83.5911H97.9732Z" fill="#F58220"/>
<path d="M105.207 84.7504C105.207 84.8572 105.202 84.9584 105.192 85.0541C105.183 85.1516 105.161 85.2344 105.126 85.3062C105.091 85.378 105.037 85.435 104.961 85.4792C104.885 85.5234 104.78 85.5454 104.641 85.5454C104.515 85.5454 104.39 85.5418 104.266 85.5307C104.14 85.5215 104.018 85.4884 103.9 85.4332C103.787 85.389 103.692 85.2878 103.618 85.1295C103.543 84.9713 103.482 84.7799 103.435 84.5591C103.389 84.3382 103.354 84.099 103.332 83.8432C103.31 83.5874 103.295 83.3408 103.289 83.1034C103.284 82.866 103.28 82.6489 103.28 82.4483V81.9992C103.28 81.6625 103.289 81.3294 103.308 80.9981C103.326 80.6669 103.361 80.3393 103.411 80.0154C103.424 79.94 103.439 79.8627 103.457 79.7817C103.476 79.7008 103.5 79.6161 103.528 79.5296C103.556 79.4431 103.593 79.3603 103.637 79.2867C103.681 79.2112 103.728 79.1487 103.777 79.099C103.885 79.0125 104.036 78.9426 104.234 78.8929C104.432 78.8432 104.641 78.8064 104.865 78.7806C105.089 78.7549 105.307 78.742 105.524 78.7383C105.74 78.7346 105.919 78.7346 106.064 78.7346C106.389 78.7346 106.713 78.7806 107.033 78.8745C107.353 78.9683 107.641 79.1082 107.899 79.2959C108.156 79.4836 108.365 79.7155 108.524 79.9934C108.683 80.2712 108.764 80.5878 108.764 80.9429C108.764 81.0736 108.751 81.1969 108.727 81.3128C108.701 81.4288 108.655 81.5429 108.587 81.6551C108.479 81.8171 108.357 81.968 108.22 82.1097C108.084 82.2514 107.932 82.3728 107.769 82.4796C107.751 82.4924 107.714 82.5164 107.662 82.5495C107.608 82.5845 107.582 82.6139 107.582 82.6378C107.582 82.6562 107.597 82.6838 107.629 82.7225C107.66 82.7593 107.695 82.7979 107.732 82.8347C107.769 82.8715 107.806 82.9083 107.841 82.9433L107.912 83.0132C107.98 83.0942 108.059 83.2322 108.146 83.4255C108.233 83.6187 108.317 83.8285 108.396 84.053C108.476 84.2775 108.54 84.4928 108.594 84.6989C108.648 84.905 108.674 85.0633 108.674 85.1755C108.674 85.2565 108.62 85.3228 108.515 85.3725C108.407 85.4221 108.285 85.4608 108.148 85.4902C108.011 85.5197 107.873 85.5362 107.734 85.5473C107.595 85.5565 107.499 85.562 107.442 85.562C107.235 85.562 107.077 85.505 106.972 85.389C106.865 85.2731 106.781 85.1277 106.722 84.9547C106.663 84.7799 106.613 84.5922 106.572 84.3934C106.532 84.1947 106.471 84.0088 106.389 83.8358C106.308 83.6647 106.195 83.5211 106.051 83.4052C105.906 83.2893 105.699 83.2322 105.429 83.2322C105.374 83.2322 105.326 83.2654 105.289 83.3298C105.252 83.3942 105.226 83.4751 105.213 83.569C105.2 83.6628 105.192 83.7549 105.189 83.845C105.185 83.9352 105.183 84.0033 105.183 84.0456C105.183 84.1579 105.189 84.2738 105.198 84.3916C105.207 84.5094 105.213 84.6327 105.213 84.756L105.207 84.7504ZM105.189 81.4288C105.189 81.5226 105.204 81.622 105.231 81.7287C105.259 81.8355 105.333 81.887 105.451 81.887C105.627 81.887 105.797 81.8796 105.964 81.8631C106.13 81.8483 106.276 81.8079 106.4 81.7453C106.526 81.6827 106.626 81.5889 106.702 81.4656C106.778 81.3404 106.815 81.1693 106.815 80.9503C106.815 80.8252 106.787 80.7111 106.73 80.608C106.672 80.505 106.598 80.4185 106.504 80.3467C106.41 80.2749 106.304 80.2197 106.189 80.1829C106.075 80.1461 105.958 80.1259 105.845 80.1259H105.562C105.418 80.1259 105.32 80.1737 105.266 80.2712C105.213 80.3688 105.187 80.4792 105.187 80.6025V81.4251L105.189 81.4288Z" fill="#F58220"/>
<path d="M113.703 80.1755C113.527 80.1755 113.366 80.2123 113.218 80.2878C113.07 80.3632 112.998 80.4994 112.998 80.7C112.998 80.8619 113.076 80.9944 113.229 81.0975C113.383 81.2006 113.573 81.2944 113.803 81.3772C114.032 81.4619 114.28 81.552 114.546 81.6477C114.813 81.7453 115.061 81.8667 115.29 82.0121C115.519 82.1593 115.71 82.347 115.863 82.5789C116.017 82.8089 116.094 83.0997 116.094 83.4494C116.094 83.799 116.024 84.11 115.884 84.3842C115.743 84.6584 115.554 84.8921 115.319 85.0854C115.085 85.2786 114.816 85.4276 114.515 85.5344C114.213 85.6411 113.897 85.6926 113.564 85.6926C113.231 85.6926 112.943 85.6761 112.661 85.6411C112.38 85.6062 112.132 85.5325 111.923 85.4166C111.713 85.3007 111.546 85.1295 111.42 84.9013C111.295 84.6731 111.232 84.3695 111.232 83.9886C111.232 83.9444 111.237 83.9039 111.25 83.8671C111.263 83.8303 111.295 83.8101 111.345 83.8101C111.489 83.8101 111.637 83.8358 111.787 83.8855C111.936 83.9352 112.081 83.983 112.219 84.0254C112.395 84.0751 112.571 84.1229 112.747 84.1652C112.922 84.2094 113.104 84.2315 113.292 84.2315C113.379 84.2315 113.472 84.2241 113.564 84.2075C113.658 84.1928 113.744 84.1615 113.818 84.1192C113.893 84.075 113.956 84.018 114.01 83.9462C114.064 83.8745 114.089 83.7861 114.089 83.6794C114.089 83.58 114.073 83.4917 114.038 83.4181C114.002 83.3426 113.945 83.2782 113.864 83.2212C113.745 83.1273 113.614 83.0629 113.473 83.0298C113.333 82.9967 113.19 82.9598 113.046 82.923C112.808 82.855 112.567 82.7574 112.327 82.6323C112.084 82.5071 111.868 82.3581 111.674 82.1833C111.48 82.0084 111.32 81.8078 111.198 81.5797C111.076 81.3515 111.015 81.103 111.015 80.8362C111.015 80.481 111.091 80.1737 111.246 79.9142C111.4 79.6547 111.6 79.4376 111.848 79.2591C112.095 79.0806 112.375 78.9499 112.684 78.8653C112.994 78.7806 113.309 78.7383 113.629 78.7383C113.923 78.7383 114.206 78.7456 114.476 78.7622C114.746 78.7769 114.983 78.8321 115.186 78.926C115.39 79.0198 115.553 79.1689 115.675 79.375C115.797 79.5811 115.858 79.8682 115.858 80.2363C115.858 80.3982 115.776 80.4792 115.614 80.4792C115.469 80.4792 115.325 80.4626 115.181 80.4276C115.036 80.3945 114.896 80.3614 114.757 80.3301C114.587 80.2859 114.413 80.2491 114.236 80.2179C114.056 80.1866 113.88 80.1718 113.705 80.1718L113.703 80.1755Z" fill="#F58220"/>
<path d="M104.279 50.4626L103.557 47.7924C103.404 47.2201 102.808 46.8796 102.233 47.0342L101.417 47.2513L91.6344 49.8645C91.0573 50.0209 90.7151 50.6098 90.8723 51.184L91.59 53.8524C91.7435 54.4247 92.3391 54.767 92.9144 54.6106L95.2764 53.9793C95.5797 53.8984 95.8812 54.0898 95.9534 54.3934C95.9682 54.456 95.9867 54.5167 96.007 54.5774L97.0817 57.6838C97.1538 57.8936 97.0465 58.1347 96.8375 58.212C92.9107 59.6492 88.5824 58.0666 86.9528 54.4909C85.24 50.7313 87.1563 46.1913 91.233 44.3529C92.7423 43.672 94.3386 43.4567 95.8368 43.6499C96.0533 43.6739 96.2697 43.7107 96.4824 43.7585C96.4916 43.7585 96.4972 43.7585 96.5064 43.7622C97.5589 43.9297 98.5522 43.223 98.7334 42.1759L99.157 39.721C99.3383 38.6647 98.6262 37.6654 97.5663 37.4832L97.2204 37.4225C97.2075 37.4188 97.1927 37.4206 97.1797 37.417C94.4089 37.0452 91.4531 37.4335 88.6545 38.6959C87.5003 39.2167 86.4423 39.8553 85.486 40.5896C80.2662 44.5995 78.1706 51.4379 80.8211 57.2532C83.714 63.6021 91.2533 66.5226 98.2655 64.2904C98.5947 64.1855 98.9184 64.0714 99.2421 63.9444L99.3253 64.1855L100.012 66.1674C100.352 67.1501 101.43 67.6728 102.416 67.3342L105.605 66.241C106.591 65.9024 107.118 64.8332 106.776 63.8505C106.776 63.8505 104.427 51.0294 104.273 50.4571L104.279 50.4626Z" fill="#F58220"/>
<path d="M77.6415 52.6784V52.6728C77.3733 46.819 72.516 42.1557 66.5656 42.1557C63.9872 42.1557 61.614 43.0298 59.7329 44.4984C57.6428 42.3085 54.687 40.9448 51.4112 40.9448C48.3481 40.9448 45.5644 42.1373 43.5075 44.0825L39.2902 41.6588C38.0991 40.9743 36.5749 41.381 35.8868 42.5661L34.0131 45.7976C33.325 46.9827 33.7338 48.4991 34.925 49.1837L38.9222 51.4785L36.599 55.9062C35.9627 57.1208 36.4362 58.6187 37.6551 59.2536L42.8009 61.9238C43.5556 62.3177 44.4194 62.2864 45.1186 61.9183C45.5514 61.692 45.9195 61.3386 46.1618 60.8749L50.0683 53.4255L50.1257 53.3151C50.6917 52.3342 52.1178 51.9036 53.3793 53.0575C53.4717 53.1421 53.5291 53.258 53.5494 53.3813C53.6401 53.9242 53.6808 54.1598 53.6549 54.3935C53.6549 54.4192 53.653 54.445 53.6475 54.4726L53.1129 60.1038C52.9834 61.4675 53.9915 62.6765 55.3621 62.8053L55.9152 62.8569H55.9503L60.8797 63.3243C61.2441 63.3593 61.5974 63.3132 61.9229 63.201C62.82 62.8937 63.4989 62.0895 63.595 61.0865L64.2942 53.7365L64.3016 53.6427C64.396 52.6912 65.2024 51.9515 66.1846 51.9515C67.1668 51.9515 67.9695 52.6912 68.0676 53.6427L68.7538 60.2234C68.8962 61.5852 70.1189 62.5753 71.4895 62.4336L72.8101 62.2974L76.1026 61.9588C77.4732 61.8171 78.4665 60.597 78.3259 59.2371L77.6434 52.6802L77.6415 52.6784Z" fill="#F58220"/>
<path d="M149.92 53.7733V53.7678C149.651 47.9139 144.794 43.2507 138.846 43.2507C136.256 43.2507 133.876 44.1322 131.989 45.6118C129.895 43.4108 126.932 42.0398 123.649 42.0398C120.597 42.0398 117.82 43.2249 115.763 45.1609L113.252 43.7181C112.06 43.0317 110.536 43.4366 109.848 44.6254L107.971 47.8532C107.283 49.0383 107.691 50.5565 108.883 51.2411L111.202 52.5735L108.879 56.9975C108.245 58.212 108.716 59.71 109.937 60.3449L115.083 63.0151C115.828 63.4034 116.683 63.3795 117.376 63.0225C117.818 62.7961 118.199 62.4373 118.447 61.9662L122.308 54.607C122.308 54.607 122.309 54.6014 122.313 54.5959C122.348 54.5168 122.387 54.4413 122.432 54.3696C122.432 54.3677 122.433 54.3641 122.433 54.3622C122.966 53.4918 124.192 53.0851 125.347 53.8948C125.606 54.077 125.785 54.3548 125.85 54.664C125.935 55.0744 125.959 55.2805 125.937 55.4848L125.929 55.5639L125.395 61.1951C125.265 62.5588 126.273 63.7678 127.644 63.8966L128.197 63.9482L133.158 64.4156C133.524 64.4505 133.877 64.4027 134.205 64.2923C135.102 63.9831 135.779 63.1771 135.873 62.1778L136.563 54.929C136.563 54.8131 136.574 54.7027 136.595 54.5978C136.748 53.7089 137.529 53.0354 138.463 53.0354C139.397 53.0354 140.194 53.7255 140.335 54.6309C140.348 54.699 140.355 54.7707 140.355 54.8407L141.03 61.3166C141.171 62.6784 142.395 63.6684 143.764 63.5267L145.086 63.3906L148.379 63.0519C149.749 62.9102 150.743 61.6901 150.602 60.3302L149.92 53.7733Z" fill="#F58220"/>
<path d="M73.1135 38.4537C73.9109 37.0284 73.3959 35.2298 71.9633 34.4365C70.5307 33.6432 68.7229 34.1555 67.9255 35.5808C67.1281 37.0062 67.6431 38.8047 69.0757 39.5981C70.5083 40.3914 72.3161 39.8791 73.1135 38.4537Z" fill="#F58220"/>
<path d="M78.2271 42.1737C79.7233 41.5066 80.3926 39.759 79.7221 38.2704C79.0515 36.7818 77.295 36.1159 75.7988 36.783C74.3026 37.4502 73.6333 39.1977 74.3038 40.6863C74.9744 42.1749 76.7309 42.8408 78.2271 42.1737Z" fill="#F58220"/>
<path d="M108.515 40.9694C109.539 39.6954 109.331 37.8368 108.051 36.818C106.771 35.7992 104.902 36.006 103.878 37.28C102.854 38.5539 103.062 40.4126 104.343 41.4314C105.623 42.4502 107.491 42.2434 108.515 40.9694Z" fill="#F58220"/>
<path d="M113.431 41.2908C115.061 41.1105 116.233 39.6493 116.052 38.0298C115.871 36.4086 114.402 35.2418 112.774 35.4222C111.145 35.6025 109.972 37.0637 110.153 38.6831C110.335 40.3044 111.803 41.4711 113.431 41.2908Z" fill="#F58220"/>
<path d="M127.594 48.6985C125.765 47.4085 122.761 47.0496 120.676 47.8722C120.001 48.1115 119.222 47.944 118.899 47.3662C118.838 47.2576 118.808 47.2042 118.747 47.0956C118.423 46.5196 118.86 45.6492 119.768 45.329C122.87 44.2432 126.327 44.6555 129.081 46.4405C129.888 46.9668 130.104 47.9146 129.653 48.3986C129.568 48.4906 129.525 48.5347 129.44 48.6267C128.989 49.1107 128.191 49.0905 127.592 48.7004L127.594 48.6985Z" fill="#FFA85A"/>
<path d="M143.964 50.8389C142.362 49.2765 139.454 48.4502 137.266 48.9342C136.561 49.063 135.82 48.7759 135.592 48.1558C135.55 48.0398 135.527 47.9809 135.485 47.8632C135.257 47.243 135.825 46.4535 136.774 46.2787C140.009 45.6953 143.357 46.6468 145.793 48.8422C146.505 49.4881 146.568 50.4579 146.046 50.8646C145.948 50.9419 145.898 50.9787 145.8 51.056C145.279 51.4627 144.493 51.3174 143.966 50.837L143.964 50.8389Z" fill="#FFA85A"/>
<path d="M54.6871 47.6552C52.8207 46.4167 49.8094 46.1443 47.7489 47.024C47.0812 47.2816 46.2969 47.1362 45.9584 46.5694C45.8937 46.4627 45.8622 46.4093 45.7993 46.3026C45.459 45.7358 45.8715 44.8543 46.7704 44.5065C49.8409 43.3342 53.3072 43.6489 56.1132 45.3548C56.9344 45.8572 57.1767 46.7994 56.7402 47.2963C56.6588 47.3902 56.6163 47.4362 56.5349 47.53C56.0984 48.0269 55.2993 48.0287 54.6908 47.6552H54.6871Z" fill="#FFA85A"/>
<path d="M71.1343 49.7881C69.5529 48.2055 66.6563 47.3443 64.4607 47.8006C63.756 47.9221 63.0161 47.624 62.796 47.0001C62.7553 46.8824 62.7331 46.8235 62.6924 46.7075C62.4723 46.0837 63.0512 45.3016 64.002 45.1396C67.2445 44.5967 70.5794 45.5886 72.9896 47.8154C73.6943 48.4705 73.7442 49.4403 73.2171 49.8415C73.1172 49.9169 73.0673 49.9538 72.9692 50.0292C72.4421 50.4304 71.6597 50.274 71.1362 49.7881H71.1343Z" fill="#FFA85A"/>
<path d="M95.3411 42.5281C93.1844 42.3128 90.4617 43.0158 88.6804 44.2469C88.1033 44.6205 87.3283 44.5763 86.9047 44.0684C86.8252 43.9727 86.7845 43.9248 86.705 43.8292C86.2814 43.3212 86.4775 42.4526 87.1988 41.9834C89.6608 40.3915 92.6018 39.6315 95.5316 39.8321C96.3917 39.8928 96.9873 40.5572 96.8634 41.2049C96.8412 41.3264 96.8283 41.389 96.8061 41.5104C96.684 42.16 96.0274 42.5741 95.3411 42.5262V42.5281Z" fill="#FFA85A"/>
<path d="M111.618 46.2858L111.15 47.0922C110.968 47.4064 111.076 47.8082 111.392 47.9896L113.277 49.0726C113.593 49.254 113.997 49.1464 114.179 48.8322L114.647 48.0257C114.83 47.7115 114.721 47.3097 114.406 47.1283L112.52 46.0453C112.204 45.8639 111.8 45.9715 111.618 46.2858Z" fill="#FFA85A"/>
<path d="M37.5864 44.6133L37.3385 45.0405C37.0954 45.4594 37.2397 45.9952 37.6608 46.2371L39.5158 47.3026C39.9369 47.5445 40.4754 47.4009 40.7185 46.9819L40.9663 46.5548C41.2095 46.1359 41.0652 45.6001 40.6441 45.3582L38.7891 44.2927C38.368 44.0508 37.8295 44.1944 37.5864 44.6133Z" fill="#FFA85A"/>
<path d="M114.334 39.6113C113.929 38.9856 113.555 38.7629 112.81 38.6967C112.532 38.6728 112.264 38.5145 112.223 38.2642C112.216 38.2164 112.212 38.1943 112.203 38.1464C112.16 37.8962 112.48 37.6275 112.9 37.6643C114.03 37.7637 114.593 38.1023 115.209 39.0482C115.438 39.3997 115.347 39.8082 115.107 39.8873C115.061 39.9021 115.038 39.9094 114.992 39.9241C114.75 40.0033 114.484 39.8432 114.334 39.6094V39.6113Z" fill="#FFA85A"/>
<path d="M107.268 39.937C106.946 39.4401 106.65 39.2635 106.058 39.2119C105.838 39.1917 105.625 39.0665 105.592 38.8678C105.587 38.831 105.583 38.8126 105.577 38.7739C105.544 38.5752 105.797 38.3617 106.132 38.3912C107.029 38.4703 107.475 38.739 107.963 39.4898C108.145 39.7695 108.074 40.0934 107.882 40.156C107.845 40.1689 107.828 40.1744 107.791 40.1854C107.599 40.2498 107.388 40.121 107.268 39.937Z" fill="#FFA85A"/>
<path d="M77.8395 40.6199C77.4344 39.9942 77.0607 39.7715 76.3153 39.7053C76.0379 39.6814 75.7697 39.5231 75.729 39.2728C75.7216 39.225 75.7179 39.2029 75.7086 39.155C75.6661 38.9048 75.9861 38.6343 76.406 38.6729C77.5361 38.7723 78.0984 39.1109 78.7144 40.0568C78.9437 40.4083 78.8531 40.8168 78.6126 40.8959C78.5664 40.9107 78.5442 40.918 78.498 40.9327C78.2556 41.0137 77.9893 40.8518 77.8395 40.6181V40.6199Z" fill="#FFA85A"/>
<path d="M71.2897 37.7214C70.9679 37.2245 70.6719 37.0479 70.0801 36.9963C69.8599 36.9761 69.6472 36.851 69.6139 36.6522C69.6084 36.6154 69.6047 36.597 69.5991 36.5584C69.5658 36.3596 69.8192 36.1461 70.154 36.1756C71.0511 36.2547 71.4969 36.5234 71.9852 37.2742C72.1665 37.5539 72.0962 37.8778 71.9038 37.9404C71.8668 37.9533 71.8502 37.9588 71.8132 37.9698C71.6208 38.0324 71.41 37.9054 71.2897 37.7214Z" fill="#FFA85A"/>
<path d="M101.329 52.1877C99.4327 52.5668 98.4931 52.7986 96.6378 53.3397C96.1847 53.4722 95.689 53.1299 95.5262 52.5668C95.4947 52.46 95.4799 52.4085 95.4503 52.3018C95.2876 51.7405 95.5317 51.1682 95.996 51.032C97.903 50.4762 98.8685 50.237 100.818 49.8469C101.293 49.7512 101.776 50.145 101.896 50.7173C101.919 50.8259 101.93 50.8792 101.952 50.9878C102.072 51.5601 101.791 52.0938 101.329 52.1858V52.1877Z" fill="#FFA85A"/>
<line x1="0.00567295" y1="7.49854" x2="1320.01" y2="8.49698" stroke="#F58220" stroke-width="15"/>
<rect width="15" height="102" fill="#F58220"/>
<rect x="1305" y="1" width="15" height="177" fill="#F58220"/>
</svg>
