<svg width="78" height="78" viewBox="0 0 78 78" fill="none" xmlns="http://www.w3.org/2000/svg">
<circle cx="39" cy="39" r="38.5" stroke="#F58220"/>
<path d="M18 60L20.967 49.2156C19.134 46.052 18.1712 42.4632 18.1756 38.811C18.1805 27.3357 27.5608 18 39.0879 18C44.6816 18.0028 49.932 20.1699 53.8807 24.1038C57.8293 28.0377 60.0019 33.2666 59.9999 38.8277C59.9948 50.3022 50.613 59.6395 39.0876 59.6395H39.0785C35.579 59.6381 32.1402 58.7641 29.0857 57.106L18 60Z" fill="#F58220"/>
<path d="M39.0828 21.6783C29.4952 21.6783 21.6983 29.4376 21.6948 38.975C21.6901 42.2318 22.6113 45.4234 24.352 48.1808L24.7655 48.8353L23.0094 55.2181L29.5879 53.5008L30.2231 53.8755C32.8911 55.4518 35.9501 56.2854 39.0697 56.287H39.0763C48.6564 56.287 56.4534 48.5269 56.4571 38.9889C56.4643 36.7155 56.0185 34.4634 55.1455 32.3627C54.2725 30.2621 52.9896 28.3547 51.371 26.751C49.7615 25.1385 47.8466 23.8599 45.7373 22.9892C43.628 22.1185 41.3662 21.6729 39.0828 21.6783Z" fill="url(#paint0_linear_524_47)"/>
<path fill-rule="evenodd" clip-rule="evenodd" d="M33.9157 30.2287C33.5241 29.3626 33.1119 29.345 32.7399 29.33L31.7383 29.3179C31.3899 29.3179 30.8237 29.448 30.3451 29.9687C29.8664 30.4893 28.5161 31.7476 28.5161 34.3068C28.5161 36.8661 30.3885 39.3391 30.6495 39.6866C30.9104 40.034 34.2642 45.4534 39.5754 47.5385C43.989 49.2712 44.8871 48.9266 45.8455 48.84C46.8039 48.7534 48.937 47.5817 49.3721 46.367C49.8073 45.1523 49.8075 44.1116 49.6771 43.8941C49.5466 43.6765 49.1982 43.5472 48.6752 43.2868C48.1522 43.0265 45.5838 41.7682 45.1048 41.5945C44.6259 41.4208 44.2778 41.3345 43.929 41.8551C43.5803 42.3757 42.5801 43.5469 42.2752 43.8941C41.9702 44.2412 41.6658 44.2848 41.1428 44.0248C40.6199 43.7647 38.9373 43.2153 36.9409 41.4431C35.3877 40.0643 34.3392 38.3615 34.0339 37.8412C33.7287 37.3208 34.0015 37.039 34.2636 36.7798C34.4981 36.5467 34.786 36.1723 35.0478 35.8687C35.3095 35.5651 35.3956 35.3481 35.5696 35.0015C35.7435 34.6549 35.6568 34.3504 35.5261 34.0904C35.3954 33.8304 34.3801 31.2575 33.9157 30.2287Z" fill="#F58220"/>
<defs>
<linearGradient id="paint0_linear_524_47" x1="38.7221" y1="23.7551" x2="38.8968" y2="53.3305" gradientUnits="userSpaceOnUse">
<stop offset="1" stop-color="#0F0F0F"/>
</linearGradient>
</defs>
</svg>
