<?xml version="1.0" encoding="UTF-8"?>
<svg xmlns="http://www.w3.org/2000/svg" version="1.1" viewBox="0 0 78 78">
  <defs>
    <style>
      .cls-1, .cls-2 {
        fill: #181818;
      }

      .cls-2 {
        fill-rule: evenodd;
      }

      .cls-3 {
        fill: none;
        stroke: #181818;
      }
    </style>
  </defs>
  <!-- Generator: Adobe Illustrator 28.6.0, SVG Export Plug-In . SVG Version: 1.2.0 Build 709)  -->
  <g>
    <g id="Capa_1">
      <circle class="cls-3" cx="39" cy="39" r="38.5"/>
      <path class="cls-1" d="M53.9,24.1c-3.9-3.9-9.2-6.1-14.8-6.1-11.5,0-20.9,9.3-20.9,20.8,0,3.7,1,7.2,2.8,10.4l-3,10.8,11.1-2.9c3.1,1.7,6.5,2.5,10,2.5h0c11.5,0,20.9-9.3,20.9-20.8,0-5.6-2.2-10.8-6.1-14.7ZM39.1,56.3h0c-3.1,0-6.2-.8-8.8-2.4l-.6-.4-6.6,1.7,1.8-6.4-.4-.7c-1.7-2.8-2.7-5.9-2.7-9.2,0-9.5,7.8-17.3,17.4-17.3,2.3,0,4.5.4,6.7,1.3,2.1.9,4,2.1,5.6,3.8,1.6,1.6,2.9,3.5,3.8,5.6.9,2.1,1.3,4.4,1.3,6.6,0,9.5-7.8,17.3-17.4,17.3Z"/>
      <path class="cls-2" d="M33.9,30.2c-.4-.9-.8-.9-1.2-.9h-1c-.3,0-.9.1-1.4.6-.5.5-1.8,1.8-1.8,4.3s1.9,5,2.1,5.4c.3.3,3.6,5.8,8.9,7.9,4.4,1.7,5.3,1.4,6.3,1.3s3.1-1.3,3.5-2.5c.4-1.2.4-2.3.3-2.5-.1-.2-.5-.3-1-.6-.5-.3-3.1-1.5-3.6-1.7-.5-.2-.8-.3-1.2.3-.3.5-1.3,1.7-1.7,2-.3.3-.6.4-1.1.1-.5-.3-2.2-.8-4.2-2.6-1.6-1.4-2.6-3.1-2.9-3.6-.3-.5,0-.8.2-1.1.2-.2.5-.6.8-.9.3-.3.3-.5.5-.9.2-.3,0-.7,0-.9-.1-.3-1.1-2.8-1.6-3.9Z"/>
    </g>
  </g>
</svg>