<svg width="181" height="185" viewBox="0 0 181 185" fill="none" xmlns="http://www.w3.org/2000/svg">
<path d="M34.8274 137.321L32.8378 140.201L34.8274 137.321ZM178.787 167.728C180.456 166.753 181.018 164.609 180.043 162.94L164.152 135.742C163.177 134.073 161.033 133.511 159.364 134.486C157.695 135.461 157.133 137.605 158.108 139.274L172.234 163.45L148.058 177.575C146.389 178.55 145.826 180.694 146.801 182.363C147.777 184.032 149.92 184.594 151.589 183.619L178.787 167.728ZM6.27728 1.10518C6.62916 12.8093 5.22404 24.8785 3.65141 37.1725C2.09094 49.3714 0.357903 61.8359 0.206415 73.9161C0.0543969 86.0388 1.48396 98.0089 6.37548 109.296C11.2859 120.626 19.5895 131.047 32.8378 140.201L36.817 134.442C24.549 125.965 17.1436 116.538 12.7982 106.512C8.43402 96.442 7.06112 85.5465 7.20587 74.0039C7.35114 62.4188 9.01411 50.418 10.5948 38.0607C12.1634 25.7984 13.6447 13.2202 13.2741 0.89482L6.27728 1.10518ZM32.8378 140.201C59.0998 158.346 81.1872 161.559 103.666 162.145C126.125 162.73 148.244 160.773 176.133 168.091L177.91 161.321C148.986 153.731 125.524 155.712 103.848 155.147C82.1908 154.583 61.5877 151.557 36.817 134.442L32.8378 140.201Z" fill="#F29CB1"/>
</svg>
