<svg width="110" height="82" viewBox="0 0 110 82" fill="none" xmlns="http://www.w3.org/2000/svg">
<path d="M31.7868 1.38181C30.617 -0.157064 28.4212 -0.456294 26.8824 0.713464L1.80492 19.7758C0.266046 20.9455 -0.0331837 23.1413 1.13657 24.6802C2.30633 26.2191 4.50212 26.5183 6.04099 25.3485L28.3321 8.40426L45.2763 30.6953C46.4461 32.2342 48.6419 32.5334 50.1807 31.3637C51.7196 30.1939 52.0189 27.9981 50.8491 26.4593L31.7868 1.38181ZM109.233 81.8429C109.233 76.9817 107.394 73.2733 104.065 70.6818C100.963 68.2668 96.8343 67.0352 92.5924 66.2527C88.3062 65.462 83.3709 65.0468 78.4301 64.5869C73.4115 64.1197 68.2791 63.5992 63.2792 62.6167C53.2677 60.6492 44.3296 56.9302 38.4872 48.6927C32.6178 40.4174 29.3515 26.8445 32.4684 3.97244L25.5325 3.02725C22.2997 26.7495 25.4501 42.4112 32.7775 52.7424C40.1318 63.1115 51.1704 67.3709 61.9294 69.4853C67.3148 70.5436 72.7661 71.0899 77.7813 71.5568C82.8743 72.0309 87.4229 72.4171 91.3225 73.1365C95.2663 73.864 98.0254 74.8512 99.7647 76.2052C101.277 77.3826 102.233 78.9934 102.233 81.8429H109.233Z" fill="#F29CB1"/>
</svg>
