<svg width="21" height="21" viewBox="0 0 21 21" fill="none" xmlns="http://www.w3.org/2000/svg">
<path d="M1 7.60419V5.24555C1 2.89634 2.89634 1 5.24555 1H7.60419" stroke="#292D32" stroke-linecap="round" stroke-linejoin="round"/>
<path d="M13.2649 1H15.6235C17.9727 1 19.8691 2.89634 19.8691 5.24555V7.60419" stroke="#292D32" stroke-linecap="round" stroke-linejoin="round"/>
<path d="M19.8691 14.2085V15.6237C19.8691 17.9729 17.9728 19.8692 15.6236 19.8692H14.2084" stroke="#292D32" stroke-linecap="round" stroke-linejoin="round"/>
<path d="M7.60419 19.8692H5.24555C2.89634 19.8692 1 17.9729 1 15.6237V13.265" stroke="#292D32" stroke-linecap="round" stroke-linejoin="round"/>
<path d="M15.1518 8.07597V12.7932C15.1518 14.6802 14.2083 15.6236 12.3214 15.6236H8.54759C6.66068 15.6236 5.71722 14.6802 5.71722 12.7932V8.07597C5.71722 6.18906 6.66068 5.24561 8.54759 5.24561H12.3214C14.2083 5.24561 15.1518 6.18906 15.1518 8.07597Z" stroke="#292D32" stroke-linecap="round" stroke-linejoin="round"/>
<path d="M17.0388 10.4347H3.83038" stroke="#292D32" stroke-linecap="round" stroke-linejoin="round"/>
</svg>
