<svg width="21" height="21" viewBox="0 0 21 21" fill="none" xmlns="http://www.w3.org/2000/svg">
<g id="&#240;&#159;&#166;&#134; icon &#34;size&#34;">
<g id="Group">
<path id="Vector" d="M20 4.6575V7.7925C20 10.405 18.955 11.45 16.3425 11.45H15.25V10.7375C15.25 7.175 13.825 5.75 10.2625 5.75H9.55V4.6575C9.55 2.045 10.595 1 13.2075 1H16.3425C18.955 1 20 2.045 20 4.6575Z" stroke="#292D32" stroke-linecap="round" stroke-linejoin="round"/>
<path id="Vector_2" d="M1 10.7375C1 7.175 2.425 5.75 5.9875 5.75H10.2625C13.825 5.75 15.25 7.175 15.25 10.7375V15.0125C15.25 18.575 13.825 20 10.2625 20H5.9875C2.425 20 1 18.575 1 15.0125V14.3095" stroke="#292D32" stroke-linecap="round" stroke-linejoin="round"/>
</g>
</g>
</svg>
