<svg width="20" height="20" viewBox="0 0 20 20" fill="none" xmlns="http://www.w3.org/2000/svg">
<g id="&#240;&#159;&#166;&#134; icon &#34;refresh&#34;">
<g id="Group">
<path id="Vector" d="M12.3721 19.693C12.0651 19.693 11.7767 19.4884 11.693 19.1721C11.5907 18.8 11.814 18.4186 12.1953 18.3163C15.9721 17.3209 18.6047 13.8977 18.6047 9.9907C18.6047 5.24651 14.7442 1.38605 10 1.38605C5.97209 1.38605 3.33023 3.73954 2.09302 5.16279H4.82791C5.2093 5.16279 5.52558 5.47907 5.52558 5.86047C5.52558 6.24186 5.21861 6.56744 4.82791 6.56744H0.706977C0.660465 6.56744 0.576744 6.55814 0.511628 6.53954C0.427907 6.51163 0.353488 6.47442 0.288372 6.42791C0.204651 6.37209 0.139535 6.29767 0.0930233 6.21395C0.0465117 6.13023 0.00930233 6.02791 0 5.92558C0 5.89767 0 5.87907 0 5.85116V1.62791C0 1.24651 0.316279 0.930233 0.697674 0.930233C1.07907 0.930233 1.39535 1.24651 1.39535 1.62791V3.85116C2.91163 2.22326 5.76744 0 10 0C15.5163 0 20 4.48372 20 10C20 14.5395 16.9395 18.5209 12.5488 19.6744C12.493 19.6837 12.4279 19.693 12.3721 19.693Z" fill="#292D32"/>
<path id="Vector_2" d="M9.33953 19.9814C9.32093 19.9814 9.30233 19.9721 9.29302 19.9721C8.28837 19.907 7.30233 19.6838 6.37209 19.321C6.10233 19.2186 5.91628 18.9489 5.92558 18.6605C5.92558 18.5768 5.94419 18.4931 5.97209 18.4186C6.11163 18.0652 6.53023 17.8884 6.87442 18.0186C7.68372 18.3349 8.53023 18.521 9.38605 18.5861C9.74884 18.6047 10.0372 18.921 10.0372 19.2931L10.0279 19.3303C10.0093 19.6931 9.70233 19.9814 9.33953 19.9814ZM4.21395 17.9814C4.05581 17.9814 3.90698 17.9256 3.77674 17.8326C2.99535 17.2 2.30698 16.4652 1.74884 15.6466C1.66512 15.5256 1.6186 15.3954 1.6186 15.2559C1.6186 15.0233 1.73023 14.8093 1.92558 14.6791C2.23256 14.4652 2.67907 14.5489 2.89302 14.8466V14.8559C2.90233 14.8652 2.91163 14.8838 2.92093 14.8931C3.40465 15.5907 3.9907 16.214 4.65116 16.7349C4.8093 16.8652 4.91163 17.0605 4.91163 17.2745C4.91163 17.4326 4.86512 17.5907 4.76279 17.721C4.62326 17.8884 4.42791 17.9814 4.21395 17.9814ZM1.10698 13.4419C0.8 13.4419 0.530233 13.2466 0.446512 12.9582C0.148837 12 0 11.0047 0 10V9.99074C0.00930233 9.60934 0.316279 9.30237 0.697674 9.30237C1.07907 9.30237 1.39535 9.61865 1.39535 10C1.39535 10.8745 1.52558 11.7303 1.77674 12.5396C1.79535 12.614 1.80465 12.6791 1.80465 12.7535C1.80465 13.0512 1.6093 13.321 1.31163 13.414C1.24651 13.4326 1.1814 13.4419 1.10698 13.4419Z" fill="#292D32"/>
</g>
</g>
</svg>
