<svg width="36" height="36" viewBox="0 0 36 36" fill="none" xmlns="http://www.w3.org/2000/svg">
<path d="M34.6204 10.2926V10.2948V25.1434C34.6204 28.2091 33.7097 30.5601 32.126 32.1437C30.5423 33.7274 28.1914 34.6382 25.1257 34.6382H10.2948C7.22902 34.6382 4.87835 33.7274 3.29478 32.1419C1.71109 30.5562 0.8 28.2009 0.8 25.1257V10.2948C0.8 7.22901 1.71075 4.8781 3.29442 3.29442C4.8781 1.71075 7.22901 0.8 10.2948 0.8H25.1434C28.2093 0.8 30.5599 1.71081 32.1412 3.29407C33.7223 4.87716 34.6289 7.22732 34.6204 10.2926ZM28.3718 9.82627L28.4031 9.79811L28.4313 9.76681C28.6491 9.52484 28.8227 9.25354 28.9472 8.9546C29.0699 8.66014 29.1505 8.32529 29.1505 7.97359C29.1505 7.62589 29.0718 7.29467 28.9514 7.00266C28.8182 6.66076 28.633 6.40442 28.4313 6.18036L28.3875 6.13172L28.3364 6.09084C28.3178 6.07593 28.3059 6.0656 28.287 6.04909C28.272 6.03603 28.2526 6.01912 28.2219 5.99302C28.175 5.9532 28.0964 5.88764 28.001 5.82821C27.8632 5.73772 27.716 5.66097 27.5592 5.6035C27.4057 5.5318 27.242 5.4788 27.0583 5.44966C26.2214 5.27708 25.3399 5.56484 24.7549 6.14985L24.74 6.16472L24.7259 6.18036C24.5243 6.40442 24.339 6.66076 24.2058 7.00266C24.0855 7.29467 24.0067 7.62589 24.0067 7.97359C24.0067 8.32529 24.0873 8.66014 24.21 8.9546C24.3346 9.25354 24.5082 9.52484 24.7259 9.76681L24.74 9.78245L24.7549 9.79733C25.2471 10.2895 25.896 10.5455 26.5786 10.5455C26.9303 10.5455 27.2652 10.4649 27.5596 10.3422C27.8586 10.2176 28.1299 10.0441 28.3718 9.82627ZM10.0441 17.7191C10.0441 21.9528 13.4854 25.3941 17.7191 25.3941C21.9528 25.3941 25.3941 21.9528 25.3941 17.7191C25.3941 13.4854 21.9528 10.0441 17.7191 10.0441C13.4854 10.0441 10.0441 13.4854 10.0441 17.7191Z" stroke="#F29CB1" stroke-width="1.6"/>
</svg>
