<svg width="101" height="45" viewBox="0 0 101 45" fill="none" xmlns="http://www.w3.org/2000/svg">
<g clip-path="url(#clip0_22_141)">
<path d="M36.6147 42.8258C36.6147 43.2805 36.5844 43.6494 36.5251 43.9325C36.4659 44.2155 36.3565 44.4339 36.1971 44.5874C36.0376 44.741 35.8143 44.8449 35.5288 44.9006C35.2432 44.9563 34.8711 44.9849 34.4124 44.9849C34.0312 44.9849 33.6652 44.9142 33.3113 44.7711C32.9589 44.6281 32.649 44.4309 32.3848 44.1779C32.119 43.9249 31.9079 43.6298 31.7514 43.2896C31.595 42.9508 31.516 42.5864 31.516 42.1979C31.516 41.7899 31.5874 41.409 31.7317 41.0566C31.876 40.7043 32.0764 40.4002 32.3331 40.1427C32.5898 39.8852 32.8951 39.6835 33.249 39.5374C33.6014 39.3914 33.9871 39.3191 34.4033 39.3191C34.5476 39.3191 34.698 39.3191 34.8544 39.3161C35.0108 39.3131 35.1673 39.3221 35.3222 39.3432C35.4771 39.3643 35.6199 39.4049 35.7551 39.4651C35.8887 39.5269 35.9996 39.6263 36.0877 39.7633C36.15 39.8506 36.1895 39.959 36.2077 40.0885C36.2259 40.218 36.235 40.3354 36.235 40.4363C36.235 40.5236 36.2183 40.5824 36.1849 40.6125C36.1515 40.6426 36.0877 40.6591 35.9951 40.6591C35.7839 40.6591 35.5835 40.6335 35.3921 40.5824C35.2007 40.5312 34.9957 40.5056 34.7739 40.5056C34.2074 40.5056 33.7958 40.6426 33.5391 40.9151C33.2809 41.1876 33.1533 41.6002 33.1533 42.1513C33.1533 42.3967 33.1822 42.6195 33.2414 42.8213C33.3006 43.023 33.3918 43.1962 33.5163 43.3422C33.6393 43.4883 33.7973 43.5982 33.9871 43.675C34.177 43.7518 34.4018 43.7894 34.6585 43.7894C34.7769 43.7894 34.8635 43.7759 34.9212 43.7473C34.9774 43.7187 35.0184 43.678 35.0412 43.6253C35.064 43.5711 35.0762 43.5064 35.0762 43.4296V43.1766C35.0762 43.0035 35.0534 42.871 35.0063 42.7791C34.9607 42.6873 34.8362 42.6406 34.6357 42.6406C34.6099 42.6406 34.5825 42.6406 34.5552 42.6451C34.5263 42.6481 34.4944 42.6496 34.458 42.6496C34.2924 42.6496 34.1785 42.603 34.1147 42.5081C34.0509 42.4133 34.0175 42.2898 34.0175 42.1362C34.0175 41.9164 34.0631 41.7538 34.1573 41.6469C34.2499 41.54 34.4124 41.4858 34.6433 41.4858C34.7314 41.4858 34.8164 41.4888 34.8985 41.4933C34.9805 41.4978 35.0655 41.5008 35.1536 41.5008C35.2827 41.5008 35.4103 41.5008 35.5394 41.5053C35.6685 41.5099 35.7961 41.5144 35.9252 41.5249C36.115 41.54 36.2609 41.5881 36.3611 41.6664C36.4613 41.7462 36.5297 41.8818 36.5661 42.076C36.592 42.1979 36.6056 42.3229 36.6087 42.4509C36.6117 42.5789 36.6132 42.7038 36.6132 42.8258H36.6147Z" fill="white"/>
<path d="M39.5522 44.8615C39.4292 44.8615 39.3122 44.8615 39.2044 44.857C39.0965 44.854 39.0008 44.8344 38.9188 44.7952C38.8368 44.7576 38.7715 44.6959 38.7259 44.6116C38.6804 44.5272 38.6561 44.4083 38.6561 44.2562C38.6561 44.1237 38.6864 43.9265 38.7487 43.663C38.811 43.3995 38.89 43.1029 38.9887 42.7716C39.0859 42.4404 39.1983 42.0956 39.3244 41.7387C39.4504 41.3819 39.5795 41.0491 39.7101 40.739C39.8408 40.4303 39.9699 40.1623 40.0959 39.9349C40.222 39.7076 40.3359 39.5615 40.4392 39.4953C40.5273 39.4335 40.6139 39.3989 40.702 39.3884C40.79 39.3778 40.8842 39.3733 40.9875 39.3733C41.1576 39.3733 41.2958 39.3899 41.4052 39.423C41.513 39.4561 41.6239 39.542 41.7378 39.679C41.8153 39.7753 41.9094 39.941 42.0203 40.1728C42.1312 40.4047 42.2451 40.6712 42.3636 40.9723C42.482 41.2735 42.599 41.5942 42.7144 41.933C42.8298 42.2732 42.9346 42.5985 43.0273 42.9086C43.1199 43.2203 43.1944 43.5004 43.2506 43.7503C43.3068 44.0003 43.3356 44.1915 43.3356 44.324C43.3356 44.4565 43.2976 44.5664 43.2232 44.6387C43.1488 44.7094 43.0577 44.7636 42.9498 44.7998C42.842 44.8359 42.7266 44.8555 42.602 44.8615C42.479 44.866 42.3681 44.869 42.2694 44.869C42.1145 44.869 42.0112 44.8434 41.9565 44.7922C41.9018 44.741 41.8684 44.6778 41.8563 44.601C41.8441 44.5242 41.8365 44.4429 41.8365 44.3556C41.8365 44.2683 41.8122 44.187 41.7636 44.1102C41.715 44.0334 41.6224 43.9701 41.4887 43.9189C41.3551 43.8678 41.1515 43.8422 40.8781 43.8422C40.6518 43.8422 40.4878 43.8678 40.3875 43.9189C40.2873 43.9701 40.219 44.0334 40.1825 44.1102C40.1461 44.187 40.1293 44.2668 40.1293 44.3511C40.1293 44.4354 40.1172 44.5152 40.0944 44.592C40.0716 44.6688 40.0215 44.732 39.944 44.7832C39.8666 44.8344 39.736 44.86 39.5507 44.86L39.5522 44.8615ZM41.0968 42.7174C41.1743 42.7174 41.2396 42.6963 41.2943 42.6527C41.349 42.609 41.3748 42.5443 41.3748 42.4569C41.3748 42.4103 41.3626 42.3154 41.3368 42.1694C41.311 42.0233 41.2806 41.8727 41.2442 41.7131C41.2077 41.555 41.1667 41.4135 41.1211 41.2885C41.0741 41.1636 41.0255 41.1003 40.9738 41.1003C40.9374 41.1003 40.8964 41.1636 40.8508 41.2885C40.8052 41.4135 40.7612 41.5565 40.7202 41.7177C40.6792 41.8788 40.6458 42.0323 40.6199 42.1814C40.5941 42.329 40.582 42.4238 40.582 42.4645C40.582 42.5714 40.6184 42.6406 40.6898 42.6707C40.7612 42.7009 40.8417 42.7159 40.9298 42.7159H41.0999L41.0968 42.7174Z" fill="white"/>
<path d="M46.914 44.3104C46.914 44.4941 46.8836 44.6311 46.8244 44.7245C46.7652 44.8163 46.6346 44.863 46.4341 44.863C46.3414 44.863 46.2503 44.8585 46.1592 44.8509C46.0695 44.8434 45.983 44.8163 45.901 44.7711C45.8189 44.726 45.7475 44.6386 45.6883 44.5107C45.6291 44.3827 45.582 44.2336 45.5455 44.0635C45.5091 43.8933 45.4818 43.7112 45.4605 43.5199C45.4392 43.3287 45.4256 43.139 45.418 42.9538C45.4104 42.7671 45.4058 42.597 45.4028 42.4404C45.3997 42.2853 45.3997 42.1633 45.3997 42.076C45.3997 41.9375 45.4028 41.7703 45.4073 41.5701C45.4119 41.3713 45.4256 41.1636 45.4453 40.9498C45.4666 40.7359 45.4924 40.5297 45.5258 40.3339C45.5592 40.1382 45.6017 39.9801 45.6534 39.8627C45.6989 39.7814 45.7521 39.7076 45.8113 39.6413C45.8706 39.5751 45.9465 39.5284 46.0392 39.5028C46.1212 39.4772 46.2062 39.4591 46.2943 39.4486C46.3824 39.4381 46.469 39.4335 46.5571 39.4335C46.6194 39.4335 46.6801 39.4381 46.7424 39.4486C46.8047 39.4591 46.8639 39.4772 46.9201 39.5028C47.0082 39.5389 47.0902 39.6278 47.1677 39.7708C47.2451 39.9139 47.3211 40.0795 47.3955 40.2677C47.4699 40.4559 47.5428 40.6561 47.6157 40.8684C47.6871 41.0807 47.757 41.275 47.8238 41.4542C47.8906 41.6333 47.9605 41.7794 48.0319 41.8938C48.1033 42.0082 48.1731 42.0655 48.24 42.0655C48.3326 42.0655 48.4177 42.0143 48.4951 41.9119C48.5726 41.8095 48.6485 41.68 48.723 41.5219C48.7974 41.3638 48.8703 41.1876 48.9386 40.9934C49.0085 40.7992 49.0753 40.6125 49.1391 40.4303C49.2029 40.2496 49.2652 40.0855 49.3244 39.941C49.3837 39.7949 49.4414 39.6925 49.4976 39.6308C49.5948 39.5179 49.7178 39.4576 49.8636 39.4471C50.0109 39.4366 50.1507 39.432 50.2843 39.432C50.418 39.432 50.5456 39.4576 50.6519 39.5088C50.7567 39.56 50.8417 39.6489 50.9025 39.7768C50.9845 39.9244 51.0468 40.09 51.0878 40.2737C51.1288 40.4574 51.1592 40.6456 51.1804 40.8398C51.2017 41.0341 51.2139 41.2283 51.2184 41.421C51.223 41.6153 51.226 41.7959 51.226 41.9646C51.226 42.0519 51.226 42.1362 51.2291 42.2175C51.2321 42.2988 51.2336 42.3832 51.2336 42.4705C51.2336 42.6241 51.2291 42.8017 51.2215 43.0065C51.2139 43.2113 51.1956 43.4175 51.1668 43.6268C51.1379 43.8361 51.0939 44.0334 51.0316 44.2156C50.9693 44.3992 50.8873 44.5528 50.784 44.6748C50.6959 44.7772 50.6003 44.8314 50.4939 44.8389C50.3891 44.8464 50.2691 44.8509 50.1355 44.8509C49.9441 44.8509 49.8196 44.8073 49.7603 44.7215C49.7011 44.6341 49.6707 44.5016 49.6707 44.324C49.6707 44.0334 49.6753 43.7428 49.6859 43.4552C49.6965 43.1676 49.7011 42.877 49.7011 42.5864C49.7011 42.5247 49.695 42.4705 49.6814 42.4223C49.6692 42.3741 49.654 42.3214 49.6388 42.2657C49.5766 42.2657 49.5279 42.3034 49.4915 42.3771C49.455 42.4509 49.4186 42.5443 49.3837 42.6572C49.3472 42.7701 49.3062 42.8921 49.2606 43.0246C49.2151 43.1571 49.1513 43.2805 49.0708 43.392C48.9903 43.5049 48.887 43.5967 48.7579 43.672C48.6288 43.7458 48.4648 43.7834 48.2643 43.7834C48.0835 43.7834 47.9347 43.7458 47.8162 43.672C47.6977 43.5982 47.599 43.5064 47.5185 43.3965C47.438 43.2866 47.3727 43.1646 47.3211 43.0291C47.2694 42.8936 47.2254 42.7716 47.1905 42.6617C47.154 42.5518 47.1191 42.4599 47.0857 42.3862C47.0522 42.3124 47.0097 42.2747 46.9581 42.2747C46.9368 42.2898 46.9216 42.3305 46.911 42.3967C46.9003 42.4629 46.8928 42.5382 46.8882 42.6226C46.8836 42.7069 46.8806 42.7867 46.8806 42.8635V43.0246C46.8806 43.2384 46.8852 43.4522 46.8928 43.6645C46.9003 43.8768 46.9049 44.0921 46.9049 44.3119L46.914 44.3104Z" fill="white"/>
<path d="M54.9943 43.2775C54.9943 43.5531 55.1386 43.6916 55.4271 43.6916C55.6489 43.6916 55.8676 43.6886 56.0833 43.6795C56.2989 43.672 56.5177 43.6675 56.7394 43.6675C56.9353 43.6675 57.0584 43.7021 57.11 43.7714C57.1617 43.8406 57.1875 43.9641 57.1875 44.1433C57.1875 44.3074 57.1465 44.4399 57.0644 44.5408C56.9824 44.6432 56.8776 44.7215 56.7516 44.7787C56.6255 44.8344 56.4888 44.872 56.3415 44.8901C56.1941 44.9082 56.0575 44.9172 55.9284 44.9172C55.7886 44.9172 55.6458 44.9172 55.4955 44.9202C55.3466 44.9232 55.1963 44.9202 55.0474 44.9127C54.8986 44.9052 54.7512 44.8886 54.607 44.863C54.4627 44.8374 54.3245 44.7998 54.1893 44.7486C53.9007 44.6311 53.7032 44.4595 53.5984 44.2351C53.4921 44.0108 53.4299 43.7503 53.4086 43.4537C53.398 43.2595 53.3904 43.0682 53.3858 42.88C53.3812 42.6918 53.3782 42.4991 53.3782 42.3064C53.3782 42.1483 53.3782 41.9932 53.3752 41.8396C53.3721 41.686 53.3706 41.5309 53.3706 41.3729C53.3706 40.8775 53.4253 40.495 53.5362 40.224C53.647 39.953 53.8111 39.7558 54.0298 39.6308C54.2485 39.5058 54.5204 39.4335 54.8439 39.4125C55.1674 39.3914 55.5441 39.3824 55.9709 39.3824C56.1455 39.3824 56.3308 39.4049 56.5268 39.4516C56.7227 39.4983 56.8852 39.5901 57.0128 39.7272C57.0842 39.8039 57.1328 39.8958 57.1556 40.0027C57.1784 40.1096 57.1905 40.2165 57.1905 40.3249C57.1905 40.4062 57.1632 40.4695 57.11 40.5131C57.0569 40.5568 56.9885 40.5899 56.9095 40.6125C56.829 40.6351 56.7455 40.6486 56.6589 40.6501C56.5723 40.6516 56.4994 40.6531 56.4432 40.6531C56.3096 40.6531 56.1774 40.6471 56.0499 40.6336C55.9208 40.6215 55.7932 40.614 55.6641 40.614C55.5502 40.614 55.4514 40.617 55.3664 40.6215C55.2813 40.626 55.2115 40.6441 55.1583 40.6757C55.1051 40.7073 55.0641 40.757 55.0383 40.8293C55.0125 40.9001 55.0003 41.001 55.0003 41.1274C55.0003 41.2238 55.0262 41.2991 55.0778 41.3533C55.1294 41.4075 55.1932 41.4481 55.2707 41.4752C55.3482 41.5023 55.4317 41.5204 55.5213 41.5249C55.6109 41.5294 55.6899 41.5325 55.7567 41.5325C55.8752 41.5325 55.9921 41.5294 56.1076 41.5204C56.223 41.5129 56.343 41.5084 56.466 41.5084C56.5632 41.5084 56.665 41.5204 56.7713 41.546C56.8761 41.5716 56.9627 41.6258 57.0295 41.7071C57.0705 41.7583 57.0933 41.8306 57.0994 41.9254C57.1039 42.0203 57.107 42.0971 57.107 42.1588C57.107 42.2145 57.1024 42.2717 57.0918 42.3274C57.0812 42.3832 57.0629 42.4313 57.0371 42.4735C57.0007 42.5247 56.9308 42.5638 56.8245 42.5924C56.7181 42.6211 56.6027 42.6391 56.4767 42.6466C56.3506 42.6542 56.2276 42.6572 56.1091 42.6542C55.9906 42.6512 55.901 42.6512 55.8387 42.6512H55.6656C55.5957 42.6512 55.5259 42.6512 55.4575 42.6542C55.3876 42.6572 55.3208 42.6662 55.257 42.6813C55.1932 42.6963 55.1431 42.7189 55.1067 42.7505C55.0808 42.7761 55.0611 42.8047 55.0489 42.8349C55.0368 42.865 55.0246 42.9011 55.014 42.9418C55.0034 42.9975 54.9973 43.0532 54.9943 43.1059C54.9912 43.1601 54.9897 43.2173 54.9897 43.2775H54.9943Z" fill="white"/>
<path d="M60.9345 44.2261C60.9345 44.3134 60.9299 44.3962 60.9223 44.4745C60.9147 44.5543 60.8965 44.6221 60.8676 44.6808C60.8388 44.7395 60.7947 44.7862 60.7324 44.8223C60.6702 44.8585 60.5836 44.8765 60.4697 44.8765C60.3664 44.8765 60.2631 44.8735 60.1614 44.8645C60.0581 44.857 59.9578 44.8299 59.8606 44.7847C59.768 44.7486 59.6905 44.6657 59.6298 44.5363C59.5675 44.4068 59.5174 44.2502 59.4794 44.0695C59.4414 43.8888 59.4126 43.6931 59.3943 43.4838C59.3761 43.2745 59.364 43.0727 59.3594 42.8785C59.3549 42.6843 59.3518 42.5066 59.3518 42.3425V41.9751C59.3518 41.6996 59.3594 41.427 59.3746 41.156C59.3898 40.885 59.4187 40.617 59.4597 40.352C59.4703 40.2903 59.4824 40.227 59.4976 40.1608C59.5128 40.0945 59.5326 40.0253 59.5553 39.9545C59.5781 39.8837 59.6085 39.816 59.645 39.7557C59.6814 39.694 59.7194 39.6428 59.7604 39.6022C59.8485 39.5314 59.973 39.4742 60.1355 39.4335C60.2981 39.3929 60.4697 39.3628 60.6535 39.3417C60.8373 39.3206 61.0165 39.3101 61.1942 39.3071C61.3719 39.304 61.5192 39.304 61.6377 39.304C61.905 39.304 62.1708 39.3417 62.4336 39.4185C62.6963 39.4953 62.9333 39.6097 63.1444 39.7633C63.3555 39.9169 63.5271 40.1066 63.6577 40.3339C63.7884 40.5613 63.8552 40.8203 63.8552 41.1109C63.8552 41.2178 63.8446 41.3186 63.8248 41.4135C63.8036 41.5083 63.7656 41.6017 63.7094 41.6935C63.6213 41.826 63.521 41.9495 63.4087 42.0654C63.2963 42.1814 63.1717 42.2808 63.0381 42.3681C63.0229 42.3786 62.9925 42.3982 62.95 42.4253C62.9059 42.4539 62.8847 42.478 62.8847 42.4976C62.8847 42.5126 62.8968 42.5352 62.9226 42.5668C62.9484 42.5969 62.9773 42.6286 63.0077 42.6587C63.0381 42.6888 63.0684 42.7189 63.0973 42.7475L63.155 42.8047C63.2112 42.871 63.2765 42.9839 63.3479 43.142C63.4193 43.3001 63.4876 43.4717 63.5529 43.6554C63.6183 43.8391 63.6714 44.0153 63.7155 44.1839C63.7595 44.3526 63.7808 44.4821 63.7808 44.5739C63.7808 44.6401 63.7367 44.6943 63.6501 44.735C63.5621 44.7757 63.4618 44.8073 63.3494 44.8314C63.237 44.8555 63.1231 44.869 63.0092 44.878C62.8953 44.8856 62.8163 44.8901 62.7692 44.8901C62.5991 44.8901 62.47 44.8434 62.3834 44.7486C62.2953 44.6537 62.227 44.5347 62.1784 44.3932C62.1298 44.2502 62.0888 44.0966 62.0554 43.934C62.022 43.7714 61.9718 43.6193 61.905 43.4778C61.8382 43.3377 61.7455 43.2203 61.627 43.1254C61.5086 43.0306 61.3385 42.9839 61.1167 42.9839C61.0712 42.9839 61.0317 43.011 61.0013 43.0637C60.9709 43.1164 60.9496 43.1827 60.939 43.2594C60.9284 43.3362 60.9223 43.4115 60.9193 43.4853C60.9162 43.5591 60.9147 43.6148 60.9147 43.6494C60.9147 43.7413 60.9193 43.8361 60.9269 43.9325C60.9345 44.0288 60.939 44.1297 60.939 44.2306L60.9345 44.2261ZM60.9193 41.5083C60.9193 41.5851 60.9314 41.6664 60.9542 41.7538C60.977 41.8411 61.0377 41.8833 61.1349 41.8833C61.2792 41.8833 61.419 41.8772 61.5557 41.8637C61.6924 41.8516 61.8124 41.8185 61.9141 41.7673C62.0174 41.7161 62.0994 41.6393 62.1617 41.5385C62.224 41.4361 62.2543 41.296 62.2543 41.1169C62.2543 41.0145 62.2316 40.9211 62.1845 40.8368C62.1374 40.7525 62.0766 40.6817 61.9992 40.623C61.9217 40.5643 61.8351 40.5191 61.741 40.489C61.6468 40.4589 61.5511 40.4423 61.4585 40.4423H61.2261C61.1076 40.4423 61.0271 40.4815 60.9831 40.5613C60.939 40.6411 60.9177 40.7314 60.9177 40.8323V41.5053L60.9193 41.5083Z" fill="white"/>
<path d="M67.9105 40.483C67.7662 40.483 67.6341 40.5131 67.5126 40.5748C67.391 40.6366 67.3318 40.748 67.3318 40.9121C67.3318 41.0446 67.3956 41.153 67.5217 41.2373C67.6477 41.3217 67.8042 41.3984 67.9925 41.4662C68.1808 41.5355 68.3844 41.6092 68.6031 41.6875C68.8218 41.7673 69.0253 41.8667 69.2137 41.9857C69.402 42.1061 69.5584 42.2597 69.6845 42.4494C69.8106 42.6376 69.8744 42.8755 69.8744 43.1616C69.8744 43.4477 69.8166 43.7021 69.7012 43.9265C69.5858 44.1508 69.4309 44.342 69.238 44.5001C69.0451 44.6582 68.8248 44.7802 68.5773 44.8675C68.3297 44.9548 68.07 44.997 67.7966 44.997C67.5232 44.997 67.2862 44.9835 67.0554 44.9548C66.8245 44.9262 66.621 44.866 66.4494 44.7712C66.2762 44.6763 66.1395 44.5363 66.0362 44.3496C65.933 44.1629 65.8813 43.9144 65.8813 43.6027C65.8813 43.5666 65.8859 43.5335 65.8965 43.5034C65.9071 43.4733 65.933 43.4567 65.974 43.4567C66.0924 43.4567 66.2139 43.4778 66.337 43.5184C66.46 43.5591 66.5785 43.5982 66.6924 43.6329C66.8367 43.6735 66.981 43.7127 67.1253 43.7473C67.2695 43.7834 67.4184 43.8015 67.5733 43.8015C67.6447 43.8015 67.7206 43.7955 67.7966 43.7819C67.874 43.7699 67.9439 43.7443 68.0047 43.7096C68.0669 43.6735 68.1186 43.6268 68.1626 43.5681C68.2067 43.5094 68.2279 43.4371 68.2279 43.3498C68.2279 43.2685 68.2143 43.1962 68.1854 43.136C68.1565 43.0743 68.1095 43.0216 68.0426 42.9749C67.9454 42.8981 67.8376 42.8454 67.7222 42.8183C67.6067 42.7912 67.4898 42.7611 67.3713 42.731C67.1754 42.6753 66.9779 42.5955 66.7805 42.4931C66.5815 42.3907 66.4038 42.2687 66.2443 42.1257C66.0848 41.9826 65.9542 41.8185 65.854 41.6318C65.7537 41.4451 65.7036 41.2419 65.7036 41.0235C65.7036 40.7329 65.7659 40.4815 65.8935 40.2692C66.0195 40.0569 66.1836 39.8792 66.3871 39.7332C66.5906 39.5871 66.82 39.4802 67.0736 39.411C67.3288 39.3417 67.587 39.3071 67.8497 39.3071C68.0912 39.3071 68.3236 39.3131 68.5454 39.3266C68.7671 39.3387 68.9615 39.3839 69.1286 39.4606C69.2957 39.5374 69.4293 39.6594 69.5296 39.828C69.6298 39.9967 69.6799 40.2316 69.6799 40.5327C69.6799 40.6652 69.6131 40.7314 69.4795 40.7314C69.361 40.7314 69.2425 40.7179 69.124 40.6893C69.0056 40.6622 68.8901 40.6351 68.7762 40.6095C68.6365 40.5733 68.4937 40.5432 68.3479 40.5176C68.2006 40.492 68.0563 40.48 67.912 40.48L67.9105 40.483Z" fill="white"/>
<path d="M100.973 25.5258L100.939 25.2081C101.005 24.8016 101.017 24.383 100.973 23.9629L100.42 18.6765C100.092 12.4144 94.8943 7.51795 88.5547 7.51795C86.6531 7.51795 84.8275 7.95158 83.1765 8.78723C81.12 7.33275 78.6291 6.52571 76.0759 6.52571C74.876 6.52571 73.6989 6.69886 72.575 7.03162C72.6403 6.59798 72.6509 6.1508 72.6008 5.69458C72.4474 4.32292 71.7624 3.09128 70.6749 2.22853C69.5859 1.36578 68.225 0.975808 66.8413 1.12788C65.8161 1.24081 64.8714 1.64282 64.0953 2.28122C63.2204 1.84157 62.2134 1.63981 61.1685 1.75424C59.7848 1.90631 58.5424 2.58537 57.6721 3.66343C57.5855 3.77033 57.505 3.88025 57.4291 3.99317C56.82 3.40897 56.0363 2.99491 55.1432 2.84134L54.8744 2.79466L54.7984 2.78261C54.7635 2.7781 54.7286 2.77207 54.6936 2.76906C51.8291 2.39114 48.8916 2.8308 46.2003 4.04136C45.0763 4.54575 44.0162 5.17814 43.0471 5.91893C42.9894 5.9641 42.9332 6.01077 42.8755 6.05594C42.7996 5.72168 42.6887 5.39194 42.5444 5.07274C41.9748 3.81249 40.9435 2.84736 39.6419 2.35651C38.6592 1.98611 37.6325 1.9304 36.6741 2.13969C36.0848 1.32964 35.2707 0.706293 34.3062 0.34192C31.6194 -0.672902 28.5999 0.668651 27.5762 3.33218C27.2436 4.19644 27.1631 5.09382 27.2952 5.94754C27.2466 6.26373 27.2269 6.57992 27.2375 6.8946C26.2594 7.1054 25.3162 7.43514 24.4246 7.88383C22.3711 6.43688 19.8848 5.63436 17.3377 5.63436C14.7906 5.63436 12.5883 6.33449 10.6077 7.6369L8.77445 6.58745C7.6581 5.94904 6.35797 5.7789 5.11404 6.11015C3.87011 6.4414 2.8297 7.23187 2.18571 8.33854L0.647122 10.9825C0.0669245 11.9777 -0.109261 13.0965 0.0669245 14.1504C-0.252032 16.0596 0.62434 18.0546 2.41202 19.0785L2.75528 19.2742L2.71123 19.357C2.21153 20.3101 2.06724 21.3551 2.23279 22.3428C1.90017 24.3273 2.86463 26.39 4.75863 27.3717L8.97797 29.5535C10.3844 30.2852 12.0627 30.2822 13.4601 29.5489C14.3334 29.0942 15.0366 28.3956 15.4908 27.5298L16.0057 26.5526C16.1363 27.3958 16.4962 28.1923 17.0582 28.8654C17.8799 29.8486 19.0388 30.4569 20.3192 30.5758L24.8514 31.0004C25.0063 31.0155 25.1612 31.0215 25.3146 31.0215C25.8493 31.0215 26.3733 30.9342 26.8745 30.761C28.1275 30.3334 29.1269 29.4194 29.6722 28.2691C30.6473 29.6333 32.315 30.4523 34.1118 30.2702L37.8983 29.8817C39.127 29.7552 40.2358 29.1816 41.0407 28.2616C44.3518 31.5801 49.3443 33.1008 54.3261 32.1266C55.087 33.5299 56.5724 34.3852 58.1444 34.3852C58.6107 34.3852 59.0861 34.3099 59.5509 34.1503L62.1709 33.2559C63.2645 32.8825 64.1454 32.1101 64.6512 31.0787C64.964 30.4433 65.1098 29.7567 65.0886 29.0701L67.7542 30.4478C69.1454 31.169 70.807 31.1736 72.1907 30.4659C73.0823 30.0127 73.8007 29.308 74.2654 28.4242L74.7773 27.453C74.9094 28.2947 75.2679 29.0882 75.8298 29.7597C76.6515 30.7429 77.8104 31.3512 79.0908 31.4702L83.6245 31.8963C83.7764 31.9098 83.9268 31.9174 84.0787 31.9174C84.6057 31.9174 85.1267 31.8315 85.634 31.6614L85.6537 31.6554C86.9007 31.2263 87.8955 30.3138 88.4408 29.168C88.6929 29.5203 88.9936 29.841 89.3415 30.1211C90.3424 30.9281 91.6 31.3 92.8804 31.1675L96.6699 30.7791C97.9518 30.6466 99.1061 30.0277 99.9187 29.0355C100.731 28.0433 101.105 26.7981 100.971 25.5288L100.973 25.5258ZM67.1466 3.86519C68.4847 3.71764 69.6892 4.67223 69.838 5.99873C69.9868 7.32522 69.0239 8.51922 67.6858 8.66678C66.3477 8.81433 65.1433 7.85974 64.9944 6.53324C64.8456 5.20674 65.8085 4.01275 67.1466 3.86519ZM61.4737 4.49155C62.8118 4.344 64.0163 5.29859 64.1651 6.62509C64.314 7.95158 63.351 9.14558 62.0129 9.29314C60.6748 9.44069 59.4704 8.4861 59.3215 7.1596C59.1727 5.8331 60.1356 4.63911 61.4737 4.49155ZM30.1719 4.30936C30.6519 3.06267 32.0598 2.43631 33.3174 2.9121C34.575 3.38789 35.2069 4.78365 34.7269 6.03035C34.247 7.27704 32.839 7.9034 31.5814 7.42761C30.3238 6.95182 29.6919 5.55606 30.1719 4.30936ZM37.0356 25.5785L34.332 25.8555L33.2476 25.9669C32.1221 26.0829 31.1181 25.2713 31.0012 24.1586L30.4377 18.7744C30.3572 17.9959 29.695 17.3906 28.8915 17.3906C28.0881 17.3906 27.4243 17.9959 27.3453 18.7744L27.3393 18.8511L26.7651 24.8648C26.6877 25.6839 26.1287 26.3434 25.3921 26.5948C25.1233 26.6867 24.8332 26.7243 24.5355 26.6957L20.4878 26.3163H20.4589L20.0048 26.2711C18.8793 26.1657 18.0515 25.1765 18.1579 24.0608L18.5968 19.4534C18.6014 19.4323 18.6029 19.4097 18.6029 19.3887C18.6241 19.1974 18.5907 19.0047 18.5163 18.5605C18.4996 18.4597 18.4525 18.3648 18.3766 18.2955C17.3407 17.3515 16.1682 17.7038 15.7049 18.5063L15.6578 18.5967L12.45 24.6916C12.2511 25.0711 11.9473 25.3617 11.5934 25.5454C11.0193 25.8465 10.31 25.8721 9.69031 25.5499L5.46489 23.3651C4.46246 22.8457 4.07515 21.6201 4.59763 20.6263L6.5053 17.0037L3.22308 15.1261C2.24494 14.566 1.90928 13.3253 2.47429 12.3557L4.01288 9.71171C4.57789 8.74206 5.82941 8.40931 6.80755 8.96942L10.2705 10.9524C11.9595 9.3624 14.2453 8.38522 16.7605 8.38522C19.4519 8.38522 21.8775 9.50092 23.5938 11.2927C25.14 10.0911 27.0871 9.37595 29.2044 9.37595C34.0905 9.37595 38.0775 13.1913 38.2992 17.9809V17.9854L38.8597 23.3501C38.9766 24.4643 38.161 25.461 37.034 25.577L37.0356 25.5785ZM36.9156 9.4437C35.658 8.96791 35.0261 7.57215 35.5061 6.32546C35.986 5.07876 37.394 4.4524 38.6516 4.92819C39.9092 5.40399 40.541 6.79974 40.0611 8.04644C39.5811 9.29314 38.1732 9.9195 36.9156 9.4437ZM61.2657 29.0882L58.6472 29.9826C57.8376 30.2596 56.9521 29.832 56.6727 29.028L56.1092 27.4064L56.0408 27.2091C55.7735 27.313 55.5077 27.4064 55.2389 27.4922C49.481 29.3186 43.2902 26.9291 40.9147 21.7345C38.7382 16.9751 40.4575 11.3815 44.7452 8.10065C45.5304 7.49988 46.3992 6.97741 47.347 6.55131C49.6465 5.51842 52.0721 5.20072 54.3473 5.50487C54.358 5.50788 54.3701 5.50637 54.3807 5.50938L54.6648 5.55907C55.5335 5.70813 56.1198 6.52571 55.971 7.38997L55.6232 9.39853C55.4743 10.2538 54.6587 10.8334 53.7945 10.6964C53.7869 10.6964 53.7808 10.6934 53.7747 10.6934C53.6001 10.6543 53.4224 10.6242 53.2446 10.6046C52.0144 10.4465 50.7051 10.6226 49.4642 11.1797C46.1167 12.6839 44.5417 16.3984 45.9496 19.4745C47.2877 22.4 50.8418 23.6964 54.0663 22.519C54.238 22.4557 54.3261 22.2585 54.2668 22.0868L53.3844 19.5453C53.3677 19.4956 53.3525 19.4444 53.3403 19.3947C53.2811 19.1462 53.0335 18.9897 52.7844 19.0559L50.8449 19.5724C50.3725 19.6988 49.8834 19.4203 49.7574 18.952L49.1681 16.7688C49.039 16.299 49.32 15.8172 49.7938 15.6892L57.827 13.5512L58.4968 13.3735C58.9692 13.2485 59.4582 13.5256 59.5843 13.9938L60.1766 16.1786C60.3027 16.6468 62.2316 27.1368 62.2316 27.1368C62.5111 27.9409 62.0798 28.8172 61.2702 29.0927L61.2657 29.0882ZM96.3858 26.4744L93.6823 26.7514L92.5963 26.8628C91.4724 26.9788 90.4669 26.1672 90.3515 25.0545L89.7971 19.756C89.7971 19.6988 89.791 19.6401 89.7804 19.5844C89.665 18.8436 89.021 18.279 88.2433 18.279C87.4657 18.279 86.8339 18.8301 86.7093 19.5573C86.6926 19.6431 86.6835 19.7335 86.6835 19.8253L86.117 25.7592C86.0395 26.5767 85.4821 27.2362 84.747 27.4892C84.4781 27.5795 84.188 27.6187 83.8873 27.5901L79.8138 27.2076L79.3596 27.1655C78.2342 27.0601 77.4064 26.0708 77.5127 24.9551L77.9517 20.3478L77.9577 20.283C77.976 20.1159 77.9562 19.9473 77.8863 19.6115C77.8347 19.3586 77.6874 19.1312 77.4732 18.9821C76.5239 18.3211 75.5185 18.6524 75.081 19.3646C75.081 19.3661 75.0795 19.3691 75.0795 19.3706C75.0431 19.4278 75.0097 19.4911 74.9823 19.5558C74.9808 19.5603 74.9808 19.5618 74.9778 19.5648L71.8079 25.586C71.6044 25.973 71.2931 26.2666 70.9285 26.4503C70.359 26.7424 69.6573 26.7619 69.0452 26.4442L64.8197 24.2595C63.8173 23.7401 63.43 22.5144 63.951 21.5207L65.8586 17.9011L63.954 16.811C62.9759 16.2508 62.6402 15.0087 63.2052 14.039L64.7468 11.3981C65.3119 10.4254 66.5634 10.0926 67.5415 10.6558L69.6041 11.8362C71.2931 10.2522 73.5713 9.2826 76.0789 9.2826C78.7764 9.2826 81.2096 10.4043 82.9274 12.2051C84.4781 10.9945 86.4314 10.2733 88.5577 10.2733C93.4439 10.2733 97.4308 14.0887 97.651 18.8782V18.8828L98.2115 24.2475C98.3285 25.3617 97.5128 26.3584 96.3858 26.4744Z" fill="white"/>
<path d="M60.172 16.1724L59.5796 13.9877C59.4536 13.5194 58.9645 13.2409 58.4921 13.3673L57.8223 13.545L49.7892 15.6831C49.3153 15.811 49.0343 16.2929 49.1634 16.7626L49.7527 18.9459C49.8788 19.4141 50.3679 19.6942 50.8402 19.5662L52.7798 19.0497C53.0289 18.9835 53.2764 19.1401 53.3357 19.3885C53.3478 19.4397 53.363 19.4894 53.3797 19.5391L54.2622 22.0807C54.3214 22.2523 54.2333 22.4495 54.0617 22.5128C50.8372 23.6887 47.2831 22.3938 45.945 19.4683C44.5385 16.3922 46.1121 12.6777 49.4596 11.1736C50.699 10.6165 52.0097 10.4403 53.24 10.5984C53.4177 10.618 53.5954 10.6481 53.7701 10.6872C53.7777 10.6872 53.7822 10.6872 53.7898 10.6903C54.654 10.8273 55.4697 10.2491 55.6185 9.39236L55.9663 7.3838C56.1152 6.51954 55.5304 5.70196 54.6601 5.5529L54.3761 5.50322C54.3655 5.5002 54.3533 5.50171 54.3427 5.4987C52.0674 5.19455 49.6403 5.51225 47.3423 6.54514C46.3946 6.97125 45.5258 7.49371 44.7405 8.09448C40.4544 11.3753 38.7335 16.9704 40.91 21.7283C43.2855 26.9229 49.4763 29.3124 55.2342 27.486C55.5046 27.4002 55.7704 27.3068 56.0362 27.203L56.1045 27.4002L56.668 29.0218C56.9475 29.8258 57.833 30.2534 58.6425 29.9764L61.261 29.082C62.0705 28.805 62.5034 27.9302 62.2224 27.1262C62.2224 27.1262 60.2935 16.6361 60.1674 16.1679L60.172 16.1724Z" fill="#F29CB1"/>
<path d="M38.2991 17.9852V17.9807C38.0789 13.1912 34.0904 9.3758 29.2043 9.3758C27.087 9.3758 25.1384 10.091 23.5937 11.2925C21.8774 9.50077 19.4503 8.38507 16.7604 8.38507C14.2452 8.38507 11.9594 9.36075 10.2704 10.9522L6.80745 8.96927C5.82932 8.40916 4.57779 8.74192 4.01278 9.71157L2.4742 12.3555C1.90919 13.3252 2.24485 14.5659 3.22299 15.126L6.5052 17.0035L4.59754 20.6262C4.07506 21.6199 4.46388 22.8455 5.4648 23.365L9.69022 25.5497C10.3099 25.8719 11.0192 25.8463 11.5933 25.5452C11.9487 25.36 12.251 25.0709 12.45 24.6915L15.6578 18.5965L15.7048 18.5062C16.1696 17.7037 17.3406 17.3513 18.3765 18.2954C18.4524 18.3647 18.4995 18.4595 18.5162 18.5604C18.5906 19.0046 18.6241 19.1973 18.6028 19.3885C18.6028 19.4096 18.6013 19.4307 18.5967 19.4533L18.1578 24.0606C18.0514 25.1763 18.8792 26.1655 20.0047 26.2709L20.4588 26.3131H20.4877L24.5354 26.6955C24.8346 26.7241 25.1247 26.6865 25.392 26.5947C26.1287 26.3432 26.6861 25.6852 26.765 24.8646L27.3392 18.851L27.3452 18.7742C27.4227 17.9958 28.0849 17.3905 28.8914 17.3905C29.6979 17.3905 30.3571 17.9958 30.4376 18.7742L31.0011 24.1585C31.1181 25.2727 32.122 26.0827 33.2475 25.9668L34.3319 25.8554L37.0355 25.5783C38.1609 25.4624 38.9765 24.4641 38.8611 23.3514L38.3007 17.9867L38.2991 17.9852Z" fill="#F29CB1"/>
<path d="M97.6494 18.8811V18.8766C97.4292 14.087 93.4407 10.2717 88.5561 10.2717C86.4297 10.2717 84.475 10.9929 82.9258 12.2035C81.2064 10.4027 78.7733 9.28094 76.0773 9.28094C73.5712 9.28094 71.2914 10.2506 69.6025 11.8346L67.5399 10.6541C66.5618 10.0925 65.3102 10.4237 64.7452 11.3964L63.2036 14.0374C62.6386 15.007 62.9743 16.2492 63.9524 16.8093L65.857 17.8994L63.9494 21.519C63.4284 22.5128 63.8157 23.7384 64.8181 24.2579L69.0436 26.4426C69.6556 26.7603 70.3574 26.7407 70.9269 26.4486C71.2899 26.2634 71.6028 25.9698 71.8063 25.5844L74.9762 19.5632C74.9762 19.5632 74.9777 19.5587 74.9807 19.5541C75.0096 19.4894 75.0415 19.4277 75.0779 19.3689C75.0779 19.3674 75.0794 19.3644 75.0794 19.3629C75.5169 18.6507 76.5239 18.318 77.4716 18.9805C77.6843 19.1295 77.8316 19.3569 77.8847 19.6099C77.9546 19.9456 77.9744 20.1143 77.9561 20.2814L77.95 20.3461L77.5111 24.9535C77.4048 26.0692 78.2326 27.0584 79.358 27.1638L79.8121 27.206L83.8857 27.5884C84.1864 27.617 84.4765 27.5779 84.7454 27.4875C85.482 27.2346 86.0379 26.5751 86.1153 25.7575L86.6819 19.8267C86.6819 19.7318 86.691 19.6415 86.7077 19.5556C86.8338 18.8284 87.4747 18.2773 88.2417 18.2773C89.0087 18.2773 89.6634 18.842 89.7788 19.5827C89.7894 19.6385 89.7955 19.6972 89.7955 19.7544L90.3499 25.0529C90.4653 26.167 91.4708 26.9771 92.5947 26.8612L93.6807 26.7497L96.3842 26.4727C97.5097 26.3568 98.3253 25.3585 98.2099 24.2458L97.6494 18.8811Z" fill="#F29CB1"/>
<path d="M34.581 6.34697C35.2358 5.18079 34.8129 3.70922 33.6365 3.06013C32.4602 2.41104 30.9757 2.83023 30.321 3.99641C29.6662 5.16259 30.089 6.63416 31.2654 7.28325C32.4418 7.93234 33.9262 7.51315 34.581 6.34697Z" fill="#F29CB1"/>
<path d="M38.7799 9.39064C40.0085 8.84481 40.5581 7.41499 40.0075 6.19706C39.4569 4.97912 38.0146 4.43427 36.786 4.9801C35.5574 5.52593 35.0078 6.95575 35.5584 8.17368C36.109 9.39162 37.5513 9.93647 38.7799 9.39064Z" fill="#F29CB1"/>
<path d="M63.6508 8.40531C64.4917 7.36298 64.321 5.84226 63.2695 5.00869C62.2181 4.17511 60.684 4.34435 59.8432 5.38668C59.0023 6.42901 59.173 7.94973 60.2245 8.7833C61.2759 9.61688 62.8099 9.44765 63.6508 8.40531Z" fill="#F29CB1"/>
<path d="M67.6872 8.66816C69.0253 8.5206 69.9883 7.3251 69.8394 6.00011C69.6906 4.67361 68.4846 3.71902 67.148 3.86657C65.8099 4.01413 64.847 5.20963 64.9958 6.53462C65.1447 7.86112 66.3506 8.81572 67.6872 8.66816Z" fill="#F29CB1"/>
<path d="M79.317 13.6625C77.8149 12.607 75.3483 12.3134 73.6365 12.9864C73.0821 13.1821 72.4427 13.0451 72.1769 12.5723C72.1268 12.4835 72.1025 12.4398 72.0524 12.351C71.7866 11.8797 72.145 11.1676 72.8908 10.9056C75.4379 10.0172 78.2766 10.3545 80.5381 11.815C81.2004 12.2456 81.3781 13.021 81.0075 13.417C80.9376 13.4923 80.9027 13.5284 80.8328 13.6037C80.4622 13.9997 79.8076 13.9832 79.3155 13.664L79.317 13.6625Z" fill="#EDAEBF"/>
<path d="M92.7588 15.4136C91.4434 14.1353 89.0558 13.4592 87.259 13.8552C86.6804 13.9606 86.0713 13.7257 85.8845 13.2183C85.8495 13.1234 85.8313 13.0753 85.7964 12.9789C85.6096 12.4715 86.0758 11.8256 86.855 11.6825C89.5115 11.2052 92.2606 11.9836 94.2609 13.7799C94.8456 14.3084 94.8973 15.1019 94.469 15.4346C94.3885 15.4979 94.3475 15.528 94.267 15.5912C93.8387 15.924 93.1931 15.805 92.7603 15.4121L92.7588 15.4136Z" fill="#EDAEBF"/>
<path d="M19.4503 12.8087C17.9178 11.7954 15.4451 11.5726 13.7531 12.2923C13.2048 12.5031 12.5608 12.3841 12.2829 11.9204C12.2297 11.8331 12.2039 11.7894 12.1523 11.7021C11.8728 11.2383 12.2115 10.5171 12.9497 10.2325C15.4709 9.27343 18.3172 9.5309 20.6213 10.9267C21.2957 11.3377 21.4947 12.1086 21.1362 12.5151C21.0694 12.5919 21.0345 12.6296 20.9676 12.7064C20.6092 13.1129 19.953 13.1144 19.4533 12.8087H19.4503Z" fill="#EDAEBF"/>
<path d="M32.9558 14.5538C31.6572 13.2589 29.2787 12.5543 27.4759 12.9277C26.8972 13.0271 26.2896 12.7831 26.1089 12.2727C26.0755 12.1764 26.0573 12.1282 26.0238 12.0333C25.8431 11.5229 26.3185 10.883 27.0992 10.7505C29.7617 10.3063 32.5002 11.1179 34.4792 12.9397C35.0579 13.4757 35.0989 14.2692 34.6661 14.5975C34.584 14.6592 34.543 14.6893 34.4625 14.7511C34.0297 15.0793 33.3872 14.9513 32.9574 14.5538H32.9558Z" fill="#EDAEBF"/>
<path d="M52.833 8.61396C51.062 8.43779 48.8262 9.01296 47.3636 10.0203C46.8897 10.3259 46.2533 10.2898 45.9055 9.8742C45.8402 9.79591 45.8068 9.75676 45.7415 9.67847C45.3937 9.2629 45.5547 8.55222 46.147 8.16828C48.1686 6.86587 50.5835 6.24403 52.9894 6.40815C53.6957 6.45784 54.1847 7.00138 54.083 7.53138C54.0647 7.63075 54.0541 7.68195 54.0359 7.78132C53.9356 8.31282 53.3964 8.6516 52.833 8.61245V8.61396Z" fill="#EDAEBF"/>
<path d="M68.4857 12.3788L66.9376 11.4927C66.6782 11.3443 66.3466 11.4324 66.1969 11.6895L65.8126 12.3493C65.6629 12.6064 65.7517 12.9351 66.0111 13.0836L67.5592 13.9696C67.8186 14.1181 68.1502 14.03 68.2999 13.7729L68.6842 13.1131C68.8339 12.856 68.7451 12.5273 68.4857 12.3788Z" fill="#EDAEBF"/>
<path d="M68.4284 6.22747C68.0958 5.71554 67.789 5.53335 67.1769 5.47915C66.9491 5.45957 66.7288 5.33009 66.6954 5.12531C66.6893 5.08617 66.6863 5.0681 66.6787 5.02895C66.6438 4.82418 66.9065 4.60435 67.2513 4.63447C68.1793 4.71577 68.6411 4.99281 69.1468 5.76673C69.3352 6.05431 69.2607 6.38857 69.0633 6.45332C69.0253 6.46536 69.0071 6.47138 68.9691 6.48343C68.7702 6.54817 68.5514 6.41718 68.4284 6.22596V6.22747Z" fill="#EDAEBF"/>
<path d="M62.6264 6.49396C62.3622 6.08743 62.1192 5.94289 61.6331 5.90073C61.4524 5.88417 61.2777 5.78178 61.2504 5.61917C61.2458 5.58905 61.2428 5.574 61.2382 5.54238C61.2109 5.37977 61.419 5.20511 61.6939 5.2292C62.4305 5.29394 62.7966 5.51377 63.1975 6.12808C63.3464 6.35695 63.2887 6.62194 63.1307 6.67314C63.1003 6.68368 63.0867 6.68819 63.0563 6.69723C62.8983 6.74993 62.7252 6.64453 62.6264 6.49396Z" fill="#EDAEBF"/>
<path d="M38.4617 7.05258C38.129 6.54065 37.8222 6.35846 37.2101 6.30426C36.9823 6.28468 36.7621 6.1552 36.7287 5.95043C36.7226 5.91128 36.7195 5.89321 36.712 5.85406C36.677 5.64929 36.9398 5.42796 37.2846 5.45958C38.2126 5.54088 38.6743 5.81793 39.1801 6.59184C39.3684 6.87942 39.294 7.21368 39.0965 7.27843C39.0586 7.29047 39.0403 7.2965 39.0024 7.30854C38.8034 7.37479 38.5847 7.24229 38.4617 7.05107V7.05258Z" fill="#EDAEBF"/>
<path d="M33.0834 4.68113C32.8192 4.2746 32.5761 4.13005 32.0901 4.08789C31.9094 4.07133 31.7347 3.96894 31.7074 3.80633C31.7028 3.77622 31.6998 3.76116 31.6952 3.72954C31.6679 3.56693 31.876 3.39227 32.1509 3.41636C32.8875 3.48111 33.2535 3.70093 33.6545 4.31525C33.8034 4.54411 33.7456 4.80911 33.5877 4.8603C33.5573 4.87084 33.5436 4.87536 33.5133 4.88439C33.3553 4.93559 33.1822 4.83169 33.0834 4.68113Z" fill="#EDAEBF"/>
<path d="M57.7494 16.5172C56.1926 16.8274 55.421 17.0171 53.8976 17.4598C53.5255 17.5682 53.1185 17.2881 52.9848 16.8274C52.959 16.7401 52.9469 16.6979 52.9226 16.6106C52.7889 16.1513 52.9894 15.6831 53.3706 15.5717C54.9365 15.1169 55.7294 14.9212 57.3302 14.602C57.7206 14.5237 58.117 14.8459 58.2157 15.3142C58.2339 15.403 58.2431 15.4467 58.2613 15.5355C58.36 16.0038 58.1291 16.4404 57.7494 16.5157V16.5172Z" fill="#EDAEBF"/>
</g>
<defs>
<clipPath id="clip0_22_141">
<rect width="101" height="45" fill="white"/>
</clipPath>
</defs>
</svg>
